<svg xmlns="http://www.w3.org/2000/svg" width="1327.757" height="310.95" viewBox="0 0 1327.757 310.95"><defs><clipPath id="b"><circle cx="101.5" cy="101.5" r="101.5" fill="#bdf59c"/></clipPath><clipPath id="c"><path fill="#61ccee" d="M76.839 153.68a76.5 76.5 0 0 0 42.963-13.123 77.07 77.07 0 0 0 27.839-33.807 76.74 76.74 0 0 0-7.084-72.87 77.07 77.07 0 0 0-33.808-27.84 76.74 76.74 0 0 0-72.871 7.085 77.07 77.07 0 0 0-27.84 33.808 76.74 76.74 0 0 0 7.085 72.871 77.07 77.07 0 0 0 33.807 27.838 76.4 76.4 0 0 0 29.909 6.038m0-117.611A40.772 40.772 0 1 1 36.068 76.84a40.82 40.82 0 0 1 40.771-40.771"/></clipPath><linearGradient id="a" x1=".5" x2=".5" y1="1" gradientUnits="objectBoundingBox"><stop offset="0" stop-color="#faf3fd"/><stop offset="1" stop-color="#bc58e6"/></linearGradient></defs><g opacity=".25"><path fill="url(#a)" d="M0 296.216h1327.757V114.434s-302.766-232.651-639.789-34.5S0 30.565 0 30.565Z" opacity=".1" transform="translate(0 14.734)"/><path fill="url(#a)" d="M0 219.107h1327.757V109.475s-246.878-203.23-599.144-55.888S0 45.119 0 45.119Z" opacity=".2" transform="translate(0 88.5)"/><g clip-path="url(#b)" opacity=".7" style="isolation:isolate" transform="translate(1093.878)"><path fill="#bdf59c" d="m415.795 198.935-4.125 4.125L212.998 4.387l4.126-4.124zm-152.635 0-4.125 4.125L60.364 4.387 64.488.263zm-155.551 0-4.125 4.125L-95.188 4.387l4.125-4.124zm231.383 0-4.125 4.125L136.195 4.387 140.32.263zm-152.635 0-4.125 4.125L-16.44 4.387l4.125-4.124zm-155.551 0-4.125 4.125L-171.991 4.387l4.125-4.124zm346.101 0-4.125 4.125L174.11 4.387l4.125-4.124zm-152.634 0-4.125 4.125L21.476 4.387 25.601.263zm-155.552 0-4.125 4.125L-134.076 4.387l4.125-4.124zm231.382 0-4.125 4.125L97.306 4.387l4.125-4.124zm-152.634 0-4.125 4.125L-55.328 4.387l4.125-4.124zm-155.551 0-4.125 4.125L-210.879 4.387l4.125-4.124zm403.819 0-4.125 4.125L192.94 4.387l4.125-4.124zm-152.634 0-4.125 4.125L40.306 4.387 44.431.263zm-155.551 0-4.125 4.125L-115.245 4.387l4.125-4.124zm231.382 0-4.125 4.125L116.137 4.387l4.125-4.124zm-152.634 0-4.125 4.125L-36.496 4.387l4.124-4.124zm-155.552 0-4.125 4.125L-192.049 4.387l4.125-4.124zm346.102 0-4.125 4.125L154.054 4.387l4.124-4.124zm-152.635 0-4.125 4.125L1.418 4.387 5.544.263zm-155.551 0-4.125 4.125L-154.133 4.387l4.125-4.124zm231.383 0-4.125 4.125L77.25 4.387 81.375.263zm-152.635 0-4.125 4.125L-75.385 4.387-71.26.263zm-155.551 0-4.125 4.125L-230.936 4.387l4.125-4.124z"/></g><g clip-path="url(#c)" opacity=".3" style="isolation:isolate" transform="translate(28.404 40.432)"><path fill="#61ccee" d="m314.775 150.603-3.123 3.123L161.25 3.322l3.12-3.123zm-115.551 0-3.123 3.123L45.698 3.322 48.82.199zm-117.76 0-3.123 3.123L-72.062 3.322-68.94.199zm175.167 0-3.123 3.123L103.105 3.322l3.122-3.123zm-115.551 0-3.123 3.123L-12.446 3.322-9.324.199zm-117.76 0-3.123 3.123L-130.206 3.322l3.122-3.123zm262.015 0-3.123 3.123L131.81 3.322l3.12-3.123zm-115.551 0-3.123 3.123L16.258 3.322 19.38.199zm-117.76 0-3.123 3.123L-101.502 3.322-98.38.199zm175.167 0-3.123 3.123L73.665 3.322 76.787.199zm-115.551 0-3.123 3.123L-41.886 3.322l3.122-3.123zm-117.759 0-3.123 3.123L-159.645 3.322l3.122-3.123zm305.71 0-3.123 3.123L146.065 3.322l3.122-3.123zm-115.552 0-3.123 3.123L30.513 3.322 33.635.199zm-117.759 0-3.123 3.123L-87.246 3.322l3.122-3.123zm175.167 0-3.123 3.123L87.921 3.322 91.043.199zm-115.551 0-3.123 3.123L-27.63 3.322l3.122-3.123zm-117.76 0-3.123 3.123L-145.39 3.322l3.122-3.123zm262.015 0-3.123 3.123L116.625 3.322l3.122-3.123zm-115.551 0-3.123 3.123L1.074 3.322 4.196.199zm-117.76 0-3.123 3.123L-116.686 3.322l3.122-3.123zm175.167 0-3.123 3.123L58.481 3.322 61.603.199zm-115.551 0-3.123 3.123L-57.07 3.322l3.122-3.123zm-117.759 0-3.123 3.123L-174.829 3.322l3.122-3.123z"/></g></g></svg>