<svg xmlns="http://www.w3.org/2000/svg" width="105.096" height="92.794" viewBox="0 0 105.096 92.794"><defs><clipPath id="a"><path fill="none" d="M0 0h105.096v92.794H0z"/></clipPath></defs><g clip-path="url(#a)"><path fill="#62dafa" d="m41.29 53.249 7.52.007a1.09 1.09 0 0 1 1.05 1.162l-.01 5.741a1.03 1.03 0 0 1-1.006 1.009l-5.267.02h-9.586l-.045 4.4a1.01 1.01 0 0 1-.69.859 1.09 1.09 0 0 1-1.1-.276l-9.478-7.93a1.136 1.136 0 0 1-.075-1.968l9.7-8.118a.96.96 0 0 1 1.033-.106 1.03 1.03 0 0 1 .615.939l.035 4.258Z"/><path fill="#fdf38a" d="m67.161 23.498-.182.411-5.372.014c-.5.087-.561.3-.632.763a45 45 0 0 0 0 5.721.7.7 0 0 0 .66.625h6.57l.3.41a36.2 36.2 0 0 1-1.693 12L60.657 63.85l.014 28.938-16.288.007-.051-29.106-.759-2.5.231-.411 5.008-.016c.431-.061.557-.212.625-.629a51 51 0 0 0-.027-5.978.64.64 0 0 0-.51-.482l-7.314-.011-.3-.411-3.309-10.741a32.6 32.6 0 0 1-1.246-13.139 4.3 4.3 0 0 0 .15-1.066A32.93 32.93 0 0 1 52.489 4.732a33.6 33.6 0 0 1 14.672 18.766"/><path fill="#e9e8a0" d="M36.732 29.371c.038-.345-.12-.773.15-1.066-.043.308.294.844-.15 1.066"/><path fill="#fd646f" d="m22.657 3.053-.361.96A30.6 30.6 0 0 0 13.8 26.784l.626 9.678-.36.891c-2.824 4.294-5.51 9.68-5.09 15a.72.72 0 0 0 .59.582c3.123-.094 5.219.1 6.261 3.45l1.992 11.268a4.36 4.36 0 0 0 3.842 3.125l9.375.06c5.874.665 8.769 3.578 9.391 9.434l.048 10.333a3.57 3.57 0 0 0 .87 1.625l-.129.563-6.946-.04a3.04 3.04 0 0 1-2.831-2.827q.136-4.641-.024-9.361a4.2 4.2 0 0 0-3.877-3.468 18 18 0 0 1-3.116-.11 11.5 11.5 0 0 1-3.487 0 11.5 11.5 0 0 1-3.489 0q-1.783.092-3.677.187a5.164 5.164 0 0 1-5.237-5.039l-2.2-12.782a24.6 24.6 0 0 0-5.1-.018A2.36 2.36 0 0 1 0 58.726l.065-3.468a26.1 26.1 0 0 1 4.512-11.445 3.9 3.9 0 0 0 .894-2.089l-.182-2.5-.2-2.473c-.1-1.224-.182-2.334-.179-3.479a20.3 20.3 0 0 1 .01-4.515 27 27 0 0 1 2.463-10.27A30.82 30.82 0 0 1 21.25 3.646a3.8 3.8 0 0 1 1.407-.593"/><path fill="#fc7f86" d="M52.566 4.61c-.018-.054-.1.1-.078.122l-.539.816a32.6 32.6 0 0 0-14.528 21.94l-.54.818a4.4 4.4 0 0 1-.15 1.066l.314 1.01a32.5 32.5 0 0 0 1.325 12.011l3.239 10.5-.32.355c-.018.161-.072.4-.184.411a59 59 0 0 1-7.3-.151l-.218-.442-.049-4.224a.67.67 0 0 0-.757-.476l-9.893 8.21c-.516.566-.579.821.065 1.35l9.458 7.913c.5.32.834.386 1.125-.2l.06-4.377a.86.86 0 0 1 .339-.406c.378-.28 8.255-.126 9.4-.076l.244.411c.723.128 1.065 1.886 1.171 2.643l.05 28.709-.41.254h-3.171c-.385-.7-1.149-1.338-1.153-2.268l-.045-10.246a9.094 9.094 0 0 0-9.226-9.034l-8.846-.049a4.784 4.784 0 0 1-4.632-3.9l-1.859-10.676a3.814 3.814 0 0 0-3.753-3.25H9.847a1.188 1.188 0 0 1-1.3-1.213c-.068-9.309 5.566-14.6 5.481-15.873l-.61-9.015A30.99 30.99 0 0 1 22.657 3.05 26.8 26.8 0 0 1 32.833.217a18.4 18.4 0 0 1 5.022-.061 31.8 31.8 0 0 1 12.584 3.405 13.5 13.5 0 0 0 2.127 1.049"/><path fill="#fd6c77" d="m31.44 89.927-.024-9.361.248 9.125c0 .148-.224.265-.223.236"/><path fill="#fc9fa5" d="m6.331 59.354-5.1-.018c.025-.131.179-.21.4-.21h4.534a.16.16 0 0 1 .168.223"/><path fill="#fd757e" d="M4.913 33.276c-.124-.021-.2-.175-.2-.4v-3.718c0-.22.079-.374.214-.4Z"/><path fill="#fc9fa5" d="M17.445 76.992c.179.059.176.128 0 .206l-3.676-.02c.005-.118.159-.2.379-.2Z"/><path fill="#fc9197" d="M20.935 76.991c.179.059.176.128 0 .207h-3.49v-.205Z"/><path fill="#fe858b" d="M24.421 76.989q.268.087 0 .209h-3.489v-.207Z"/><path fill="#fe7b82" d="m27.537 77.099-3.114.1v-.209Z"/><path fill="#98e5fb" d="m60.675 92.785-.411-.142-.015-28.84 6.7-22.384a35 35 0 0 0 1.168-9l.388-.977c.043-.161.116-.4.24-.411a64 64 0 0 1 7.934.16l.195.485.027 4.17c.088.4.421.522.8.488l10.087-8.428c.281-.33.224-.575-.052-.9l-10.08-8.377a.647.647 0 0 0-.756.471l-.051 4.3a1.2 1.2 0 0 1-.31.406c-.341.306-8.025.149-9.14.1l-.242-.411-.687-.763a33.23 33.23 0 0 0-13.4-17.158l-.585-.845q-.238-.217.078-.121A33.14 33.14 0 0 1 71.728.118a30.91 30.91 0 0 1 25.9 18.249 30.33 30.33 0 0 1 2.569 15.318l-.184 2.669-.206 2.661-.247 2.69a3.8 3.8 0 0 0 .95 2.1 24.33 24.33 0 0 1 4.58 14.084 1.045 1.045 0 0 1-1.033 1.243h-5.276l-2.353 13.7a4.7 4.7 0 0 1-4.265 4.115l-7.076.14-8.329.174a3.43 3.43 0 0 0-3.022 3.2l-.127 9.4a2.987 2.987 0 0 1-2.859 2.852Z"/><path fill="#fd646f" d="m68.506 31.441-6.733.007a1.15 1.15 0 0 1-1.219-1.245l.012-5.539a1.08 1.08 0 0 1 1.08-1.15l5.516-.015h9.285l.021-4.19a1.08 1.08 0 0 1 .5-.944 1.06 1.06 0 0 1 1.14.027l9.919 8.318a1.01 1.01 0 0 1 .053 1.483l-10.027 8.4a1.08 1.08 0 0 1-1.18-.064 1.2 1.2 0 0 1-.415-.988l.008-4.109Z"/></g></svg>