<svg xmlns="http://www.w3.org/2000/svg" width="69.935" height="86.092" viewBox="0 0 69.935 86.092"><defs><clipPath id="a"><path fill="none" d="M0 0h69.935v86.092H0z"/></clipPath></defs><g clip-path="url(#a)"><path fill="#fec244" d="M62.655 59.359a5.923 5.923 0 0 1-5.587 6.08 5.77 5.77 0 0 1-6.048-5.687l-.357-3.64-.04-2.658a6.276 6.276 0 0 1 5.769-5.3 6.35 6.35 0 0 1 6.681 6.833Zm2.736 23.534-.338-.15-.052-5.012a.919.919 0 0 0-1.8.1v4.818l-.335.249h-12.3l-.031-5.024a6.57 6.57 0 0 0-3.973-5.868 4.3 4.3 0 0 1 2.461-.831l15.469.011a5.655 5.655 0 0 1 5.441 4.521l-.015 6.34a1.27 1.27 0 0 1-.832.815Z"/><path fill="#fdb137" d="M65.391 82.892h-2.526l-.011-4.878a1.252 1.252 0 0 1 2.5-.135Z"/><path fill="#01bff9" d="M18.918 59.694c-.327 3.348-2.691 5.817-5.894 5.755a5.867 5.867 0 0 1-5.727-5.865l-.353-3.635a9.5 9.5 0 0 1-.033-2.482 6.32 6.32 0 0 1 6.606-5.3 6.22 6.22 0 0 1 5.775 5.3l-.025 2.649Zm4.471 12.334a6.51 6.51 0 0 0-3.952 5.819l-.019 4.714q.417-.04-.091.336H6.58l-.335-.152.018-4.978a.916.916 0 0 0-1.785 0l.015 4.928-.335.2-3.31-.031a1.24 1.24 0 0 1-.83-.814L0 75.722a5.8 5.8 0 0 1 5.437-4.567l15.057-.018 1.991.355a1.38 1.38 0 0 1 .9.536"/><path fill="#08a8f0" d="M6.579 82.896H4.157l-.041-4.883a1.254 1.254 0 1 1 2.508 0Z"/><path fill="#004280" d="M46.559 72.004c1.146-.224 2.534 1.291 3.165 2.221 1.379 2.029 1.324 6 1.174 8.471l-.335.2v1.84a1.68 1.68 0 0 1-.848 1.355l-4.9-.005-.331-.2.128-5.716a.925.925 0 0 0-1.814-.161l-.173 5.853-.343.235H27.341l-.279-.473.017-2.573.319-.441.154-.336 9.657-.019c5.2-.8 7.119-5.614 5.511-10.3l.161-.488a8.36 8.36 0 0 1 3.676.551"/><path fill="#004281" d="m24.884 82.695.332.2-.067 2.973-.342.227h-4.64c-.4-.27-.69-.52-.686-1.01a9.7 9.7 0 0 1-.035-2.381l5.437-.006"/><path fill="#00366d" d="m44.817 86.086-2.533.005.174-5.992a1.2 1.2 0 0 1 1.335-1.094 1.27 1.27 0 0 1 1.169 1.364ZM27.4 82.601a18.5 18.5 0 0 1-.057 3.487h-2.536l.077-3.4.132-.342 2.139-.079Z"/><path fill="#0055a2" d="M42.884 71.454a9.3 9.3 0 0 1 .708 4.047 7.155 7.155 0 0 1-7.288 7.134l-8.9-.033-.335-.15c.092-.847.327-4.144-1.4-2.952a.87.87 0 0 0-.387.756v2.248c-.273.271-5.145.141-5.863.057-.132-.016-.329-.061-.335-.154-.261-3.875-.287-8.577 3.829-10.518l.478.139a5.6 5.6 0 0 1 2.335-.556Z"/><path fill="#004281" d="m27.4 82.596-2.518.1-5.381.048-.021 2.339c-.1-.016-.165-.143-.164-.322l.009-1.864.091-.336h5.537l-.01-2.328a1.22 1.22 0 0 1 1.049-1.217 1.16 1.16 0 0 1 1.429 1.018Z"/><path fill="#0055a2" d="M34.248 65.695a6.77 6.77 0 0 1-5.967-5.5l-.563-5.221a18 18 0 0 1-.162-2.714 7.414 7.414 0 1 1 14.79 1.044l-.725 6.871a6.74 6.74 0 0 1-7.37 5.523"/><path fill="#004281" d="M34.846 60.821a1.3 1.3 0 0 1-1.575-1.066 1.28 1.28 0 0 1 1.38-1.453 8.3 8.3 0 0 0 .08-1.807 1.244 1.244 0 0 1 1.321-1.229 1.227 1.227 0 0 1 1.194 1.269V58a2.8 2.8 0 0 1-2.406 2.822"/><path fill="#c0eaf8" d="M62.099 34.979a3.63 3.63 0 0 0 2.772-3.218V3.215A3.62 3.62 0 0 0 62.192 0l4.735.028A3.15 3.15 0 0 1 69.936 3.2v28.57a3.143 3.143 0 0 1-3.011 3.179Z"/><path fill="#dff5fb" d="M62.193 0a3.146 3.146 0 0 1 3.006 2.929l.012 28.839c-.231 1.875-1.148 3.059-3.108 3.212l-1.078.005a1.75 1.75 0 0 0-1.835 1.682l-.011 2.171a.83.83 0 0 1-.5.791.86.86 0 0 1-.855-.108l-6.773-4.529-10.624.015-4.656 4.638a1.05 1.05 0 0 1-.891.416 1.07 1.07 0 0 1-.724-.417l-4.658-4.636-10.619-.016-6.773 4.529a.86.86 0 0 1-.972.047.84.84 0 0 1-.382-.729l-.011-2.175A1.69 1.69 0 0 0 9.066 35l-6.239-.07A3.13 3.13 0 0 1 .022 32.1V2.871A3.19 3.19 0 0 1 2.879.025Z"/><path fill="#e43950" d="m57.914 22.86-8.151.011a1.294 1.294 0 0 1-1.35-1.349v-8.07a1.294 1.294 0 0 1 1.35-1.35h8.07a1.294 1.294 0 0 1 1.349 1.35v8.072a1.26 1.26 0 0 1-1.266 1.337"/><path fill="#fc6930" d="M15.282 12.184a5.372 5.372 0 1 1-4.438 6.287 5.344 5.344 0 0 1 4.438-6.287"/><path fill="#80d161" d="m39.9 22.853-9.8.011a1.21 1.21 0 0 1-1-.607 1.25 1.25 0 0 1 .074-1.319l4.8-8.291a1.13 1.13 0 0 1 .909-.535 1.2 1.2 0 0 1 1.067.534l4.806 8.291a1.32 1.32 0 0 1 .132 1.2 1.16 1.16 0 0 1-.99.715"/></g></svg>