<svg xmlns="http://www.w3.org/2000/svg" width="83.437" height="82.44" viewBox="0 0 83.437 82.44"><path fill="#eff9f9" d="M16.814 7.988a2 2 0 1 1-1.278 2.572 1.976 1.976 0 0 1 1.278-2.572M73.281.111a1.976 1.976 0 0 1 2.5 1.237 2.002 2.002 0 1 1-3.776 1.331A1.966 1.966 0 0 1 73.281.111m-64.346 0a1.976 1.976 0 0 1 2.5 1.237 2.02 2.02 0 0 1-1.222 2.553 1.984 1.984 0 0 1-2.555-1.224A1.966 1.966 0 0 1 8.935.111m70.907 9.191a1.976 1.976 0 0 1 2.5 1.237 2.02 2.02 0 0 1-1.221 2.555 2 2 0 1 1-1.276-3.792Zm-77.472 0a1.976 1.976 0 0 1 2.5 1.237 2.02 2.02 0 0 1-1.223 2.555 2 2 0 1 1-1.276-3.792Zm63.032-1.314a1.976 1.976 0 0 1 2.5 1.237 2.02 2.02 0 0 1-1.222 2.555 2 2 0 1 1-1.276-3.792Z"/><path fill="#ba7557" d="m16.659 35.332.189-.4a4.23 4.23 0 0 0 2.627-2.881l.395-.213.382.206c.664 2.555 2.86 3.228 5.243 3.272l.169-.4a4.27 4.27 0 0 0 2.563-2.838l.393-.2.386.2c.689 2.526 2.842 3.188 5.208 3.245l.114-.382a3.62 3.62 0 0 0 2.585-2.934l.039-4.147.331-.235c.046-.143.1-.14.164 0l.331.143.05 4.248c.467 2.642 2.792 3.171 5.094 3.32l.189-.4a4.23 4.23 0 0 0 2.627-2.884l.395-.213.382.206c.658 2.557 2.86 3.23 5.241 3.276l.169-.4a4.26 4.26 0 0 0 2.561-2.842l.393-.2.386.2c.686 2.528 2.849 3.191 5.212 3.248l.114-.382a3.62 3.62 0 0 0 2.583-2.932l.039-4.147.331-.235c.046-.143.1-.14.164 0l.331.143.05 4.248c.467 2.64 2.792 3.169 5.094 3.32l.189-.4a4.22 4.22 0 0 0 2.625-2.877l.395-.213.384.208c.667 2.544 2.877 3.184 5.239 3.254-.116-.456.252-.537.482-.134l-.013 41.042-.114.329H53.409l-.2-.329c-.129-.035-.32-.09-.329-.191a35.4 35.4 0 0 1 0-5.149l.329-.239.114-.329h19.874c.524-.083.605-.186.693-.706v-30.1l-.32-.616q-10.049-.158-20.161-.088l-.2-.329-.114.329H30.43l-.2-.329-.114.329q-10.151-.069-20.247.088l-.32.616v30.106c.081.531.184.614.7.7h19.782l.2.331c.129.035.322.092.329.191a44 44 0 0 1-.116 5.528l-.329.191H7.778l-.2-.327-.329-.114V35.637l.329-.2q-.119-.238.382-.121l.105-.384a3.69 3.69 0 0 0 2.59-2.923l.039-4.149.331-.235c.046-.143.1-.14.164 0l.331.143.05 4.248c.467 2.645 2.792 3.167 5.094 3.32Z"/><g transform="translate(0 38.448)"><g transform="translate(2.322)"><path fill="#f9647e" d="M50.886.004c.522.134.5 1.792 0 1.969.48 0 .461.548 0 .656l-.114.329H30.97l-.112.118v34.231l.112.118h19.714l.2.329h27.9v1.969l-.158.329H4.425a4.9 4.9 0 0 0-.061 1.728l-.32.239c-.035.127-.088.32-.186.329a26 26 0 0 1-3.561 0l-.235-.329-.061-4.267h2.627l.186-.327a16 16 0 0 1 2.206 0 .55.55 0 0 1 .235.329h22.647v-5.583c-.522-.134-.5-1.792 0-1.969l-.329-.114V2.171l.329-.2c-.522-.134-.5-1.792 0-1.969h22.986Z"/><path fill="#ea4b6e" d="m78.79 39.729.026 2.3-.158.329H4.247l-.2-.329-.075-2.3z"/></g><path fill="#eff9f9" d="M2.384 42.028h80.218a.94.94 0 0 1 .833.9c.024.318-.18 1.059-.737 1.059H.739c-.557 0-.761-.739-.737-1.059a.93.93 0 0 1 .838-.9z"/></g><path fill="#ca8562" d="M7.574 35.433v40.779H4.949l-.024-41.06a1.53 1.53 0 0 1 1.364.042 1.94 1.94 0 0 1 1.285.235Z"/><g transform="translate(1.008)"><g transform="translate(0 17.061)"><path fill="#c2e9f2" d="M37.573 6.186a.69.69 0 0 1 .682.125 1.24 1.24 0 0 1 1.239-.09l2.316.011a1.45 1.45 0 0 1 1.379.1l.645-.2c-.219-.215-.134-.325.147-.206a16.5 16.5 0 0 0 4.16-2.2l.386.121.73-.182 25.751.031c3.5.377 6.188 2.105 6.366 5.884a2.9 2.9 0 0 1 .029.978h-1.295c0 .127-.031.322-.112.327a45 45 0 0 1-4.943 0q-.875.164-1.075-.329l-.184.329h-2.183l-.23-.329c-.035.129-.092.322-.191.329a42 42 0 0 1-4.947 0c-.553.107-.908 0-1.061-.329-.015.127-.05.314-.143.329a15 15 0 0 1-2.1 0 .56.56 0 0 1-.228-.329h-.166c0 .123-.013.283-.11.327-.263.121-5.088.042-5.776 0l-.193-.329-.186.329h-2.2l-.232-.329c0 .127-.031.322-.11.329a44 44 0 0 1-4.914 0q-.872.164-1.068-.329l-.186.329a19 19 0 0 1-2.2 0 .55.55 0 0 1-.232-.329c-.035.129-.092.322-.191.329a38 38 0 0 1-5.131 0q-.7.145-.879-.329c-.015.127-.05.314-.143.329a15 15 0 0 1-2.112 0 .55.55 0 0 1-.23-.329h-.167c0 .127-.031.325-.11.329a42.5 42.5 0 0 1-5.412 0c-.309.042-.463 0-.557-.329l-.189.327h-2.2l-.232-.329-.112.329h-5.825l-.2-.327-.184.329a18 18 0 0 1-2.175 0 .55.55 0 0 1-.23-.329c-.035.129-.092.322-.191.329a42 42 0 0 1-4.954 0q-.831.162-1.064-.327c-.018.127-.048.309-.143.329a8.3 8.3 0 0 1-1.474 0q-.692.14-.855-.329h-.164a.5.5 0 0 1-.013.219c-.094.281-5.27.18-5.868.11l-.193-.329c-.507-.086-.366-1.384-.294-1.835.524-3.27 2.379-4.691 5.557-5.046l23.162-.015.528.213.6.02a45 45 0 0 0 4.088 2.285Z"/><path fill="#d1f9fc" d="m29.472 0 .537.232 2.151 2.943c.254.215.452.507.728.708a2 2 0 0 1-.9.121l-22.78.007a5.26 5.26 0 0 0-5.27 5.39v1.162l-.184.329H1.548l-.232-.331L0 10.55V5.638A6.82 6.82 0 0 1 5.6.059L29.474.006Zm51.897 9.583a6.545 6.545 0 0 0-6.37-5.557l-26.06-.031a.56.56 0 0 1-.419-.147A14.8 14.8 0 0 0 51.969.013l23.852.039a6.7 6.7 0 0 1 5.552 5.585l-.009 3.943Z"/><g transform="translate(1.309 10.554)"><path fill="#ea4b6e" d="m78.795.004-.046 4.256a3.99 3.99 0 0 1-2.568 3.287l-.482.134c-3.579-.27-3.574-4.71-3.362-7.445l.327-.235h6.129Z"/><path fill="#f9647e" d="m2.63.004.329.184.009 3.555A4.16 4.16 0 0 0 5.496 7.28l.143.412-.382.121a4.02 4.02 0 0 1-2.649-.276A4.5 4.5 0 0 1-.002 4.27L.005 0H2.63Z"/><path fill="#5fbd7d" d="M17.55.004c.127.033.32.088.329.186a29 29 0 0 1 0 3.794l-.329.235a4.57 4.57 0 0 1-3.21 3.5c-3.335-.265-3.62-4.787-3.322-7.379l.32-.329h6.21Zm52.517 0c.127.033.32.088.329.186a29 29 0 0 1 .011 3.8l-.327.235a4.57 4.57 0 0 1-3.21 3.5 1.97 1.97 0 0 1-1.553-.572c-1.824-1.469-1.982-4.717-1.774-6.9l.327-.235h6.2Z"/><path fill="#ea4b6e" d="M43.818.004c.127.033.32.088.329.186a33 33 0 0 1 0 3.791.53.53 0 0 1-.329.232 4.57 4.57 0 0 1-3.21 3.5 1.97 1.97 0 0 1-1.555-.568c-1.829-1.465-1.976-4.728-1.761-6.91L37.619 0h6.2Z"/><path fill="#5fbd7d" d="M52.531.004c.127.033.32.086.329.186a33 33 0 0 1 .029 3.822.54.54 0 0 1-.327.237 4.59 4.59 0 0 1-3.125 3.447c-3.649-.252-3.542-4.7-3.329-7.458l.329-.232h6.094Z"/><path fill="#ea4b6e" d="M26.272.002c.129.033.32.086.329.186a33 33 0 0 1 .031 3.824.55.55 0 0 1-.327.239 4.6 4.6 0 0 1-3.133 3.444c-3.581-.281-3.581-4.719-3.366-7.456l.327-.235h6.129ZM8.705.004l-.039 4.278c-.022 1.673-1.568 2.949-3.028 3.412A4.49 4.49 0 0 1 2.629 3.46V.006h6.074Zm52.526 0-.039 4.276a3.97 3.97 0 0 1-3.031 3.419 2 2 0 0 1-1.594-.548c-1.956-1.533-1.93-4.631-1.741-6.914l.329-.232z"/><path fill="#5fbd7d" d="m34.973.004-.039 4.276a3.98 3.98 0 0 1-3.033 3.421 2.03 2.03 0 0 1-1.632-.585c-1.857-1.515-1.928-4.645-1.706-6.87l.329-.235h6.079Z"/><path fill="#f9647e" d="M55.154.004v3.454a4.51 4.51 0 0 0 3 4.241 4.434 4.434 0 0 1-5.6-3.452L52.521.002h2.62Z"/><path fill="#78cc96" d="M28.889.009v3.283A4.59 4.59 0 0 0 31.898 7.7a4.435 4.435 0 0 1-5.589-3.448l-.035-4.25Z"/><path fill="#f9647e" d="m72.666.004.009 3.62a4.39 4.39 0 0 0 3.026 4.061 4.45 4.45 0 0 1-5.623-3.463L70.067.005zm-52.524 0 .009 3.62a4.415 4.415 0 0 0 3.031 4.072 4.432 4.432 0 0 1-5.627-3.478V.004Z"/><path fill="#78cc96" d="m46.436.006.007 3.945a4.24 4.24 0 0 0 2.993 3.746 4.427 4.427 0 0 1-5.623-3.482V.005h2.62Z"/><path fill="#f9647e" d="m37.617.004.02 3.125a4.77 4.77 0 0 0 2.969 4.588 4.285 4.285 0 0 1-5.421-3.287L35.13.007h2.485Z"/><path fill="#78cc96" d="m63.868.007.031 3.123a4.8 4.8 0 0 0 2.971 4.588 4.285 4.285 0 0 1-5.419-3.287L61.398.008h2.471ZM11.339.006c.105 3.484-.581 6.07 3 7.708A4.285 4.285 0 0 1 8.92 4.427L8.867.004h2.471Z"/></g></g><g transform="translate(22.285)"><path fill="#ca8562" d="M27.1 2.377c1.007-.039 2.015 1.215 2.636 2.006a10 10 0 0 1 1.566 2.87c.331.947.833 2.478.248 3.3l.018 1.158c0 .175-.059.3-.178.316v-.818a9.79 9.79 0 0 0-5.285-7.05 14.28 14.28 0 0 0-12.732 0C7.246 7.244 6.599 14.571 9.88 20.239a13.3 13.3 0 0 1-2.688-3.173 12.63 12.63 0 0 1-1.9-6.5c-.6-.785-.118-2.3.2-3.237a9.8 9.8 0 0 1 1.52-2.824c.656-.851 1.71-2.153 2.754-2.127 4.7-3.16 12.653-3.16 17.344 0Z"/><path fill="#ba7557" d="M9.754 2.373a9.73 9.73 0 0 0-4.476 8.186 5.273 5.273 0 0 1-2.1-10.11 5.43 5.43 0 0 1 6.579 1.928Zm21.794 8.18a9.9 9.9 0 0 0-4.449-8.175A5.36 5.36 0 0 1 33.675.446a5.23 5.23 0 0 1 3.024 6.087 5.205 5.205 0 0 1-5.151 4.02"/><path fill="#eff9f9" d="M17.433 15.925c.125.02.311.055.325.147.081.579.086 2.112-.436 2.36-.822-.274-1.66.647-.941 1.193a23.3 23.3 0 0 0 4.037.035c.774-.342 0-1.588-.866-1.217a.5.5 0 0 1-.226-.079c-.248-.2-.555-2.287-.02-2.423l.16-.355a1.945 1.945 0 0 0 1.721-1.517l.349-.167a5.22 5.22 0 0 1 2.853 2.335c1.526 2.621.013 5.52-2.7 6.748-.011.1-.112.158-.147.206l-.645.2a10.6 10.6 0 0 1-4.925-.022 1.4 1.4 0 0 1-.662-.353c-2.829-1.138-4.384-4.145-2.846-6.783a6.15 6.15 0 0 1 2.844-2.467l.34.189a1.9 1.9 0 0 0 1.638 1.607Z"/><path fill="#c7a796" d="M21.547 23.189c-.147.211-.441.151-.645.2.125-.2.482-.428.645-.2"/><path fill="#c6957f" d="M15.97 23.372c-.191-.059-.471-.072-.682-.125l.018-.228a1.6 1.6 0 0 1 .662.353Z"/><path fill="#646495" d="M21.534 13.901a2.28 2.28 0 0 1-2.228 2.039 1.242 1.242 0 0 1-1.873-.015 2.24 2.24 0 0 1-2.127-2.153 3.12 3.12 0 1 1 6.23.132Z"/><g transform="translate(7.579 2.352)"><path fill="#ba7557" d="m23.808 9.674.007.649a14.7 14.7 0 0 1-1.706 4.4 3.58 3.58 0 0 1-1.316 2.289 3.5 3.5 0 0 1-2.136 1.546c-1.162.895-3.234 2.1-4.546 2.074l.132-.428c3.737-1.851 3.811-6.524-.112-8.239l-.178-.417-.322-.241a2.789 2.789 0 0 0-5.574-.116l-.333.226-.162.443c-3.912 1.9-3.908 6.563.013 8.386l.151.423c.237.129.257.173-.018.228a13.5 13.5 0 0 1-4.684-2.3c-.443.033-1.022-.208-.728-.708A11.45 11.45 0 0 1 2.07 4.447C5.47-.007 12.232-.953 17.289.914c3.655 1.346 6.997 4.686 6.519 8.76"/><path fill="#646495" d="M17.74 6.804a.985.985 0 0 1-.917 1.055.966.966 0 0 1-1.05-.978V5.574a.982.982 0 1 1 1.963 0v1.232Zm-11.818 0a.985.985 0 0 1-.917 1.055.966.966 0 0 1-1.05-.978V5.574a.982.982 0 1 1 1.963 0v1.232Z"/></g><path fill="#7575a6" d="m19.306 15.94.158 2.21a1.184 1.184 0 0 1 1.522.594.945.945 0 0 1-.781 1.292h-3.561a.94.94 0 0 1-.82-1.164c.162-.627.765-.919 1.559-.719l.048-2.228a7.4 7.4 0 0 0 1.873.015Z"/></g></g><g transform="translate(9.219 38.452)"><g transform="translate(23.633 2.625)"><path fill="#ea4b6e" d="m20.357.002.329.114v27.26l-.329.2c.522.134.5 1.792 0 1.969v5.581H0V0h20.357Z"/><path fill="#c2e9f2" d="m15.436 20.677-13.138.013V2.298h13.135Zm-.003 10.506L2.3 31.194v-6.572h13.131Z"/></g><g transform="translate(43.987 .002)"><path fill="#c2e9f2" d="m12.188 12.458-.388-.114c-.123-.156-1.311-3.542-1.322-3.741a.62.62 0 0 1 .147-.555l-.373-.066-.757-1.974-2.182 6.278-.408.173-.057.134.015.439a3.64 3.64 0 0 0 .377 5.252q.141.618-.978 1.031a6.2 6.2 0 0 0-.48 10.278l.107.469-5.89.138V1.967l19.043.007v28.233l-5.958-.022a6.608 6.608 0 0 0-1.11-11.684 3.96 3.96 0 0 0 .208-6.044Z"/><g transform="translate(.002)"><path fill="#fefefe" d="M5.89 30.062a6.44 6.44 0 0 1-2.879-6.241 6.55 6.55 0 0 1 4.105-5.3 3.843 3.843 0 0 1-.27-5.923l1.862.075a3.867 3.867 0 0 0 .382 5.848 6.564 6.564 0 0 0-1.167 11.618c-.664.033-1.5.268-2.033-.072Z"/><path fill="#f9647f" d="M10.62 8.05a37 37 0 0 1-1.36 4.307l-.388.116-1.971-.011 2.605-7.493Z"/><path fill="#ea4b6e" d="m10.62 8.051 1.564 4.408-3.311.015 1.428-4.147c.071-.206.152-.309.319-.276"/><path fill="#eff9f9" d="M0 32.172v-1.969c.031-.129.083-.322.184-.333a32 32 0 0 1 4.447-.105 3.3 3.3 0 0 1 1.261.3 2.3 2.3 0 0 1 1.153-.167 6.9 6.9 0 0 1 1.373-11.434 4.66 4.66 0 0 1-.52-5.5q-.846.131-1.05-.371-.18-.128.057-.134c.248-.5 1.767-.5 1.971.011l.279-.329q1.4-.007 2.8-.011l.23.327c.732-.156 1.239 1.1 1.434 1.735a4.36 4.36 0 0 1-.989 4.245 6.945 6.945 0 0 1 1.434 11.423 33 33 0 0 0 4.561.018.3.3 0 0 0 .09-.118V2.423l-.114-.118-18.4-.007-.2-.329V0H20.01a.976.976 0 0 1 1 1.013v30.141a.974.974 0 0 1-1 1.013h-20Z"/><path fill="#fee574" d="M9.186 21.089a.963.963 0 0 1 1.25.568.99.99 0 0 1-.579 1.263.975.975 0 1 1-.671-1.831m0 3.938a.963.963 0 0 1 1.25.568.99.99 0 0 1-.579 1.263.975.975 0 1 1-.671-1.831"/></g></g><path fill="#eff9f9" d="M21.008 0v1.969l-.114.329-18.486.007-.116.118v27.328l.07.118 2.618.007.232.325c.015-.127.048-.314.14-.329.59-.1 2.151-.145 2.5.318l.151-.329 9.631.007.2.329.189-.329a27 27 0 0 1 2.75 0 .55.55 0 0 1 .235.329v1.969h-20a.975.975 0 0 1-1-1.013V1.013a.975.975 0 0 1 1-1.013H21.01Z"/><path fill="#c2e9f2" d="M21.008 1.969v28.233h-3.173a2.4 2.4 0 0 1-.116-1.3l-1.105-4.327.259-.309-.366-.105-1.785-6.818.268-.27-.322-.07q-.737-2.829-1.594-5.631l.164-.351a1.83 1.83 0 0 1 .706-1.123c2.706-6.081-7.5-6.136-4.873-.031a1.53 1.53 0 0 1 .614 1.077l.268.23-1.585 5.785-.379.147c.123.033.3.112.289.191-.336 1.684-.9 3.693-1.4 5.351a3.15 3.15 0 0 1-.816 1.827l.27.265a35 35 0 0 0-1.057 4.627q.26.569-.068.842H1.962V1.98l19.041-.007Z"/><g transform="translate(4.931 4.946)"><path fill="#46a96e" d="m11.943 19.318 1.151 4.493a2.64 2.64 0 0 1-.189 1.443l-9.978-.007c-.515-.055-.575-.384-.618-.849a25.4 25.4 0 0 1 1.182-4.934l.379-.143.151-.329h7.723Z"/><path fill="#5fbd7d" d="M3.887 19.182q.266.098-.018.14l-1.178 4.353a2.05 2.05 0 0 0 .232 1.572l-2.645.011a2.24 2.24 0 0 1-.217-1.581l1.072-4.153a1.26 1.26 0 0 1 .452-.623c.1-.068 2.342-.2 2.3.281Z"/><path fill="#5fbd7d" d="m7.161 6.501.281.224-1.307 5.048 3.688.024.237.327 1.884 7.193H3.872a.093.093 0 0 0 .018-.14l-.289-.191 1.642-6.4-1.963-.1-.217-.338 1.425-5.384.272-.778a1.52 1.52 0 0 1 1.228.158 1.38 1.38 0 0 1 1.175.349Z"/><path fill="#78cc96" d="m3.887 19.182-2.1.033a.7.7 0 0 0-.649.309l1.923-7.37 2.6.112Z"/><path fill="#46a96e" d="m10.058 12.123-4.362.029 1.463-5.651a3.2 3.2 0 0 0 1.149-.43 4.2 4.2 0 0 1 .553 1.458l1.2 4.594Z"/><g transform="translate(3.305)"><path fill="#fee573" d="M5.001 6.07c.129.55-.9.936-1.149.43a3.4 3.4 0 0 1-2.4-.507 3.285 3.285 0 1 1 3.552.079Z"/><path fill="#fef29f" d="M2.595 1.376a.95.95 0 0 1 1.27.533.977.977 0 0 1-.592 1.294.974.974 0 0 1-.678-1.827"/></g></g></g></svg>