<svg xmlns="http://www.w3.org/2000/svg" xmlns:xlink="http://www.w3.org/1999/xlink" width="1327.757" height="424.916" viewBox="0 0 1327.757 424.916"><defs><linearGradient id="a" x1="0.5" x2="0.5" y2="1" gradientUnits="objectBoundingBox"><stop offset="0" stop-color="#faf3fd"/><stop offset="1" stop-color="#bc58e6"/></linearGradient><clipPath id="c"><circle cx="101.5" cy="101.5" r="101.5" fill="#61ccee"/></clipPath><clipPath id="d"><path d="M76.841,153.68a76.482,76.482,0,0,1-42.962-13.123A77.065,77.065,0,0,1,6.039,106.75a76.739,76.739,0,0,1,7.085-72.872A77.065,77.065,0,0,1,46.931,6.039,76.738,76.738,0,0,1,119.8,13.123a77.066,77.066,0,0,1,27.84,33.808,76.738,76.738,0,0,1-7.085,72.871,77.065,77.065,0,0,1-33.807,27.84A76.357,76.357,0,0,1,76.841,153.68Zm0-117.611a40.772,40.772,0,1,0,40.772,40.772A40.818,40.818,0,0,0,76.841,36.069Z" transform="translate(0 0)" fill="#bdf59c"/></clipPath></defs><g transform="translate(7556.398 13006.572)" opacity="0.3"><path d="M0,100.825H1327.757V396.573s-302.766,232.651-639.789,34.5S0,480.442,0,480.442Z" transform="translate(-6228.641 -12480.831) rotate(180)" opacity="0.1" fill="url(#a)"/><path d="M0,100.825H1327.757v226.94S1080.879,531,728.613,383.654,0,392.122,0,392.122Z" transform="translate(-6228.641 -12480.831) rotate(180)" opacity="0.2" fill="url(#a)"/><g transform="translate(-7525.52 -13006.572)" opacity="0.25" clip-path="url(#c)" style="isolation:isolate"><g transform="translate(-212.794 0.263)"><rect width="5.833" height="280.965" transform="translate(198.672 0) rotate(45)" fill="#61ccee"/><rect width="5.833" height="280.965" transform="translate(351.306 0) rotate(45)" fill="#61ccee"/><rect width="5.833" height="280.965" transform="translate(506.858 0) rotate(45)" fill="#61ccee"/><rect width="5.833" height="280.965" transform="translate(275.475 0) rotate(45)" fill="#61ccee"/><rect width="5.833" height="280.965" transform="translate(428.11 0) rotate(45)" fill="#61ccee"/><rect width="5.833" height="280.965" transform="translate(583.661 0) rotate(45)" fill="#61ccee"/><rect width="5.833" height="280.965" transform="translate(237.559 0) rotate(45)" fill="#61ccee"/><rect width="5.833" height="280.965" transform="translate(390.194 0) rotate(45)" fill="#61ccee"/><rect width="5.833" height="280.965" transform="translate(545.745 0) rotate(45)" fill="#61ccee"/><rect width="5.833" height="280.965" transform="translate(314.363 0) rotate(45)" fill="#61ccee"/><rect width="5.833" height="280.965" transform="translate(466.998 0) rotate(45)" fill="#61ccee"/><rect width="5.833" height="280.965" transform="translate(622.548 0) rotate(45)" fill="#61ccee"/><rect width="5.833" height="280.965" transform="translate(218.729 0) rotate(45)" fill="#61ccee"/><rect width="5.833" height="280.965" transform="translate(371.364 0) rotate(45)" fill="#61ccee"/><rect width="5.833" height="280.965" transform="translate(526.914 0) rotate(45)" fill="#61ccee"/><rect width="5.833" height="280.965" transform="translate(295.532 0) rotate(45)" fill="#61ccee"/><rect width="5.833" height="280.965" transform="translate(448.167 0) rotate(45)" fill="#61ccee"/><rect width="5.833" height="280.965" transform="translate(603.718 0) rotate(45)" fill="#61ccee"/><rect width="5.833" height="280.965" transform="translate(257.617 0) rotate(45)" fill="#61ccee"/><rect width="5.833" height="280.965" transform="translate(410.251 0) rotate(45)" fill="#61ccee"/><rect width="5.833" height="280.965" transform="translate(565.803 0) rotate(45)" fill="#61ccee"/><rect width="5.833" height="280.965" transform="translate(334.42 0) rotate(45)" fill="#61ccee"/><rect width="5.833" height="280.965" transform="translate(487.054 0) rotate(45)" fill="#61ccee"/><rect width="5.833" height="280.965" transform="translate(642.606 0) rotate(45)" fill="#61ccee"/></g></g><g transform="translate(-6410.725 -12966.141)" opacity="0.7" clip-path="url(#d)" style="isolation:isolate"><g transform="translate(-161.095 0.199)"><rect width="4.416" height="212.703" transform="translate(150.404 0) rotate(45)" fill="#bdf59c"/><rect width="4.416" height="212.703" transform="translate(265.955 0) rotate(45)" fill="#bdf59c"/><rect width="4.416" height="212.703" transform="translate(383.715 0) rotate(45)" fill="#bdf59c"/><rect width="4.416" height="212.703" transform="translate(208.547 0) rotate(45)" fill="#bdf59c"/><rect width="4.416" height="212.703" transform="translate(324.099 0) rotate(45)" fill="#bdf59c"/><rect width="4.416" height="212.703" transform="translate(441.858 0) rotate(45)" fill="#bdf59c"/><rect width="4.416" height="212.703" transform="translate(179.843 0) rotate(45)" fill="#bdf59c"/><rect width="4.416" height="212.703" transform="translate(295.395 0) rotate(45)" fill="#bdf59c"/><rect width="4.416" height="212.703" transform="translate(413.154 0) rotate(45)" fill="#bdf59c"/><rect width="4.416" height="212.703" transform="translate(237.987 0) rotate(45)" fill="#bdf59c"/><rect width="4.416" height="212.703" transform="translate(353.539 0) rotate(45)" fill="#bdf59c"/><rect width="4.416" height="212.703" transform="translate(471.298 0) rotate(45)" fill="#bdf59c"/><rect width="4.416" height="212.703" transform="translate(165.588 0) rotate(45)" fill="#bdf59c"/><rect width="4.416" height="212.703" transform="translate(281.14 0) rotate(45)" fill="#bdf59c"/><rect width="4.416" height="212.703" transform="translate(398.899 0) rotate(45)" fill="#bdf59c"/><rect width="4.416" height="212.703" transform="translate(223.732 0) rotate(45)" fill="#bdf59c"/><rect width="4.416" height="212.703" transform="translate(339.283 0) rotate(45)" fill="#bdf59c"/><rect width="4.416" height="212.703" transform="translate(457.043 0) rotate(45)" fill="#bdf59c"/><rect width="4.416" height="212.703" transform="translate(195.028 0) rotate(45)" fill="#bdf59c"/><rect width="4.416" height="212.703" transform="translate(310.579 0) rotate(45)" fill="#bdf59c"/><rect width="4.416" height="212.703" transform="translate(428.339 0) rotate(45)" fill="#bdf59c"/><rect width="4.416" height="212.703" transform="translate(253.171 0) rotate(45)" fill="#bdf59c"/><rect width="4.416" height="212.703" transform="translate(368.723 0) rotate(45)" fill="#bdf59c"/><rect width="4.416" height="212.703" transform="translate(486.482 0) rotate(45)" fill="#bdf59c"/></g></g></g></svg>