<svg xmlns="http://www.w3.org/2000/svg" width="90.494" height="90.39" viewBox="0 0 90.494 90.39"><g transform="translate(.001)"><path fill="#a77b69" d="M82.725 0c.137 0 .347.035.351.123a40 40 0 0 1-.064 5.884l-.356.2c-.014.153-.04.156-.075 0l-.014.236q-3.7.216-7.545.13l-.208-.354c-.014.139-.066.349-.165.354-3.255.108-7.1.167-10.337 0q-.98.184-1.219-.354c-.014.139-.066.349-.163.354-3.314.111-7.111.139-10.422 0q-1.047.187-1.333-.354l-.165.354H39.633l-.215-.354-.163.354H27.716l-.212-.354-.165.354H15.995l-.208-.342-.163.354-11.587.056-.214-.351-.186.356c-.579.092-3.02.142-3.406-.278S.044 1.047.12.167L.75 0Z"/><path fill="#956a5b" d="M89.962 0a.553.553 0 0 1 .531.531v5.3a2.3 2.3 0 0 1-1.408.533L86.8 6.357q-.096.135-.2-.144c-.038.137-.092.337-.2.354a31 31 0 0 1-3.486 0l-.257-.354L82.724 0Z"/></g><path fill="#fed084" d="m12.967 22.717.026 23.733H6.637l.05-23.762.509-.12a5.7 5.7 0 0 0 5.262.031l.512.118Zm65.855.547a13.3 13.3 0 0 0 3.462-.2 2.28 2.28 0 0 1 1.646-.351l.031 23.738h-6.356l.009-23.731c.158-.519 1.337.038 1.21.547Z"/><g transform="translate(0 45.976)"><path fill="#fee7c1" d="M6.638.469c.038-.139.1-.342.208-.354a39 39 0 0 1 5.889 0l.259.354.163-.354s3.132 0 9.4-.007l1.208.351.163-.354 7.707.021.21.354c.571-.281 3.436-.611 3.811-.259a.5.5 0 0 1 .118.234l1.134-.354q8.452 0 16.9.007l1.026.347.165-.351 7.726.024.21.354a10.3 10.3 0 0 1 3.649-.373.57.57 0 0 1 .255.351l1.208-.351h9.349l.212.354c.038-.137.092-.333.208-.354a39.6 39.6 0 0 1 5.889 0l.259.354c.017-.139.061-.347.158-.354a42.5 42.5 0 0 1 5.672 0q.616.034.7.868v5.3c-.1 1.167-2.528.948-3.45.842l-.245-.354a3.12 3.12 0 0 1-3.021-.052l-.741.351h-3.228l-.257-.354-.969.354H11.848l-.969-.354c-.017.137-.054.342-.153.354a9.8 9.8 0 0 1-4.092-.335 2.95 2.95 0 0 1-2.828.04c-.017.137-.052.342-.149.354-.606.087-3.12.156-3.481-.33a29.3 29.3 0 0 1 0-6.4 1.23 1.23 0 0 1 .8-.3l5.413.016.255.354Z"/><path fill="#f7f6f6" d="M10.875 6.709a54.936 54.936 0 0 0 68.673 0h4.226c.083.113.193.285.134.363-.333.439-1.415 1.573-1.913 1.344a5.26 5.26 0 0 1-2.271 2.29 5.45 5.45 0 0 1-2.877 1.458c.038.137.094.344.007.408a24 24 0 0 1-3.014 1.79q-.6.545-1.038.205l.012.387a40 40 0 0 1-4.007 1.939.57.57 0 0 1-.382-.208L64.01 18.4c.024.137.04.347-.052.384-.425.17-3.854 1.226-4.064 1.2a.57.57 0 0 1-.347-.267l-.125.387a38 38 0 0 1-4.29.9.58.58 0 0 1-.321-.292l-4.75.585c-.009.137-.042.344-.139.361a33 33 0 0 1-3.465.16.58.58 0 0 1-.267-.342 7.4 7.4 0 0 1-3.028.358 3.92 3.92 0 0 1-2.62-.538l-4.752-.587c-.064.127-.163.316-.271.3-.427-.047-3.774-.7-3.939-.814a.57.57 0 0 1-.179-.4 6.3 6.3 0 0 1-4.807-1.406l-4.42-1.719c-.073.118-.2.285-.3.25a38 38 0 0 1-3.811-1.823.58.58 0 0 1-.08-.429 2.42 2.42 0 0 1-1.91-.632 5.1 5.1 0 0 1-2.325-1.882 62 62 0 0 1-7.12-5.436l4.245-.019Z"/><g transform="translate(.107 37.818)"><path fill="#fed084" d="M90.386.768v5.3c-.144.153-.391.521-.733.524l-12.931.007-.236-.014a60 60 0 0 1-.118-5.981l.354-.208c.007-.533 1.3-.486 1.42-.09q4.2.081 8.368-.057.066-.234.172 0l1.946-.014a2.65 2.65 0 0 1 1.759.542Z"/><path fill="#fee7c1" d="M3.698.273 4.63.4 76.72.392v6.2H.929A.845.845 0 0 1 0 5.705L.057.816C.157.46.901.248 1.222.25l2.476.019Z"/></g></g><g transform="translate(3.819 6.205)"><path fill="#fe6c87" d="m11.962.03.354.163q.028 6.049.059 12.1l-.351.217a6.55 6.55 0 0 1-2.877 4 6.06 6.06 0 0 1-6.283-.031 5.74 5.74 0 0 1-2.807-4.95L0 .087 11.96.028Z"/><path fill="#f7f6f6" d="m70.996.024.354.163.1 12.082-.351.217a6.96 6.96 0 0 1-2.712 3.96 5.8 5.8 0 0 1-7.087-.432 6.33 6.33 0 0 1-2.189-3.667l-.351-.167.158-11.946.356-.208h11.722ZM23.684.026l.356.158q.071 5.968.139 11.941l-.351.215a6.15 6.15 0 0 1-1.981 3.5 5.74 5.74 0 0 1-7.177.644 5.34 5.34 0 0 1-2.646-3.972L11.962.031h11.721Z"/><path fill="#fe6c87" d="m35.601.026.351.165q-.042 5.961-.087 11.929l-.354.208a5.17 5.17 0 0 1-2.026 3.679 5.67 5.67 0 0 1-6.17.927c-1.684-.717-3.469-2.5-3.488-4.594L23.684.024h11.917ZM59.275.024l-.163 12.321c-.033 2.882-2.922 5.031-5.731 5.094a5.83 5.83 0 0 1-5.906-5.1c-.139-.014-.351-.061-.354-.16-.144-3.469-.233-7.479-.106-10.938-.127-.651-.014-1.054.342-1.217Z"/><path fill="#f7f6f6" d="m47.358.026.118 12.313a6.057 6.057 0 0 1-11.967-.009l.09-12.3h11.757Z"/><path fill="#fe6c87" d="M78.763.011c.139.014.351.064.354.16.163 4.177.123 8.49-.09 12.667-.455 1.833-1.969 4.262-4.023 4.217l-1.21-.547a5.32 5.32 0 0 1-2.7-4.028l-.1-12.46L78.76.008Z"/><path fill="#e74f74" d="M82.783 0q.11 5.788.13 11.613a5.82 5.82 0 0 1-2.8 4.891 5.6 5.6 0 0 1-5.108.552 6.115 6.115 0 0 0 3.842-5.785L78.762.012h.075z"/><path fill="#f595aa" d="m82.979.146-.066 11.469c-.014.021-.123-.05-.123-.182V.002c.1-.009.2.009.2.144Z"/></g><g transform="translate(54.809 64.376)"><path fill="#fec750" d="m9.198 0 2.6 10.5a.49.49 0 0 1-.1.45.5.5 0 0 1-.377.132l-4.493-.847-.382-.071-2.08-8.368c-.09-.238.035-.4.37-.474Z"/><path fill="#fedb64" d="M4.733 1.32a.65.65 0 0 0-.024.41l2.116 8.5-3.514 2.835a.448.448 0 0 1-.722-.236L-.001 2.31l4.733-1Z"/></g><g transform="translate(40.538 67.277)"><path fill="#aeeea4" d="M5.648.179q.195.456-.538.575l.012 8.389-.354.21-4.13 1.88a.418.418 0 0 1-.623-.333L-.002 0a39.6 39.6 0 0 0 5.646.179Z"/><path fill="#8be0a3" d="m9.521.002-.009 10.743a.58.58 0 0 1-.163.45.46.46 0 0 1-.469.033L4.769 9.353 4.757.37a1.74 1.74 0 0 0 .891-.191L9.518 0Z"/></g><g transform="translate(23.97 64.376)"><path fill="#fe6c87" d="m7.429 1.406.073.351-2.143 8.377-.394.116-4.295.828a.76.76 0 0 1-.542-.118.46.46 0 0 1-.111-.462l2.6-10.5a30 30 0 0 0 4.807 1.406Z"/><path fill="#e74f74" d="M11.818 2.314 9.231 12.835c-.059.238-.384.479-.606.3l-3.656-2.887 2.068-8.252c.073-.295.118-.486.392-.594l4.389.906Z"/></g><g transform="translate(3.814 52.688)"><path fill="#a77b69" d="M2.82.016 3.858.44l2.863 2.316a13.8 13.8 0 0 1 3.219 2.7l.238.309-5.014 9.554q2.087.262 4.347.318l.233.366.377-.09q1.366 1.857 2.8 3.568l5.026-9.49.41-.021c.066-.123.177-.3.276-.271a31 31 0 0 1 4.035 1.568l.111.422.3.245-2.559 10.435a39 39 0 0 0 4.292-.729l.321.3.344-.179q1.79 1.468 3.549 2.726l2.561-10.363.394-.123c.033-.134.1-.325.2-.33a30.6 30.6 0 0 1 4.337.535l.212.382.354.16.007 10.757q2.024-.824 4.033-1.781l.375.217.292-.255 4.073 1.809.031-10.7.354-.21c0-.139.017-.344.116-.37a31 31 0 0 1 4.337-.535l.3.318.382.075 2.557 10.4a37 37 0 0 0 3.465-2.667l.422.113.264-.309a38 38 0 0 0 4.375.719l-2.559-10.351.292-.292a.48.48 0 0 1 .061-.4 40 40 0 0 1 3.991-1.547l.366.238.389-.021 5.033 9.476a31.5 31.5 0 0 0 2.67-3.377l.434.009c.007-.139.04-.347.137-.361a41 41 0 0 1 4.514-.342l.377.125.354.163v10.585a5.56 5.56 0 0 1-2.547 4.729l6.627.038.208.354c-.193.21-.533.17-.882.17l-8.905-.024c-.014.141-.068.354-.17.354-23.948.12-48.794.021-72.687-.092l-.165-.38V.056C.946.044 1.899.021 2.83.016Z"/><path fill="#a77b69" d="M75.734 0a3.6 3.6 0 0 1-.75 1.04c-2.394 2.233-6.811 4.587-9.818 6.023-18.462 8.806-41.157 6.615-57.35-6.026a2.3 2.3 0 0 1-.415-.469A4.5 4.5 0 0 1 7.061 0Z"/><path fill="#956a5b" d="m82.982.055-.007 31.292h-.172l-8.4-.038a5.25 5.25 0 0 0 3.757-5.087V15.485c-.467-.054-.448-.212 0-.342l-.351-1.349.014-9.507a4.4 4.4 0 0 1 .356-2.575L79.957.007c1.007 0 2.014.047 3.021.052Z"/><path fill="#a77b69" d="m78.161 15.139-5.127-9.684a31.4 31.4 0 0 0 5.15-3.747Z"/></g><g transform="translate(8.628 58.14)"><path fill="#83caee" d="m9.358 2.514.231.311-4.252 7.71-.41.012-4.566-.245a.445.445 0 0 1-.325-.6l5.087-9.7a40 40 0 0 0 4.236 2.512Z"/><path fill="#70bce7" d="m13.543 4.516-5.139 9.681a.4.4 0 0 1-.4.186.5.5 0 0 1-.271-.163l-2.809-3.672 4.431-8.034 4.186 2Z"/></g><g transform="translate(68.422 58.077)"><path fill="#70bce7" d="M13.554 9.748v.342a1.26 1.26 0 0 1-1.007.347l-4.021.236c-.118.087-.318.151-.368.059a210 210 0 0 1-4.094-7.9l.316-.366 4.047-2.4c.13-.052.337-.106.389-.021 1.245 2.118 2.5 4.587 3.6 6.807a7.7 7.7 0 0 1 1.137 2.9Z"/><path fill="#83caee" d="m8.526 10.674-2.63 3.521a.52.52 0 0 1-.479.222.5.5 0 0 1-.337-.259L0 4.585l4.377-2.116a1.6 1.6 0 0 0 .266.844l3.88 7.361Z"/></g><g transform="translate(18.463 31.379)"><g transform="translate(31.245)"><path fill="#e7e7e7" d="M16.437 4.828c.146-.009.349.045.342.149-.179 2.616-.4 5.257-.778 7.851a2.884 2.884 0 0 1-2.774 2.257l-8.1-.024-1.262-.856a4.16 4.16 0 0 1-1.1-2.988L2.1 4.88l.163-.354 13.962-.047.215.351Z"/><path fill="#d7d7d7" d="M20.115 4.821c.007 1.08-.182 2.4-.3 3.7l-.163 1.79c-.212 2.332-.109 3.592-2.524 4.757l-3.9.021a3.62 3.62 0 0 0 2.613-3.252l.6-7c.016-.137.057-.34.158-.354a16 16 0 0 1 2.448 0c.564-.113.92 0 1.073.351Z"/><path fill="#f7f6f6" d="M16.441.022c.139.016.344.061.354.16.04.486.1 4.193 0 4.387a.57.57 0 0 1-.354.257l-14.339.047c-1.288 0-2.1-.028-2.1-.764V.743a.69.69 0 0 1 .722-.7L16.443.019Z"/><path fill="#e7e7e7" d="m20.115 4.821-3.677.007V.021c.205 0 .413-.026.693-.021l4.575.08c.483.009.722.757.722 1.17v2.344c0 .455-.233 1.163-.722 1.177l-1.6.047Z"/></g><g transform="translate(0 .027)"><g transform="translate(2.231 4.438)"><path fill="#e7e7e7" d="m14.28.376.342.149-.585 6.917c-.356 1.729-.91 3.04-2.891 3.179l-8.08-.021C.651 9.442.755 8.164.545 5.845L.382 4.053.198 2.128A8 8 0 0 1 .019.362L.182.008l13.887.016.212.354Z"/><path fill="#d7d7d7" d="m18.058.473-.62 6.106c-.108 1.167-.059 2.472-1.106 3.16l-1.255.854-3.929.024a3.65 3.65 0 0 0 2.54-3.215l.594-7.028c.021-.137.066-.337.165-.349a17 17 0 0 1 2.46.064q.909-.156 1.151.382Z"/></g><path fill="#f7f6f6" d="M16.573.005c.137.019.344.066.351.165a40 40 0 0 1-.054 4.389.58.58 0 0 1-.356.255L2.255 4.797l-1.533-.05C.231 4.731 0 4.023 0 3.57V1.215C0 .868.233.04.729.04L16.575.005Z"/><path fill="#e7e7e7" d="m20.289 4.91-3.778-.1.061-4.809h4.979c.462 0 .873.229.875.724l.012 3.189a.88.88 0 0 1-.267.717c-.458.349-1.2-.024-1.882.283Z"/></g></g></svg>