<svg xmlns="http://www.w3.org/2000/svg" width="81.836" height="81.818" viewBox="0 0 81.836 81.818"><defs><clipPath id="a"><path fill="none" d="M0 0h81.836v81.818H0z"/></clipPath></defs><g clip-path="url(#a)"><path fill="#59e68a" d="M60.471 0a1.28 1.28 0 0 1 1.119.657q.22 15.892.124 31.844l-.341.21-.157.341-7.822.006-.2-.341-.341-.157v-7.821l.341-.2-.341-.157v-7.821l.341-.2-.227-.013q-.2-3.571-.113-7.279l.341-.2.018-8.014a1.33 1.33 0 0 1 .844-.838Z"/><path fill="#41e27a" d="M65.464 13.625c.133.015.334.058.341.152a32 32 0 0 1 0 4.3q.157.782-.341.983c.13.017.307.043.341.145a20 20 0 0 1 0 2.354l-.341.234.341.156v10.568l-.341.2c-.036.132-.086.314-.2.341a32 32 0 0 1-3.644-.006l-.248-.341-.006-31.5c0-.632-.526-.947-.9-1.213l4.123.023a1.33 1.33 0 0 1 .852.833Z"/><path fill="#e6eaee" d="m61.373 32.712.341.158v7.834l-.341.2c-.015.134-.063.336-.158.341-2.232.1-4.946.1-7.176-.006q-.708.149-.851-.342v-8.182Z"/><path fill="#dae0e6" d="M65.464 32.718V40.9c-.016.132-.055.33-.149.341a20 20 0 0 1-2.912.005q-.818.166-1.032-.339v-8.2Z"/><path fill="#41e27a" d="M65.467 40.9v5.459l-.9.009c-.015.134-.063.338-.157.341-3.177.1-7.016.177-10.167-.011q-.866.168-1.056-.342l.02-3.632q.38-.2.762.383l.339.159 5.952-.007q1.077-.481.777-2.127l.341-.225Z"/><path fill="#59e68a" d="M61.372 40.907v1.367a1.34 1.34 0 0 1-1.361 1.352l-5.622-.014c-.576 0-.927-.5-1.189-.888l-.013-1.824Z"/><path fill="#fb6067" d="M23.65 0c.625.129 1.1.261 1.211.974l.03 6.99-.341.2-8.18.009.006-7c0-.388.425-1.143.856-1.145Z"/><path fill="#fa4f56" d="M28.641 4.938v3.223c-.016.132-.055.33-.149.341a20 20 0 0 1-2.911 0q-.817.165-1.031-.34l-.011-6.977c0-.578-.5-.934-.89-1.188l4.131.026a1.24 1.24 0 0 1 .827.824Z"/><path fill="#fb6067" d="m24.551 16.355.341.12v25.777c-.177 1.087-.419 1.384-1.491 1.7-.334.1-5.187.1-5.676.016-.885-.144-1.219-.255-1.347-1.248l-.341-.119q0-10.3-.009-20.6l.341-.209V19.06l.006-2.709Z"/><path fill="#dae0e6" d="M28.643 8.161v8.192c-.016.132-.056.331-.149.341-.374.039-3.532.076-3.7 0a.56.56 0 0 1-.241-.341V8.161Z"/><path fill="#fa4f56" d="M28.643 16.353v16.365l.341.158v7.821l-.341.2c.537.1.526 1.672.014 1.822a7.4 7.4 0 0 1 .331 3.391l-.342.242-.16.341H16.578l-.206-.341c-.133-.016-.332-.058-.341-.152a23 23 0 0 1 .008-3.246l.341-.243a1.51 1.51 0 0 0 1.355.907h5.459a1.334 1.334 0 0 0 1.359-1.377V16.355Z"/><path fill="#68b0fb" d="M35.923 4.091a1.29 1.29 0 0 1 1.117.657q.224 13.85.126 27.759l-.341.209c-.015.134-.062.337-.157.341-2.231.1-4.945.106-7.174 0q-.707.15-.851-.341l-.339-.115V16.558l.341-.2-.341-.158V8.369l.341-.2c-.132-.016-.328-.054-.341-.149-.035-.252-.059-2.706 0-2.835a.56.56 0 0 1 .341-.239c.242-.288.544-.835 1.048-.836Z"/><path fill="#4fa3fa" d="M40.913 8.852a.5.5 0 0 1 .227.013c.348.117.158 6.46.117 7.288l-.341.2c.134.015.337.062.341.157.1 2.231.106 4.945 0 7.174q.15.707-.341.851l.341.157v7.821l-.341.2c-.016.132-.055.329-.15.341a20 20 0 0 1-2.729 0q-.939.179-1.212-.342L36.82 5.301c0-.625-.53-.94-.9-1.21l4.135.023a1.25 1.25 0 0 1 .829.83Z"/><path fill="#e6eaee" d="M36.826 32.716c.134.015.336.062.341.158.1 2.084.079 4.573 0 6.667q.183 1.052-.342 1.361l-.157.341h-7.821l-.2-.341V32.72Z"/><path fill="#dae0e6" d="M40.917 32.718V40.9c-.016.132-.056.332-.149.341-.374.039-3.532.076-3.7 0a.56.56 0 0 1-.241-.341v-8.185Z"/><path fill="#4fa3fa" d="m40.915 40.9.014 1.824v3.631H28.644l.011-3.633a2.4 2.4 0 0 1 1.1.538h5.954q1.077-.481.776-2.13l.341-.226Z"/><path fill="#68b0fb" d="M36.823 40.902v1.372a1.34 1.34 0 0 1-1.36 1.349l-5.619-.016c-.577 0-.93-.5-1.191-.885l-.014-1.822Z"/><path fill="#fbb760" d="M48.194 8.184a1.14 1.14 0 0 1 1.111.716 71 71 0 0 1 .137 7.243l-.341.2-.157.341-7.823.01-.2-.341v-7.5c.253-.054.508-.486.73-.655Z"/><path fill="#faaf4f" d="M53.192 8.861v7.492c-.037.132-.092.325-.2.34a29 29 0 0 1-3.644-.009l-.248-.342.008-6.641a1.61 1.61 0 0 0-.915-1.517l4.267.036c.245.1.5.579.732.641m-.001 15.675v8.179l.341.158v7.821l-.341.2c.537.1.525 1.673.013 1.824a6.5 6.5 0 0 1 .207 3.521.5.5 0 0 1-.228.111l-.159.341h-11.89l-.206-.341c-.132-.017-.325-.054-.341-.151a30 30 0 0 1 0-3.237l.341-.243a2.5 2.5 0 0 1 1.1.538 55 55 0 0 0 5.69.014c.76-.111.923-.291 1.041-1.034V24.756l.341-.208c.016-.131.05-.322.148-.341a29 29 0 0 1 3.7-.011Z"/><path fill="#dae0e6" d="M53.191 16.353v8.182l-4.094.012-.341-.158v-7.842l.341-.2Z"/><path fill="#fbb760" d="M49.097 24.547v17.7a1.317 1.317 0 0 1-1.375 1.366l-5.6-.009c-.578 0-.938-.5-1.19-.885-.537-.1-.527-1.673-.014-1.824l-.343-.152v-7.821l.341-.2v-8.186l.158-.341 7.819.011Z"/><path fill="#e6eaee" d="M49.097 16.343v8.2l-8.18-.012v-8.178Z"/><path fill="#faaf4f" d="m65.465 46.356 4.1-.01a1.324 1.324 0 0 1 1.364 1.366l-.006 5.455c0 .926-.646 1.374-1.571 1.374l-57.354-.014c-.582 0-.835-.6-1.079-.876l-.005-2.743q.417-.1.894.441l.683.12 51.72-.011c1.466-.289.946-3.232.716-4.351a.73.73 0 0 1-.363-.742.462.462 0 0 1 .9-.009"/><path fill="#fbb760" d="M16.369 46.357h12.274l.159-.341H40.72l.207.341H53.18l11.38.012a1.58 1.58 0 0 1 .91 1.518l-.013 2.567a1.326 1.326 0 0 1-1.394 1.355H12.482a1.6 1.6 0 0 1-1.571-.9l.01-3.662c.15-.754.236-.964.982-1.2a37 37 0 0 1 4.222-.031Z"/><path fill="#dae0e6" d="M53.707 79.002c-.034.134-.093.337-.2.343-.8.051-6.523.225-6.764-.013a22.5 22.5 0 0 1-2.724-5.371l-12.13-.021-.2-.341.854-2.676-29.1-.07a3.735 3.735 0 0 1-3.41-3.472L0 64.94a4.32 4.32 0 0 0 3.954 3.218l68.3.008a4.18 4.18 0 0 0 4.129-4.408l-.078-4.537-.325-.195q.094-18.019.049-36.1l.341-.21a5.4 5.4 0 0 1-.37-2.687l.338-.245-.329-.59c.323-2.27-.449-4.342-2.716-5.151l-.156-.413 5.4.01a4.18 4.18 0 0 1 3.3 3.3l-.048 50.523a3.764 3.764 0 0 1-3.383 3.382l-29.1.067a19.26 19.26 0 0 0 4.406 8.09"/><path fill="#e6eaee" d="m53.707 79.002.669.095 3.388.053c.642.01.985.843.9 1.382-.071.446-.357 1.287-1.049 1.287l-33.533-.011c-.674 0-1.061-.965-1.031-1.415.034-.515.414-1.264 1-1.268l3.91-.026a21.2 21.2 0 0 0 3.732-5.5l12.6.026a25.2 25.2 0 0 0 2.641 5.457Zm19.429-65.371a4.45 4.45 0 0 1 3.127 3.164 13.3 13.3 0 0 1 .074 2.99.78.78 0 0 1-.829-.258q-4.887-.237-9.839-.128l-.2-.341v-5.432Z"/><path fill="#68b0fb" d="M76.37 22.715v35.719l-.067.784a1.68 1.68 0 0 1-1.507.766H11.772a1.19 1.19 0 0 1-1.136-.848l-.06-5.232.339-.249.361-.091a1.03 1.03 0 0 0 .742.629l57.591-.004c.561-.093.852-.256.964-.858a41.5 41.5 0 0 0 .014-5.608c-.093-.611-.206-.836-.829-1.018l-4.049-.006-.242-.34c-.133-.016-.334-.059-.341-.153a34 34 0 0 1 0-4.127q-.17-.912.341-1.179l-.341-.158v-7.82l.341-.2V21.789c.014-.134.063-.338.158-.341 3.311-.114 6.742-.049 10.026.143a1.155 1.155 0 0 1 .722 1.122"/><path fill="#4fa3fa" d="M16.37 19.058c.131.017.321.049.341.146a9 9 0 0 1 0 1.545q.164.83-.342 1.041l-.148.342-4.2.036a.95.95 0 0 0-.721.688l-.036 23.587-.341.8c.132.017.33.057.341.153a31 31 0 0 1-.009 3.265.56.56 0 0 1-.342.244 4.7 4.7 0 0 1 .346 2.508l-.341.236.039 5.284c0 .49.56.76.819 1.044l-4.966.009a1.3 1.3 0 0 1-1.344-1.226V20.302a1.3 1.3 0 0 1 1.356-1.241Zm59.967.726.033 2.931a1.61 1.61 0 0 0-1.531-.927h-9.376v-2.73h9.376a1.76 1.76 0 0 1 1.5.73"/><path fill="#68b0fb" d="m16.369 21.792.014 20.924-.008 3.641-4.258.013c-.572 0-.925.491-1.191.878l-.011-24.057a1.326 1.326 0 0 1 1.361-1.39Z"/><path fill="#e6eaee" d="m24.551 8.165.341.158v7.829l-.341.2-.157.341h-7.575a8.6 8.6 0 0 0-.107 2.128l-.341.24-.158.341-9.5.01a.95.95 0 0 0-.9.785v38.679a.94.94 0 0 0 .79.756l4.377.013.8.339.163-.341q31.789.086 63.477-.1.508-.483.891-.323c.134.033.335.088.344.189.19 2.056.35 5.749-.906 7.385a4.33 4.33 0 0 1-3.168 1.7H3.79C1.722 68.221.165 67.132 0 64.938l.046-47.871A3.715 3.715 0 0 1 3.4 13.704l12.969-.09V8.173l.157-.341 7.819-.008Z"/><path fill="#dae0e6" d="m43.569 65.442-5.213.007a1.405 1.405 0 0 1-1.527-1.29 1.353 1.353 0 0 1 1.357-1.445l5.294-.014a1.393 1.393 0 0 1 1.518 1.3 1.36 1.36 0 0 1-1.428 1.444"/></g></svg>