<svg xmlns="http://www.w3.org/2000/svg" width="1327.757" height="424.916" viewBox="0 0 1327.757 424.916"><defs><clipPath id="b"><circle cx="101.5" cy="101.5" r="101.5" fill="#61ccee"/></clipPath><clipPath id="c"><path fill="#bdf59c" d="M76.841 153.68a76.5 76.5 0 0 1-42.962-13.123 77.07 77.07 0 0 1-27.84-33.807 76.74 76.74 0 0 1 7.085-72.872A77.07 77.07 0 0 1 46.931 6.039a76.74 76.74 0 0 1 72.869 7.084 77.07 77.07 0 0 1 27.84 33.808 76.74 76.74 0 0 1-7.085 72.871 77.07 77.07 0 0 1-33.807 27.84 76.4 76.4 0 0 1-29.907 6.038m0-117.611a40.772 40.772 0 1 0 40.772 40.772 40.82 40.82 0 0 0-40.772-40.772"/></clipPath><linearGradient id="a" x1=".5" x2=".5" y2="1" gradientUnits="objectBoundingBox"><stop offset="0" stop-color="#faf3fd"/><stop offset="1" stop-color="#bc58e6"/></linearGradient></defs><g opacity=".3" transform="translate(7556.398 13006.572)"><path fill="url(#a)" d="M0 100.825h1327.757v295.748s-302.766 232.651-639.789 34.5S0 480.442 0 480.442Z" opacity=".1" transform="matrix(-1 0 0 -1 -6228.641 -12480.831)"/><path fill="url(#a)" d="M0 100.825h1327.757v226.94S1080.879 531 728.613 383.654 0 392.122 0 392.122Z" opacity=".2" transform="matrix(-1 0 0 -1 -6228.641 -12480.831)"/><g clip-path="url(#b)" style="isolation:isolate" transform="translate(-7525.52 -13006.572)"><path fill="#61ccee" d="m-14.122.263 4.125 4.125L-208.67 203.06l-4.124-4.125zm152.634 0 4.125 4.125L-56.036 203.06l-4.124-4.125zm155.552 0 4.125 4.125L99.516 203.06l-4.124-4.125zm-231.383 0 4.125 4.125-198.673 198.672-4.124-4.125zm152.635 0 4.125 4.125L20.768 203.06l-4.124-4.125zm155.551 0 4.125 4.125L176.319 203.06l-4.124-4.125zm-346.102 0 4.125 4.125-198.674 198.672-4.124-4.125zm152.635 0 4.125 4.125L-17.148 203.06l-4.124-4.125zm155.551 0 4.125 4.125L138.403 203.06l-4.124-4.125zm-231.382 0 4.125 4.125L-92.979 203.06l-4.124-4.125zm152.635 0 4.125 4.125L59.656 203.06l-4.124-4.125zm155.55 0 4.125 4.125L215.206 203.06l-4.124-4.125zM5.935.263l4.125 4.125-198.674 198.672-4.124-4.125zm152.635 0 4.125 4.125L-35.978 203.06l-4.124-4.125zm155.55 0 4.125 4.125L119.572 203.06l-4.124-4.125zm-231.382 0 4.125 4.125L-111.81 203.06l-4.124-4.125zm152.635 0 4.125 4.125L40.825 203.06l-4.124-4.125zm155.551 0 4.125 4.125L196.376 203.06l-4.124-4.125zm-346.101 0 4.125 4.125-198.673 198.672-4.124-4.125zm152.634 0 4.125 4.125L2.909 203.06l-4.124-4.125zm155.552 0 4.125 4.125L158.461 203.06l-4.124-4.125zm-231.383 0 4.125 4.125L-72.922 203.06l-4.124-4.125zm152.634 0 4.125 4.125L79.712 203.06l-4.124-4.125zm155.552 0 4.125 4.125L235.264 203.06l-4.124-4.125z"/></g><g clip-path="url(#c)" style="isolation:isolate" transform="translate(-6410.725 -12966.141)"><path fill="#bdf59c" d="m-10.691.199 3.123 3.123-150.404 150.403-3.123-3.122zm115.551 0 3.123 3.123-150.404 150.403-3.123-3.122zm117.76 0 3.123 3.123L75.339 153.725l-3.123-3.122zm-175.168 0 3.123 3.123-150.404 150.403-3.123-3.122zm115.552 0 3.123 3.123L15.723 153.725l-3.123-3.122zm117.759 0 3.123 3.123-150.404 150.403-3.123-3.122zm-262.015 0 3.123 3.123-150.404 150.403-3.123-3.122zm115.552 0 3.123 3.123-150.404 150.403-3.123-3.122zm117.759 0 3.123 3.123-150.404 150.403-3.123-3.122zm-175.167 0 3.123 3.123-150.404 150.403-3.123-3.122zm115.552 0 3.123 3.123L45.163 153.725l-3.123-3.122zm117.759 0 3.123 3.123-150.404 150.403-3.123-3.122zm-305.71 0 3.123 3.123-150.404 150.403-3.123-3.122zm115.552 0 3.123 3.123-150.404 150.403-3.123-3.122zm117.759 0 3.123 3.123L90.523 153.725l-3.123-3.122zm-175.167 0 3.123 3.123-150.405 150.403-3.123-3.122zm115.551 0 3.123 3.123L30.907 153.725l-3.123-3.122zm117.76 0 3.123 3.123-150.404 150.403-3.123-3.122zm-262.015 0 3.123 3.123-150.404 150.403-3.123-3.122zm115.551 0 3.123 3.123L2.203 153.725l-3.123-3.122zm117.76 0 3.123 3.123-150.404 150.403-3.123-3.122zm-175.168 0 3.123 3.123-150.404 150.403-3.123-3.122zm115.552 0 3.123 3.123L60.347 153.725l-3.123-3.122zm117.759 0 3.123 3.123-150.405 150.403-3.123-3.122z"/></g></g></svg>