<svg xmlns="http://www.w3.org/2000/svg" width="94.018" height="91.614" viewBox="0 0 94.018 91.614"><defs><clipPath id="a"><path fill="none" d="M0 0h94.018v91.614H0z"/></clipPath></defs><g clip-path="url(#a)"><path fill="#fe71a6" d="m37.618 0 .367.169.018 9.694-.367.221q.01.335-.171.367c.465 1.4-.606 3.214-1.456 4.349a9.765 9.765 0 0 1-11.566 3.15c-3.044-1.259-6.022-4.542-5.652-7.988a8 8 0 0 0 .047-1.212L18.787 0Zm37.604 0 .367.167.019 9.577-.367.218c.323 4.122-3.573 7.728-7.417 8.525a9.79 9.79 0 0 1-10.842-5.374 3.66 3.66 0 0 1-.454-2.834c-.246-.027-.123-.212.032-.378q-.587-.18-.508-1.273L56.03.22l.367-.22Z"/><path fill="#fe9ac9" d="m56.396 0 .019 8.61.142 1.3a2.2 2.2 0 0 0-.355.924c.508 1.207-.723 3.12-1.519 4.138a9.774 9.774 0 0 1-15.4-.049c-.778-1-1.994-2.908-1.468-4.089a.76.76 0 0 1-.182-.746L37.615 0Zm33.736 16.551-.2.581c-1.675 1.234-6 2.2-7.845 1.245a.93.93 0 0 1-.37-.492c-1.031.4-2.549-.762-3.384-1.463-1.837-1.542-3.412-4-3.092-6.455L75.222.004l16.191.052a3.02 3.02 0 0 1 2.519 2.509l.021 7.5c0 1.883-1.072 3.537-2.114 4.978a6.6 6.6 0 0 1-1.7 1.5"/><path fill="#5cb8e6" d="m37.818 10.83-.352-.378c.022-.142 0-.291.17-.367a6 6 0 0 1 .182.746"/><path fill="#7fa8d9" d="M56.529 10.284a2 2 0 0 0-.323.546.713.713 0 0 1 .355-.924Z"/><path fill="#fe9ac9" d="m18.787.004.368.166q.042 4.735.038 9.467l-.4.324c.288 2.428-1.251 4.863-3.044 6.4-.85.729-2.386 1.917-3.452 1.523a.93.93 0 0 1-.372.492c-1.852.957-6.167-.025-7.851-1.247l-.2-.579a.76.76 0 0 1-.8-.152A7.85 7.85 0 0 1 0 10.641V2.379C.492 1.487 1.315.054 2.611.05Z"/><path fill="#f1bd63" d="m3.859 80.068.166-.367q42.756-.026 85.9-.021l.23.367-.175.367-81.444.243a3.38 3.38 0 0 0-2.466 2.989 37.3 37.3 0 0 0 .12 6.557 1.97 1.97 0 0 0 .961.989l.045.423-5.712-.037c-.687 0-1.1-.867-1.484-1.248v-7.344a4.13 4.13 0 0 1 3.859-2.918"/><path fill="#f6e377" d="M7.195 91.614a2.31 2.31 0 0 1-1.523-2.19l.005-5.4c0-1.6 1.245-3.759 3.173-3.761l81.3-.221a4.04 4.04 0 0 1 3.863 3.335l-.011 6.768c-.261.482-.756 1.457-1.526 1.457Z"/><path fill="#2eccf8" d="M37.466 10.45q.145-.217.352.378a9.383 9.383 0 0 0 18.387 0c.015-.257.045-.613.323-.546a9.367 9.367 0 0 0 9.469 8.048 9.56 9.56 0 0 0 9.244-8.365 9.51 9.51 0 0 0 6.476 7.918l-.045 4.879a1.7 1.7 0 0 1-.353.17c-1.064.335-5.4-2.02-6.115-3.148-4.939 4.868-13.863 4.876-18.795-.006a13.926 13.926 0 0 1-18.811 0c-4.934 4.879-13.858 4.875-18.8 0-.71 1.137-5.045 3.491-6.114 3.151a1.7 1.7 0 0 1-.353-.17.5.5 0 0 1-.369-.206c-.1-.2-.077-3.932-.039-4.4l.365-.266a9.6 9.6 0 0 0 6.5-7.926 9.524 9.524 0 0 0 9.2 8.37 9.38 9.38 0 0 0 9.481-7.88"/><path fill="#a3e5fe" d="m81.669 22.763-.033 15.816-7.2-.028-.384-.869a27.7 27.7 0 0 0-1.746-8.7c-1.176-3.338-4.565-3.719-7.606-3.5l-.253-.368a19.4 19.4 0 0 1-5.125.389 4.9 4.9 0 0 0-3.462 1.689c-2.132 2.408-2.565 7.419-2.823 10.561l-.382.795h-8.741l-.367-.168-.024-11.055a3.18 3.18 0 0 0-2.921-2.869l-11.482-.021-.218-.367a15.2 15.2 0 0 1-4.808.328c-1.894.184-3.069 1.08-3.306 3.022l-.019 10.913-.368.22-8.033.025-.026-15.813a14.1 14.1 0 0 0 6.466-3.289 14.077 14.077 0 0 0 18.8 0 14.1 14.1 0 0 0 18.812 0 14.076 14.076 0 0 0 18.794.006 14.3 14.3 0 0 0 6.455 3.283"/><path fill="#f6e377" d="M43.91 38.55h-17.8l-.367-.171.089-11.611a3.18 3.18 0 0 1 3.074-2.7l11.304.004a3.59 3.59 0 0 1 3.7 3.65Z"/><path fill="#f1bd63" d="M28.902 24.067a3.69 3.69 0 0 0-2.762 3.3l-.033 11.179h-5.71l.021-11.009a3.62 3.62 0 0 1 3.8-3.515Z"/><path fill="#2eccf8" d="M74.437 38.552H58.35a2.5 2.5 0 0 1-.245-.432c-.735-1.79 1.227-9.191 2.574-10.969a4.56 4.56 0 0 1 3.77-2.031h2.756a5.79 5.79 0 0 1 5.515 3.9 27.6 27.6 0 0 1 1.722 9.53"/><path fill="#00b3fa" d="M64.448 25.12a6.24 6.24 0 0 0-4.494 4.184 28.1 28.1 0 0 0-1.6 9.25h-5.698a26.7 26.7 0 0 1 1.884-9.911 5.46 5.46 0 0 1 4.936-3.505Z"/><path fill="#db6742" d="M90.151 21.99a14.7 14.7 0 0 1-8.479.774l-.365-.213.041-4.407.37-.259a9.47 9.47 0 0 0 8.415-1.333Zm-77.856-4.101.043 4.874a14.74 14.74 0 0 1-8.479-.774l.009-5.435a9.55 9.55 0 0 0 8.427 1.335"/><path fill="#e6876e" d="m12.338 22.763.367.126.025 15.2q3.621.2 7.4.1l.271.367c.016-.144.063-.359.164-.367.591-.045 5.033-.095 5.28 0 .139.053.208.223.266.367l.127-.367h17.454l.223.367.168-.373h8.357l.218.367c.016-.144.063-.359.164-.367.589-.045 5.018-.094 5.264 0 .139.053.208.223.265.367l.127-.367h15.738l.222.367.126-.367q3.428.106 6.711-.095l.031-15.105.367-.222.672-.246a14.4 14.4 0 0 0 7.1-.658l.7.13v58.056l-81.291.01-5.006.011V21.989l.683-.139a14.4 14.4 0 0 0 7.145.664Z"/><path fill="#a3e5fe" d="m74.328 71.674-.367-.172.115-10.916c-.271-2.972-1.685-4.654-4.706-5.021l-15.709-.078c-.055-.152-.11-.27-.171-.273a41 41 0 0 0-4.882.06l-.258.375c-2.426.3-3.754 2.1-4.048 4.429l-.118 11.377-.369.217-6.28-.015-.367-.172.071-14.737c-.33-3.585-3.305-3.154-5.966-2.349a.45.45 0 0 0-.444-.276 1.02 1.02 0 0 1-.708.557c-5.569 1.017-8.662 3.983-9.334 9.708l-.093 7.05-.37.213-7.97-.021.021-24.816 69.274-.008v24.833Z"/><path fill="#db6742" d="M81.652 46.627h-69.29l.007-7.9h69.247Z"/><path fill="#36d299" d="m37.535 71.657-11.5.015c-.143 0-.362-.041-.365-.13a54.3 54.3 0 0 1 .57-10.444c.7-2.524 2.419-5.64 4.762-6.861l-.166-.115 2.512-.568a3.51 3.51 0 0 1 2.972.516 3.28 3.28 0 0 1 1.287 2.677Z"/><path fill="#00b561" d="M30.829 54.122c.384-.206.515.317.094.273a13.78 13.78 0 0 0-4.795 10.034l-.1 7.247-5.705-.022.092-7.038a10.25 10.25 0 0 1 7.015-9.633Z"/><path fill="#809be3" d="m74.328 71.674-24.775.015-.366-.169.1-11.867a5.56 5.56 0 0 1 2.627-3.978l-3.05-.032-.261-.369a.4.4 0 0 1 .4-.2l5.338.053 14.873.067a5.294 5.294 0 0 1 5.232 5.388Z"/><path fill="#6382d3" d="m48.607 55.274 5.042.037a5.316 5.316 0 0 0-4.042 5.089l-.053 11.289-5.74-.017.118-11.46a4.99 4.99 0 0 1 4.675-4.938"/></g></svg>