<svg xmlns="http://www.w3.org/2000/svg" width="94.584" height="91.614" viewBox="0 0 94.584 91.614"><g transform="translate(0 83.758)"><path fill="#6d555c" d="m4.447 4.91.21-.37h2.482l.264.37c.076-.565 1.357-.535 1.478 0l.21-.37a18 18 0 0 1 2.482 0 .6.6 0 0 1 .262.37l.123-.37h7.047l.217.37.21-.37a18 18 0 0 1 2.482 0 .6.6 0 0 1 .262.37c0-.143.035-.365.123-.37a54 54 0 0 1 6.635 0c.35-.044.523 0 .629.37q.355-.6 1.614-.373 1.03-.2 1.342.368l.175-.37H89.92l.229.37 3.3.03c.55 0 .859.568 1.133.893v1.108c-.284.271-.543.92-1.177.92H1.186c-.851 0-1.207-1-1.187-1.542a1.33 1.33 0 0 1 1.15-1.365l3.294-.037Z"/><path fill="#a36b4f" d="m54.507.387.822-.37h7.055a3 3 0 0 1 1.355.37q.1-.522.94-.284h8.1q.733-.218.935.274l.827-.36 8.007.084.217.373.21-.37a17 17 0 0 1 2.482 0 .62.62 0 0 1 .264.37h4.434v4.437H32.528c-.143-.015-.36-.059-.37-.16a35 35 0 0 1 0-4.012.6.6 0 0 1 .37-.262h2.956q.355-.6 1.614-.37 1.03-.2 1.342.368c.017-.143.054-.35.158-.37a10.4 10.4 0 0 1 1.843 0q.777-.16.957.368l.336-.365a9.7 9.7 0 0 1 2.811.244l.2-.343Q49.49.25 54.26.048l.257.348Z"/></g><g transform="translate(1.469 7.316)"><g transform="translate(0 8.496)"><path fill="#ef4f6b" d="m91.661 3.393-.012 7.386a8.65 8.65 0 0 1-3 3.6c-.242 1.034-1.977 1.251-2.946 1.207-2.475-.111-4.269-1.964-5.483-3.975-2.966 5.184-8.481 5.318-11.435.032a10 10 0 0 1-3.218 3.21l-.519-.16V3.478l.126-.37 26.268-.086.227.368Z"/><path fill="#fe778a" d="M2.949.427c.02-.143.057-.35.16-.368a22 22 0 0 1 2.574.015.62.62 0 0 1 .254.37l.126-.37L26.396 0l.227.368V3.4l-.126.37H4.486c-.688.114-.962.252-1.125.972l-.017 9.36-.37.22A8.5 8.5 0 0 1 0 10.769l.084-7.923C.099 1.42 1.747.42 2.946.42Zm85.744 0a3.007 3.007 0 0 1 2.968 2.969l-26.62.086V.444L88.69.427Z"/><path fill="#ef4f6b" d="m26.623 3.4-.007 11.21a7.72 7.72 0 0 1-3.684-3.778 10.5 10.5 0 0 1-2.6 3.257 4.83 4.83 0 0 1-6.342-.1 9.9 9.9 0 0 1-2.5-3.154c-1.3 2.344-3.094 4.271-5.54 4.373a4.76 4.76 0 0 1-2.974-.884l.012-9.446a1.446 1.446 0 0 1 1.488-1.476h22.149Z"/></g><g transform="translate(2.949)"><path fill="#fdecb1" d="m85.734 3.031.01 5.893-.128.37-23.3.017-.227-.37.007-5.821.126-.37 23.279-.086.227.368Z"/><path fill="#fef9d1" d="m23.677 0-.01 2.971-.128.37-20.178.079v5.251l-.368.269-2.988-.017L.037.074Zm62.057 3.03-23.632.094-.01-2.971 23.63-.074Z"/><path fill="#fdecb1" d="m23.666 2.971.007 5.9-20.685.069V3.028Z"/></g></g><g transform="translate(4.445 26.423)"><path fill="#c8bfc2" d="m23.625 7.185.247.062q.22 1.274 1.118 1.411 17.981.074 35.921-.049l.661-.57q.07-.62.511-.735l.316-.481a12.2 12.2 0 0 0 3.366-2.031 8.1 8.1 0 0 0 11.447.007c2.295 1.868 5.014 3.008 7.963 2.036l.533.2v50.766c-.015.143-.059.36-.16.37a30 30 0 0 1-4.01 0l-.262-.37-.37-.131V13.518c-.133-.844-.313-1.019-1.15-1.147h-47.2c-.777.121-1 .264-1.147 1.064V57.58l-.37.229-.21.37a21 21 0 0 1-2.482 0 .6.6 0 0 1-.262-.37l-.37-.131V13.434c-.136-.792-.382-.925-1.128-1.061H5.861c-.79.155-.933.382-1.051 1.145v44.059l-.37.229c-.072.565-1.355.545-1.478 0l-.37-.178V7.805l.37-.229a3.34 3.34 0 0 1 1.907-.7 11.9 11.9 0 0 0 3.635-2.085 8.12 8.12 0 0 0 11.435 0 11.1 11.1 0 0 0 3.405 1.954l.281.437Z"/><path fill="#d7d1d3" d="M2.964 7.581v50.23l-.215.37H.267l-.262-.37V7.043a1.9 1.9 0 0 1 1.629.059 1.54 1.54 0 0 1 1.33.479"/><path fill="#b9aeb2" d="m85.667 3.773.039 3.267a7.92 7.92 0 0 1-8.489-1.94 7.887 7.887 0 0 1-11.452-.007 7.84 7.84 0 0 1-3.682 2.211l-.012-3.22A8.3 8.3 0 0 0 65.76.22a10.6 10.6 0 0 0 2.5 3.173 4.85 4.85 0 0 0 6.248.16A10.2 10.2 0 0 0 77.215.214a10.5 10.5 0 0 0 2.5 3.181 4.864 4.864 0 0 0 5.954.378Z"/><path fill="#b07f68" d="M2.958 57.814c.143.039.353.1.37.215a31 31 0 0 1 0 3.943l-.37.269H.002v-4.432Z"/><path fill="#c8bfc2" d="M2.964 4.602c.141.02.348.054.37.158a9.6 9.6 0 0 1 0 1.685q.178.9-.37 1.135a8.3 8.3 0 0 1-2.956-.538L0 3.711a2 2 0 0 1 1.594.363 1.96 1.96 0 0 1 1.372.526Z"/><path fill="#b9aeb2" d="m23.64 4-.015 3.188a7.03 7.03 0 0 1-3.677-2.09 7.917 7.917 0 0 1-11.445 0 8.25 8.25 0 0 1-5.54 2.485V4.602l.321-.395C5.443 3.931 6.948 2.169 7.99.39c.484-.469.632-.58 1.064.044 2.808 5.251 7.847 4.886 10.559-.252.4-.331.543-.185.871.215a7.4 7.4 0 0 0 2.976 3.119l.183.481Z"/><g transform="translate(31.032 12.005)"><path fill="#f7d170" d="M50.24 45.801h-2.956l-.37-.128V6.127l.368-.227-.37-.207-.015-2.361q-21.712-.018-43.432-.007l-.138.138V45.57l-.373.229H0v-44.3A1.44 1.44 0 0 1 1.51-.009h47.22a1.44 1.44 0 0 1 1.51 1.508v44.3Z"/><path fill="#fdecb1" d="M47.286 5.9v39.906l-9.049-.1-.03-.252q1.947-2.795-3.25-2.243l-.254-.37c-.143-.039-.353-.1-.368-.217a33 33 0 0 1 .022-3.946l.37-.267.126-.37h7.534l-5.029-17.362 1.965-4.933a3.94 3.94 0 0 0-2.924-4.908l-.2-.412c-.565-.079-.535-1.362 0-1.485q-.537-.081-.4-1.187h-5.11l-.015 2.292-.368.262-.192.424a4.11 4.11 0 0 0-2.887 5.1q1.029 2.454 1.927 4.943l-5.022 17.276h2.246l.254.37.267-.37q2.3 0 4.6-.01l.269.368.37.212.022 3.946-.368.271-.158.37h-2.887a1.122 1.122 0 0 0-.479 2.1l-.015.4h-9.23l-.032-.252q1.947-2.806-3.25-2.253l-.254-.37-.37-.173.025-11.422.37-.222.16-.37h3.891l.01-9.824 1.256-6.2a3.69 3.69 0 0 0-3.576-3.862l-.264-.368c-.565-.069-.548-1.345-.007-1.468q-.537-.081-.4-1.187h-5.105L11.457 10l-.37.257-.252.385a3.836 3.836 0 0 0-3.484 4.614l1.138 5.384v9.883a9.4 9.4 0 0 0 2.324.118l.262.37c.074-.565 1.355-.54 1.478 0l.37.17q.011 5.708.025 11.422l-.37.225-.158.37H9.533a1.1 1.1 0 0 0-.486 2.063v.395a12.8 12.8 0 0 1-3.146.121l-.37-.131V6.137a.6.6 0 0 1 .5-.6l41.014-.007.227.37Z"/><path fill="#fbdd90" d="m47.287 5.9-41.372.007v39.889H2.956V2.949h44.306Z"/><g transform="translate(6.903 7.383)"><path fill="#6d555c" d="M5.687 35.462c.084-.533 1.937-.469 2.4-.37.276-.049.419.084.5.37h2.988a1.45 1.45 0 0 1 1.444 1.219 1.49 1.49 0 0 1-.893 1.651l-.92.084-8.141.01-.908-.138a1.4 1.4 0 0 1-.906-1.606 1.44 1.44 0 0 1 1.446-1.219Z"/><path fill="#c8bfc2" d="m8.616 23.642-.21.37H5.924l-.262-.368H4.184l-.37-.17V13.35l-1.13-5.32a4.4 4.4 0 0 1 .042-1.984c.173-.688.7-2.085 1.5-1.883l.424.141a2.63 2.63 0 0 0 2.468 1.907c0 .3.131.37.382.343l.2-.41a2.82 2.82 0 0 0 2.021-2.848l.375-.271a4.052 4.052 0 0 1 4.131 4.814l-1.18 5.646v10.157H8.613Z"/><path fill="#d7d1d3" d="M4.189 2.887c.553-.017.57 1.16.035 1.273a4.14 4.14 0 0 0-1.177 3.8l1.135 5.357v10.321l-2.954-.007V13.315L.093 7.958a4.245 4.245 0 0 1 4.1-5.071Z"/><path fill="#7b636b" d="m8.615 23.642-.027 11.82h-2.9l-.027-11.82Z"/><g transform="translate(4.184)"><path fill="#87747c" d="m5.902 1.55-.22.365-2.361-.057q-.018 2.45-.01 4.691A3 3 0 0 1 .034 4.155l-.035-1.273V0h5.885l.012 1.555Z"/><path fill="#7b636b" d="m5.902 1.555.007 1.468c.01 1.754-.851 3.3-2.6 3.531-.012-.035-.2-.015-.264-.062a.58.58 0 0 1-.111-.382l.012-4.627 2.949.072Z"/></g></g><g transform="translate(23.644 7.386)"><path fill="#6d555c" d="M8.155 35.459c.084-.533 1.937-.469 2.4-.37.276-.049.419.084.5.37h2.988a1.45 1.45 0 0 1 1.444 1.219 1.47 1.47 0 0 1-.9 1.641l-.918.1H5.531l-.92-.086a1.48 1.48 0 0 1-.9-1.651 1.44 1.44 0 0 1 1.446-1.219h2.988Z"/><path fill="#ef4f6b" d="m11.084 31.03-.21.37H8.392l-.262-.368-5.135.01-.318-.225L7.77 13.334a36 36 0 0 1-2.09-5.426c-.077-1.024.022-2.988 1.165-3.173a2.4 2.4 0 0 1 1.207.965l.679.38a.9.9 0 0 1 .878.526l.232-.38a2.7 2.7 0 0 0 2.364-2.9l.353-.281a4.31 4.31 0 0 1 3.331 5.843l-1.816 4.427L19.24 31.04h-8.15Z"/><path fill="#fe778a" d="M6.665 2.916c.511.133.538 1.508.178 1.811a4.43 4.43 0 0 0-.5 4.257l1.782 4.333-5.128 17.72-2.993-.007 5.167-17.715-1.782-4.336a4.484 4.484 0 0 1 3.279-6.065Z"/><g transform="translate(6.654)"><path fill="#88747c" d="m5.906 1.552-.22.365-2.364-.057v4.474l-.37.266A3.04 3.04 0 0 1 .188 4.732 4.3 4.3 0 0 1 .01 2.921L.003-.001h5.89l.012 1.557Z"/><path fill="#7b636b" d="M5.906 1.553v1.486A3.066 3.066 0 0 1 2.957 6.6V1.481Z"/></g><path fill="#7b636b" d="m11.084 31.03-.027 4.429h-2.9L8.13 31.03Z"/></g></g><g transform="translate(2.959 12.008)"><path fill="#fdecb1" d="M4.434 42.845h7.388v7.395H4.434zm10.344 0h7.388v7.395h-7.388z"/><path fill="#f7d170" d="M25.123 45.801v4.434h-2.956l-.37-.123v-6.8q-3.217-.181-6.549-.1-.178 3.35-.1 6.808l-.37.217H11.82l-.37-.123v-6.8q-3.217-.181-6.549-.1-.178 3.35-.1 6.808l-.37.217H1.474c-.143-.017-.355-.057-.37-.16a33 33 0 0 1 0-4.015l.37-.262v-44.3A1.443 1.443 0 0 1 2.967-.003h20.658a1.445 1.445 0 0 1 1.49 1.505v44.3Z"/><g transform="translate(0 2.956)"><path fill="#a36b4f" d="M1.478 42.845v4.437H0v-4.427Z"/><g transform="translate(4.432)"><path fill="#986047" d="m17.724 3.025-.173.368-14.095-.076a8.3 8.3 0 0 0-.18 2.327l-.375.254-2.9.01V.001h17.723z"/><path fill="#fdecb1" d="m7.395 16.232-7.4.02v-7.4h7.39Zm10.344 0-7.4.02v-7.4h7.39ZM7.395 26.578l-7.4.017v-7.393h7.39Zm10.344 0-7.4.017v-7.393h7.39ZM7.395 36.92l-7.4.017v-7.393h7.39Zm10.344 0-7.4.017v-7.393h7.39Z"/><path fill="#a36b4f" d="M17.724 3.025v2.88L2.899 5.894l.069-2.954Z"/></g></g></g></g><g transform="translate(27.62)"><path fill="#f7d170" d="M38.89 7.464c.141.017.333.047.37.158a22 22 0 0 1 .01 2.559l-.368.257c.143.017.358.064.37.168a36 36 0 0 1-.007 5.382l-.37.271c.143.017.355.059.37.163a15 15 0 0 1 0 2.616l-.37.259c.146.015.365.067.37.17.118 2.894.072 6.107 0 9.022a2.58 2.58 0 0 1-.368 2.023l.37.2.01 2.759-.368.257a1.58 1.58 0 0 1-1.705 1.747L1.799 35.45c-1.012 0-1.352-1.049-1.35-1.841L.082 33.4a21 21 0 0 1 .012-2.714.62.62 0 0 1 .37-.262l-.37-.407q0-5.289.007-10.581l.37-.22c-.143-.017-.353-.057-.37-.16a20 20 0 0 1 0-2.611.62.62 0 0 1 .37-.259c-.143-.017-.358-.059-.37-.165a36 36 0 0 1-.007-5.461l.37-.266c-.143-.02-.353-.057-.368-.16a22 22 0 0 1 .007-2.559.62.62 0 0 1 .37-.254L.466 1.483A1.41 1.41 0 0 1 1.975 0H37.39a1.415 1.415 0 0 1 1.508 1.476l-.007 5.986Z"/><path fill="#edf5f5" d="m35.933 6.013-29.554-.1-.044 26.6-2.909-.017V2.956h32.493Z"/><g transform="translate(5.965 5.542)"><path fill="#f9fbfb" d="M29.969.471v26.5H.369l-.37-.131L.043.597a.6.6 0 0 1 .5-.6l29.2.1.227.37Z"/><g transform="translate(1.895 1.832)"><path fill="#7b636b" d="m8.862 2.975.38.212a2.593 2.593 0 0 0 5.165 0l.38-.212c.015-.146.064-.363.165-.37 1.241-.072 6.722-.128 7.494.254l.666.607a7.36 7.36 0 0 1 .5 3.943h-4.4v13.3l-11.83-.017-.37-.173.01-12.614a8.5 8.5 0 0 0-2.28-.114l-.259-.368-1.532-.037c-.767-.56.091-2.164.585-2.823a4.94 4.94 0 0 1 3.356-1.922c.497-.09 1.839-.216 1.97.334"/><path fill="#87747c" d="M7.381 20.693H4.43l.054-13.268 2.907-.007ZM8.859.033q.585.278.37 1.426.216 1.137-.368 1.515h-1.3a4.5 4.5 0 0 0-4.614 4.417l-2.939.017-.012-1.493A5.853 5.853 0 0 1 5.348.059c1.229-.111 2.376-.022 3.5-.022Z"/><path fill="#88747c" d="M23.11 3.466a7.1 7.1 0 0 0-2.6-.5h-5.722l-.37-.207a18 18 0 0 1 0-2.47.6.6 0 0 1 .37-.262l3.5.022a5.9 5.9 0 0 1 4.827 3.41Z"/><path fill="#7b636b" d="M14.781.034v2.941c-.02.143-.064.358-.168.37a36 36 0 0 1-5.488 0l-.269-.37V.034Z"/><path fill="#6d555c" d="M14.781 2.975a2.961 2.961 0 0 1-5.922 0z"/></g></g></g></svg>