<svg xmlns="http://www.w3.org/2000/svg" width="72.54" height="81.543" viewBox="0 0 72.54 81.543"><g fill="#61ccee" opacity=".5" transform="translate(.922 1.845)"><g transform="translate(32.709)"><path d="M18.646.002c.272.229.751.493.753.954l.025 3.717c-.094.324-.457.428-1.1.31a3.9 3.9 0 0 0-1.239-.314q-.065.2-.156 0l.01-3.412A1.45 1.45 0 0 1 17.713 0h.933Z"/><path d="M16.935 4.669h.156q.6.069 1.185.168.692 2.426 1.522 4.792l.279.314q4.36 2.149 8.649 4.428c.47.636.559 2.1-.274 2.32l-.339.318a6.11 6.11 0 0 0-5.657 2.459l-.441.108a2.5 2.5 0 0 1-1.073-1.01 2.03 2.03 0 0 1-.994-1.042l-.376.175a3.74 3.74 0 0 0-4.276 1.094q-.539 1.067-.967.64l-.407-.062a4.93 4.93 0 0 0-3.538-2.281l-.258-.322c-.231 0-.383.027-.393.314l-4.38.027-.283-.31a7.5 7.5 0 0 1-.726-2.04 1.5 1.5 0 0 1 .653-1.293l2.118-1.037 5.212-2.536a2.35 2.35 0 0 0 1.447-1.391l1.125-3.36a.756.756 0 0 1 .775-.48l1.26.015Zm2.812 26.075.322.073 2.773 24.511q.224 1.144-.464 1.486c-.353 1.052-1.748 1.47-2.96 1.484l-.173.314-2.083.023-.225-.31c-.025.383-.917.225-1.239.137-.694-.189-2.075-.861-1.707-1.653q-.56-.273-.451-1.268l2.765-24.653.331-.156a3.67 3.67 0 0 1 3.11.008Z"/><path d="m22.707 30.771.393.168q4.057 10.943 7.973 21.9.232.709-.268.852a2.18 2.18 0 0 1-1.459 1.84 40 40 0 0 1-6.971 1.283 3.5 3.5 0 0 0 .141-1.59l-2.772-24.482c.017-.121.052-.3.139-.31.233-.029 2.489-.029 2.607.025a.5.5 0 0 1 .216.314Z"/><path d="m25.689 30.802 12.9 18.012a2.17 2.17 0 0 1-.008 2.262 2.33 2.33 0 0 1-1.6 1.206c-2.069.586-4.131.994-6.181 1.407a3.15 3.15 0 0 0-.252-1.514L22.702 30.77a14 14 0 0 1 2.983.029Zm-12-.026.256.208-7.938 21.671a1.3 1.3 0 0 1-.418 1.031c-.04.114-.1.279-.2.277a8.5 8.5 0 0 1-1.412-.293q-.783-.006-.888-.5v-.881c0-.4-.216-.79-.636-.794l-2-.012A36 36 0 0 1 .37 47.35a2.01 2.01 0 0 1-.17-2.052l10.547-14.5c.015-.121.044-.3.133-.312.21-.042 2.4-.06 2.588-.017l.22.31Z"/><path d="M12.108 25.979c.015-.121.048-.3.139-.312a27 27 0 0 1 2.769 0l.225.312a.43.43 0 0 1 .173-.312 21 21 0 0 1 2.526 0l.216.312c.033-.121.083-.3.179-.312.247-.033 2.5-.05 2.617 0a.5.5 0 0 1 .225.312c.015-.121.05-.3.135-.312.291-.033 2.886-.064 3.023 0a.5.5 0 0 1 .218.312l.239.245-1.617 4.118 2.268.01.216.312a.12.12 0 0 0 .031.139l-2.983-.029-2.963-.029c-1.033-.01-2.075-.023-3.11-.008l-.131.314-2.592.035-.222-.308-2.942.019-1.925-4.813.175-.312h2.888l.22.308Z"/><g transform="translate(2.719 58.297)"><path d="m16.682 10.95-.312-.177-.006-2.089.31-.222 2.31.048a6.634 6.634 0 0 1 5.9 6.759 3.84 3.84 0 0 0 3.669 3.738l3.247.052a1.16 1.16 0 0 1 1.1 1.164 1.175 1.175 0 0 1-1.1 1.15l-3.765-.019a6.28 6.28 0 0 1-5.538-5.852c-.054-2.289-1.247-4.237-3.638-4.538l-2.179-.01Z"/><path d="m16.696 0-.021 8.464.008 2.486.042 9.033a1.273 1.273 0 0 1-1.2 1.416 1.222 1.222 0 0 1-1.308-1.281l.048-9.15a2.91 2.91 0 0 1 0-2.513c-.123-.012-.308-.054-.312-.139a91 91 0 0 1-.042-7.145q-.168-.9.306-1.141l2.48-.027Z"/><path d="M14.264 8.455c.006.838.008 1.682 0 2.514l-2.216-.006a4.12 4.12 0 0 0-3.534 4.279 6.364 6.364 0 0 1-5.389 6.087l-3.129.033a1.09 1.09 0 0 0 .38-.9l-.012-1.41.127-.314c2.942.318 5.549-1.075 5.333-4.337.736-4.464 3.848-6.524 8.216-6.247l.222.306Z"/></g><path d="m19.426 4.673 1.551.023c.322 0 .53.457.628.742l.954 2.8c.133.393.266.983.665 1.181l2.407 1.189 4.6 2.237c.638.31 1.505.59 1.742 1.343a3.87 3.87 0 0 1-.578 2.6h-.121q-1.419-.059-2.827-.1c.328-.653.584-1.954-.3-2.387l-7.723-3.778a1.9 1.9 0 0 1-1.121-1.243l-1.36-4.482c-.393.075-.692.05-.846-.127h2.335Zm-9.3 12.094c.033.162-.01.272-.077.22-.214-.168.11-.123.314.033 2.243 1.7 2.231 6.118 2.054 8.732l-.31.227H8.824l-3.753-9.181Z"/><path d="m28.451 16.692 2.642-.031a.21.21 0 0 1 .185.135l-.044.2a16.5 16.5 0 0 1-2.688.173q-1.737 4.157-3.364 8.326l2.283.035.218.314a.3.3 0 0 0-.006.152l-.326.31a13 13 0 0 1-2.7-.121.44.44 0 0 1-.1-.208h-3.378c-.121-.033-.3-.087-.31-.181-.114-1.341-.012-4.963.636-5.931.133-.2.225-.312.511-.291a5.98 5.98 0 0 1 5.046-2.859l1.391-.027Z"/><path d="M31.278 16.796h.121l-3.713 9.05-3.008-.048 3.669-8.966Zm-3.599 9.198-2.021 4.669-2.94-.015 1.836-4.674Zm-7.729-8.47.193.378-1.3 2.593a11 11 0 0 0-.407 4.84l-.281.642h-2.917l-.312-.179a21.8 21.8 0 0 0-.274-5 1.67 1.67 0 0 1-.324-1.362c.125.015.218-.077.308-.231a4.07 4.07 0 0 1 5.312-1.678Z"/><path d="M10.126 16.767a5.21 5.21 0 0 1 4.2 2.665 5.4 5.4 0 0 1 .9 2.821l.008 3.723h-3.133l-.01-4.2a6.53 6.53 0 0 0-2.337-4.9.74.74 0 0 1 .366-.116Zm11.889 2.809a6.34 6.34 0 0 0-.811 3.316l-.029 3.087h-3.022a33 33 0 0 1 0-4.187c.108-1.437 1.308-2.8 1.794-4.268a4.04 4.04 0 0 1 2.068 2.052m-5.38 11.16-2.8 24.95.154 1.125a38.7 38.7 0 0 1-6.854-1.254 2.17 2.17 0 0 1-1.547-1.869 2.4 2.4 0 0 1 .125-1.133l7.977-21.779Z"/></g><g transform="translate(0 35.403)"><g transform="translate(0 15.713)"><path d="m2.811.322.11-.312 9.039.025.239.264q9.009-.062 17.834.1l.312.108V28.37l-.312.191H.807a.742.742 0 0 1-.807-.8L.006 1.07c0-1.1 1.9-.751 2.8-.748Z"/><path d="M32.994.397q.038-.213.17-.031c.017-.121.052-.3.137-.31.734-.1 2.3-.135 2.684.547.168.3.291 1.4-.185 1.451l.312.191q0 11.9-.008 23.794l-.312.191.312.166c.1.645.154 2.156-.68 2.148l-5.391.019V.399a11.5 11.5 0 0 1 2.956 0Z"/></g><g transform="translate(2.798)"><path d="M20.702 4.759c.22.362.031.516-.333.636l-4.125.649a4.8 4.8 0 0 0-3.522 4.782l-.3.283a1.23 1.23 0 0 0 .037.775 12.6 12.6 0 0 1-2.921.143l-.216-.308-.143.312H.189l-.187-.312.019-10.222c0-.447.7-.6 1.039-.47A17.52 17.52 0 0 0 13.23.538c.412-.206.809-.624 1.316-.52.632.129.9.759 1.312 1.17l2.41 2.418a6.4 6.4 0 0 0 2.434 1.153"/><path d="m25.384 6.51.31.227a33 33 0 0 1-.027 4.821.55.55 0 0 1-.208.129q-5.358.056-10.676-.089a1.22 1.22 0 0 1 .006-.94c-.484-.2-.227-.838-.058-1.245a2.93 2.93 0 0 1 2.139-1.759l4.029-.617.969-.511a2.36 2.36 0 0 1 1.148-.871l2.368.859ZM9.322 11.717l.312.139.021 3.773 15.526.012.189.312c.015-.121.054-.306.139-.312.5-.039 4.252-.079 4.459 0 .119.046.177.189.225.312.112.044.11.1 0 .156h-2.958L.01 16.037 0 11.719h9.32Z"/><path d="M23.017 5.651a3.58 3.58 0 0 1-2.692 1.832l-3.137.426a2.7 2.7 0 0 0-2.395 2.746 1.34 1.34 0 0 0 .069 1.162 6.3 6.3 0 0 1-2.306.2q-.387-.1-.131-.9a5.1 5.1 0 0 1 4.2-5.455l3.267-.473a1 1 0 0 0 .815-.43l2.312.892Z"/><path d="M30.116 9.893c.426 2.031.141 4.125.254 6.185l-.17.031v-.156l-.312-.141.012-3.742h-4.3l-.227-.312-.143.312H15.055c-.362.008-.476-.162-.262-.468l10.58.019.019-5.106c1.946.7 4.306 1.366 4.728 3.385Z"/><path d="M14.786 11.597a.147.147 0 0 0 .164.158h10.416c.121.015.3.054.312.139a26 26 0 0 1-.1 3.952.45.45 0 0 1-.208.1l-16.023.012-.025-4.241h2.944a2 2 0 0 1 .156-.6l.04.595 2.2-.025a1.16 1.16 0 0 1 .125-1.025l-.006.94Z"/><path d="M30.196 15.953h-4.823v-4.2h4.861Z"/></g></g></g><g transform="translate(32.709)"><path fill="#ba5d4c" d="M18.646.002c.272.229.751.493.753.954l.025 3.717c-.094.324-.457.428-1.1.31a3.9 3.9 0 0 0-1.239-.314q-.065.2-.156 0l.01-3.412A1.45 1.45 0 0 1 17.713 0h.933Z"/><path fill="#f2e9e5" d="M16.935 4.669h.156q.6.069 1.185.168.692 2.426 1.522 4.792l.279.314q4.36 2.149 8.649 4.428c.47.636.559 2.1-.274 2.32l-.339.318a6.11 6.11 0 0 0-5.657 2.459l-.441.108a2.5 2.5 0 0 1-1.073-1.01 2.03 2.03 0 0 1-.994-1.042l-.376.175a3.74 3.74 0 0 0-4.276 1.094q-.539 1.067-.967.64l-.407-.062a4.93 4.93 0 0 0-3.538-2.281l-.258-.322c-.231 0-.383.027-.393.314l-4.38.027-.283-.31a7.5 7.5 0 0 1-.726-2.04 1.5 1.5 0 0 1 .653-1.293l2.118-1.037 5.212-2.536a2.35 2.35 0 0 0 1.447-1.391l1.125-3.36a.756.756 0 0 1 .775-.48l1.26.015Z"/><path fill="#feefac" d="m19.747 30.744.322.073 2.773 24.511q.224 1.144-.464 1.486c-.353 1.052-1.748 1.47-2.96 1.484l-.173.314-2.083.023-.225-.31c-.025.383-.917.225-1.239.137-.694-.189-2.075-.861-1.707-1.653q-.56-.273-.451-1.268l2.765-24.653.331-.156a3.67 3.67 0 0 1 3.11.008Z"/><path fill="#fee077" d="m22.707 30.771.393.168q4.057 10.943 7.973 21.9.232.709-.268.852a2.18 2.18 0 0 1-1.459 1.84 40 40 0 0 1-6.971 1.283 3.5 3.5 0 0 0 .141-1.59l-2.772-24.482c.017-.121.052-.3.139-.31.233-.029 2.489-.029 2.607.025a.5.5 0 0 1 .216.314Z"/><path fill="#fed05b" d="m25.689 30.802 12.9 18.012a2.17 2.17 0 0 1-.008 2.262 2.33 2.33 0 0 1-1.6 1.206c-2.069.586-4.131.994-6.181 1.407a3.15 3.15 0 0 0-.252-1.514L22.702 30.77a14 14 0 0 1 2.983.029Zm-12-.026.256.208-7.938 21.671a1.3 1.3 0 0 1-.418 1.031c-.04.114-.1.279-.2.277a8.5 8.5 0 0 1-1.412-.293q-.783-.006-.888-.5v-.881c0-.4-.216-.79-.636-.794l-2-.012A36 36 0 0 1 .37 47.35a2.01 2.01 0 0 1-.17-2.052l10.547-14.5c.015-.121.044-.3.133-.312.21-.042 2.4-.06 2.588-.017l.22.31Z"/><path fill="#bc80e0" d="M12.108 25.979c.015-.121.048-.3.139-.312a27 27 0 0 1 2.769 0l.225.312a.43.43 0 0 1 .173-.312 21 21 0 0 1 2.526 0l.216.312c.033-.121.083-.3.179-.312.247-.033 2.5-.05 2.617 0a.5.5 0 0 1 .225.312c.015-.121.05-.3.135-.312.291-.033 2.886-.064 3.023 0a.5.5 0 0 1 .218.312l.239.245-1.617 4.118 2.268.01.216.312a.12.12 0 0 0 .031.139l-2.983-.029-2.963-.029c-1.033-.01-2.075-.023-3.11-.008l-.131.314-2.592.035-.222-.308-2.942.019-1.925-4.813.175-.312h2.888l.22.308Z"/><g transform="translate(2.719 58.297)"><path fill="#a34f3e" d="m16.682 10.95-.312-.177-.006-2.089.31-.222 2.31.048a6.634 6.634 0 0 1 5.9 6.759 3.84 3.84 0 0 0 3.669 3.738l3.247.052a1.16 1.16 0 0 1 1.1 1.164 1.175 1.175 0 0 1-1.1 1.15l-3.765-.019a6.28 6.28 0 0 1-5.538-5.852c-.054-2.289-1.247-4.237-3.638-4.538l-2.179-.01Z"/><path fill="#ba5d4c" d="m16.696 0-.021 8.464.008 2.486.042 9.033a1.273 1.273 0 0 1-1.2 1.416 1.222 1.222 0 0 1-1.308-1.281l.048-9.15a2.91 2.91 0 0 1 0-2.513c-.123-.012-.308-.054-.312-.139a91 91 0 0 1-.042-7.145q-.168-.9.306-1.141l2.48-.027Z"/><path fill="#a34f3e" d="M14.264 8.455c.006.838.008 1.682 0 2.514l-2.216-.006a4.12 4.12 0 0 0-3.534 4.279 6.364 6.364 0 0 1-5.389 6.087l-3.129.033a1.09 1.09 0 0 0 .38-.9l-.012-1.41.127-.314c2.942.318 5.549-1.075 5.333-4.337.736-4.464 3.848-6.524 8.216-6.247l.222.306Z"/></g><path fill="#eee1dc" d="m19.426 4.673 1.551.023c.322 0 .53.457.628.742l.954 2.8c.133.393.266.983.665 1.181l2.407 1.189 4.6 2.237c.638.31 1.505.59 1.742 1.343a3.87 3.87 0 0 1-.578 2.6h-.121q-1.419-.059-2.827-.1c.328-.653.584-1.954-.3-2.387l-7.723-3.778a1.9 1.9 0 0 1-1.121-1.243l-1.36-4.482c-.393.075-.692.05-.846-.127h2.335Z"/><path fill="#fee077" d="M10.126 16.767c.033.162-.01.272-.077.22-.214-.168.11-.123.314.033 2.243 1.7 2.231 6.118 2.054 8.732l-.31.227H8.824l-3.753-9.181Zm18.325-.075 2.642-.031a.21.21 0 0 1 .185.135l-.044.2a16.5 16.5 0 0 1-2.688.173q-1.737 4.157-3.364 8.326l2.283.035.218.314a.3.3 0 0 0-.006.152l-.326.31a13 13 0 0 1-2.7-.121.44.44 0 0 1-.1-.208h-3.378c-.121-.033-.3-.087-.31-.181-.114-1.341-.012-4.963.636-5.931.133-.2.225-.312.511-.291a5.98 5.98 0 0 1 5.046-2.859l1.391-.027Z"/><path fill="#fed05b" d="M31.278 16.796h.121l-3.713 9.05-3.008-.048 3.669-8.966Z"/><path fill="#ae66d9" d="m27.679 25.994-2.021 4.669-2.94-.015 1.836-4.674Z"/><path fill="#fee077" d="m19.95 17.524.193.378-1.3 2.593a11 11 0 0 0-.407 4.84l-.281.642h-2.917l-.312-.179a21.8 21.8 0 0 0-.274-5 1.67 1.67 0 0 1-.324-1.362c.125.015.218-.077.308-.231a4.07 4.07 0 0 1 5.312-1.678Z"/><path fill="#fed05b" d="M10.126 16.767a5.21 5.21 0 0 1 4.2 2.665 5.4 5.4 0 0 1 .9 2.821l.008 3.723h-3.133l-.01-4.2a6.53 6.53 0 0 0-2.337-4.9.74.74 0 0 1 .366-.116Zm11.889 2.809a6.34 6.34 0 0 0-.811 3.316l-.029 3.087h-3.022a33 33 0 0 1 0-4.187c.108-1.437 1.308-2.8 1.794-4.268a4.04 4.04 0 0 1 2.068 2.052"/><path fill="#fee077" d="m16.635 30.736-2.8 24.95.154 1.125a38.7 38.7 0 0 1-6.854-1.254 2.17 2.17 0 0 1-1.547-1.869 2.4 2.4 0 0 1 .125-1.133l7.977-21.779Z"/></g><g transform="translate(0 35.403)"><g transform="translate(0 15.713)"><path fill="#f2e9e5" d="m2.811.322.11-.312 9.039.025.239.264q9.009-.062 17.834.1l.312.108V28.37l-.312.191H.807a.742.742 0 0 1-.807-.8L.006 1.07c0-1.1 1.9-.751 2.8-.748Z"/><path fill="#eee1dc" d="M32.994.397q.038-.213.17-.031c.017-.121.052-.3.137-.31.734-.1 2.3-.135 2.684.547.168.3.291 1.4-.185 1.451l.312.191q0 11.9-.008 23.794l-.312.191.312.166c.1.645.154 2.156-.68 2.148l-5.391.019V.399a11.5 11.5 0 0 1 2.956 0Z"/></g><g transform="translate(2.798)"><path fill="#ba5d4c" d="M20.702 4.759c.22.362.031.516-.333.636l-4.125.649a4.8 4.8 0 0 0-3.522 4.782l-.3.283a1.23 1.23 0 0 0 .037.775 12.6 12.6 0 0 1-2.921.143l-.216-.308-.143.312H.189l-.187-.312.019-10.222c0-.447.7-.6 1.039-.47A17.52 17.52 0 0 0 13.23.538c.412-.206.809-.624 1.316-.52.632.129.9.759 1.312 1.17l2.41 2.418a6.4 6.4 0 0 0 2.434 1.153"/><path fill="#ba5d4c" d="m25.384 6.51.31.227a33 33 0 0 1-.027 4.821.55.55 0 0 1-.208.129q-5.358.056-10.676-.089a1.22 1.22 0 0 1 .006-.94c-.484-.2-.227-.838-.058-1.245a2.93 2.93 0 0 1 2.139-1.759l4.029-.617.969-.511a2.36 2.36 0 0 1 1.148-.871l2.368.859Z"/><path fill="#a34f3e" d="m9.322 11.717.312.139.021 3.773 15.526.012.189.312c.015-.121.054-.306.139-.312.5-.039 4.252-.079 4.459 0 .119.046.177.189.225.312.112.044.11.1 0 .156h-2.958L.01 16.037 0 11.719h9.32Z"/><path fill="#6d3326" d="M23.017 5.651a3.58 3.58 0 0 1-2.692 1.832l-3.137.426a2.7 2.7 0 0 0-2.395 2.746 1.34 1.34 0 0 0 .069 1.162 6.3 6.3 0 0 1-2.306.2q-.387-.1-.131-.9a5.1 5.1 0 0 1 4.2-5.455l3.267-.473a1 1 0 0 0 .815-.43l2.312.892Z"/><path fill="#a34f3e" d="M30.116 9.893c.426 2.031.141 4.125.254 6.185l-.17.031v-.156l-.312-.141.012-3.742h-4.3l-.227-.312-.143.312H15.055c-.362.008-.476-.162-.262-.468l10.58.019.019-5.106c1.946.7 4.306 1.366 4.728 3.385Z"/><path fill="#883f2e" d="M14.786 11.597a.147.147 0 0 0 .164.158h10.416c.121.015.3.054.312.139a26 26 0 0 1-.1 3.952.45.45 0 0 1-.208.1l-16.023.012-.025-4.241h2.944a2 2 0 0 1 .156-.6l.04.595 2.2-.025a1.16 1.16 0 0 1 .125-1.025l-.006.94Z"/><path fill="#6d3326" d="M30.196 15.953h-4.823v-4.2h4.861Z"/></g></g></svg>