<svg xmlns="http://www.w3.org/2000/svg" width="81.532" height="73.43" viewBox="0 0 81.532 73.43"><defs><path id="a" d="M4.035 38.131H3.88V22.442H.911a.84.84 0 0 1-.906-.811v-7.3a.816.816 0 0 1 .821-.875l3.044-.023L3.932.001c.025 0 .118.025.118.164l-.044 13.372v9.2l.033 15.395Zm2.271-15.699-.042-8.963.077-13.47.039 13.432 3.073.021a.8.8 0 0 1 .815.865l-.006 7.312a.777.777 0 0 1-.778.792z"/></defs><g fill="#61ccee" opacity=".5" transform="translate(1.844 1.844)"><g transform="translate(0 66.864)"><path d="M2.491.367c.2-.337.647-.441 1.349-.312q.864-.168 1.123.31A.37.37 0 0 1 5.1.053a20 20 0 0 1 2.509 0l.22.312c-.056-.466.825-.435.894.008a.55.55 0 0 1-.3.615v3.1q.35.314.139.632H.624A1.1 1.1 0 0 1 0 4.41V.679a1.02 1.02 0 0 1 .617-.31h1.872Z"/><path d="M11.097.373c-.139-.468 2-.364 2.1-.316a.5.5 0 0 1 .214.312c.033-.121.083-.3.181-.312a16 16 0 0 1 2.21 0q.92-.168 1.218.312.19-.5 1.239-.312.849-.166 1.094.31l.108-.312h11.807l.189.312c-.133-.47 2.012-.36 2.121-.31a.5.5 0 0 1 .216.312c.015-.121.05-.3.137-.312.293-.035 2.906-.067 3.046 0a.5.5 0 0 1 .22.312q.073-.199.156.008l.175-.312h2.767l.218.312c-.037-.445 1.865-.391 2.067-.314l.22.312.177-.312h2.692l.222.312a.38.38 0 0 1 .135-.312c.1-.058 2.229-.139 2.2.31l.146-.312h11.669l.187.312c.044-.135.1-.133.156 0-.04-.445 1.857-.387 2.054-.312l.218.312.108-.312h11.79l.189.312q.287-.504 1.337-.312.861-.168 1.112.312L78.77.367c.214 0 .846.1.852.37l.056 3.212a.74.74 0 0 1-.817.782H8.568c-.116-.164-.447-.372-.449-.645V1.011c0-.328.418-.5.6-.63-.125-.468 2.039-.364 2.156-.312a.5.5 0 0 1 .218.312Z"/></g><g transform="translate(.002)"><g transform="translate(0 7.234)"><path d="M4.509.4c.015-.121.052-.3.139-.312A31.5 31.5 0 0 1 9.12.076l.227.31c.019-.466.7-.418.775.012L9.99.751a2.19 2.19 0 0 0-1.57 1.855l-.015 11.775a.64.64 0 0 1-.175.721l-.046.114-3.237.019c-.04.123-.081.218-.131.222a20 20 0 0 1-2.241.029c-.062-.023-.1-.123-.125-.243a9.3 9.3 0 0 1-2.132-.037c-.175.32-.239.1-.318-.183V1.949C.385 1.319.877.454 1.744.442L4.511.4Z"/><g transform="translate(8.083 .028)"><path d="m8.71.321.237.268a7.5 7.5 0 0 0-.723 2.684l.247.279q3.028.14 6.087.069l.53.31.108-.312q18.359.075 36.648-.1A17.4 17.4 0 0 0 53.01.521l.368-.11.291-.312 13.22-.042.191.31 2.362.006A2.183 2.183 0 0 1 71.563 2.4l.037 12.114a.76.76 0 0 1-.784.79l-1.706-.008-.177.31a17 17 0 0 1-2.062-.008.5.5 0 0 1-.216-.312c0 .121-.031.31-.108.312-3.462.1-7.41.152-10.863 0q-.854.153-1.087-.312c-.015.121-.046.3-.131.312a13 13 0 0 1-1.956 0 .53.53 0 0 1-.214-.31c0 .121-.029.308-.1.312a51 51 0 0 1-5.655 0q-.77.15-.931-.312c-.033.123-.085.3-.183.312a33 33 0 0 1-5.05 0l-.229-.312c-.017.121-.048.3-.135.312a14 14 0 0 1-1.985 0 .52.52 0 0 1-.214-.312l-.108.312H25.9l-.189-.312c-.015.121-.048.3-.135.312a14 14 0 0 1-1.985 0 .53.53 0 0 1-.216-.312l-.108.312h-11.8l-.189-.31c-.015.121-.048.3-.135.312a14 14 0 0 1-1.983 0 .53.53 0 0 1-.216-.312l-.143.312H1.289l-.187-.312c.01.455-.509.449-.624.017a.57.57 0 0 1-.326-.234 2.5 2.5 0 0 1-.135-.707L0 3.017A2.55 2.55 0 0 1 2.044.373l.01-.208Q5.232-.044 8.532.011l.185.31Z"/><path d="m66.206 8.092-7.05.021a1.157 1.157 0 0 1-1.148-1.135 1.18 1.18 0 0 1 1.287-1.2h6.7a1.17 1.17 0 0 1 1.22 1.064 1.1 1.1 0 0 1-1.012 1.247Z"/></g></g><g transform="translate(4.505)"><g transform="translate(0 2.137)"><path d="m70.657 5.491-13.7.044L58.905.063 69.387.04a1.87 1.87 0 0 1 1.285 1.863ZM14.16.002l-1.869 5.443-6.674.05-.775-.012c-.121-.033-.3-.087-.31-.181a23 23 0 0 1 .075-3.977A1.4 1.4 0 0 1 6.102.046L14.16 0Z"/><path d="M6.1.048a1.834 1.834 0 0 0-1.245 1.859L4.84 5.483l-4.836.015v-4.06A1.6 1.6 0 0 1 1.409.06L6.103.05Z"/></g><g transform="translate(11.424)"><path d="M10.615.004c-.218.177-.486.339-.58.613L6.868 9.725a1.23 1.23 0 0 0 .37 1.464l-6.218.015a.94.94 0 0 1-.875-.445.97.97 0 0 1-.094-.838l.817-2.345a.5.5 0 0 1-.193-.079c-.2-.154 1.308-4.3 1.522-4.753q.069-.566.538-.611L3.149.842c.083-.26.328-.825.694-.827Z"/><g transform="translate(6.474)"><path d="m41.003 2.2.258.2q-.907 2.554-1.817 5.106l-.389.162-.985 2.852a.91.91 0 0 1-.911.659l-36.393.008c-.894-.154-.811-.738-.7-1.459L3.271.5A1 1 0 0 1 4.14 0h36.286a.93.93 0 0 1 .857.509 1.07 1.07 0 0 1-.019.919Z"/><path d="m31.331 6.742-27.727.01a1.1 1.1 0 0 1-1.015-1.214 1.154 1.154 0 0 1 1.233-1.11h27.224a1.15 1.15 0 0 1 1.216.967c.077.433-.137 1.347-.931 1.347"/></g></g></g></g><g transform="translate(.318 22.337)"><path d="M76.871.22v44.672h-2.449l-.312-.148v-37.8l.312-.193-.312-.1q0-3.125-.006-6.249l.312-.183 2.455.008ZM8.241.229l-.137.312H4.94q0 22.079.017 44.164l-.312.193H2.17V.208C1.397.183.588.449-.003.102l7.913-.1c.133 0 .279-.008.326.229Z"/><path d="m8.241.229.624-.017.312.143v8.7l-.312.185a4.3 4.3 0 0 1-.832.137q-.172 3.992-.081 8.118.727-.006.9.372l.312.106.031 14-.31.189a1.88 1.88 0 0 1-.7 1.012l-.212.414a51 51 0 0 0-.133 6.37l-.31.229c.121.015.3.054.31.139.037.48.06 4.131-.017 4.333-.046.118-.189.175-.312.225H4.649L4.624.222l3.622.006ZM45.565.21l.312.148v44.341l-.312.193h-3.089c-.123-.015-.3-.054-.312-.139a27 27 0 0 1 0-3.6q-.15-.773.31-.988l-.312-.181.012-5.622c-.2-1.931-1.57-2.22-3.256-2.062l-.2-.308-.366-.112-1.385-4.121a5.1 5.1 0 0 0-3.266-3.173l-.225-.385-.312-.108V.393l.312-.189h12.093Zm-14.428 0 .312.108v23.565l-.312.191-.106.312-11.794.077-.191-.31-.312-.108V.401l.31-.191h12.1Z"/><path d="m16.706.212.312.108q-.022 23.682-.023 23.68l-.312.189-.216.372a4.58 4.58 0 0 0-3.156 2.62q-.861 2.567-1.919 5.044a21 21 0 0 0-2.225.164l-.281-.218-.033-14.3c.079-.491.956-.462 1.106-.029l.175-.314 3.225-.1q.1-3.923-.054-7.732-1.7-.041-3.426-.075a1.7 1.7 0 0 0-1.015-.378V.212zM33.472.21v24l.289.177c.094.081.162 2.3-.291 2.308l.314.43.019 2.723-.31.22.208.859q.268.836-.235 1.054l.312.143v7.8l-.312.185c.123.015.3.054.312.141a34 34 0 0 1 0 3.823q.143.689-.312.83h-2.337c-.123-.015-.3-.056-.312-.143a28 28 0 0 1 0-3.632c-.1-.518 0-.85.312-.994-.123-.012-.308-.056-.312-.143-.094-2.152-.116-4.817 0-6.958q-.157-.847.312-1.05c-.478-.058-.466-1.139-.012-1.245l-.31-.316a17 17 0 0 1 .008-2.006.53.53 0 0 1 .312-.216c-.426.114-.38-1.43-.314-1.563a.53.53 0 0 1 .31-.21c-.468.133-.364-2.015-.312-2.125a.53.53 0 0 1 .312-.216V.21h2.337ZM47.9.214c.121 0 .308.029.312.1a54 54 0 0 1 0 5.765q.123.57-.31.682l.312.148v37.786l-.312.193h-2.335V.206h2.335ZM62.359.21c.121 0 .308.029.312.1a54 54 0 0 1 .01 5.765q.124.57-.31.682l-.019 13.362.254.108.042 8.773-.31.189.312.106v15.4l-.312.187h-2.279q-.15-7.743-.094-15.628l-.249-.11v-8.88l.243-.079q.075-6.733-.006-13.428c-.121 0-.306-.033-.31-.11a51 51 0 0 1 .083-5.509q-.137-.77.324-.927l2.3-.006Z"/><path d="M19.042.21v23.95q.486.215.293 1.143.15.839-.331 1.062.118 6.845.067 13.74c.112.01.21.031.249.091a42 42 0 0 1 .029 4.478l-.31.229h-2.334c-.123-.012-.306-.056-.31-.141a33 33 0 0 1 .046-4.617.36.36 0 0 1 .256-.027l-.017-15.921L16.703.22h2.334Zm55.371.002.006 6.536-.108.312-11.757.01-.189-.312-.01-6.551h12.058ZM60.054.214l-.1 6.545-.106.312h-6.432l-.183-.31-.31-.11.123-6.26.314-.177h6.692Z"/><path d="m53.362.212-.129 6.549c0 .121-.029.306-.1.312a36 36 0 0 1-4.7 0c-.293.039-.437 0-.526-.312V.21h5.462Z"/><path d="M53.235 6.761h6.719q.1 6.817-.017 13.667a29 29 0 0 1-3.168.1l-.312.173q-.234 3.907-.081 7.871l.173.2a21 21 0 0 0 3.285.114l.135.212q.072 7.927-.062 15.788h-12V6.767h5.328Zm21.184-.013v38.143H62.334v-15.7l.173-.312 3.141-.029a.474.474 0 0 0 .328-.482l-.037-7.549-.168-.216a29 29 0 0 0-3.291-.1l-.129-.22.019-13.52 12.054-.012Z"/><g transform="translate(7.619 9.231)"><path d="M1.246.012a39 39 0 0 0 4.21.1.558.558 0 0 1 .64.538l-.044 7.89-3.709.073q-.549-.025-.482-.8l.073-7.2A3.4 3.4 0 0 0 .61.47L.41.152a1.35 1.35 0 0 1 .832-.137Z"/><path d="M.412.15 2.25.21l-.083 7.283a2.5 2.5 0 0 0 .175 1.119l-1.106.029c-.312.008-.977.083-1.208-.237L.001.504a.4.4 0 0 1 .414-.36Z"/></g><use href="#a" transform="translate(56.027 6.761)"/><g transform="translate(7.509 24.077)"><path d="M3.233 16.122c.121.015.3.046.312.137a30 30 0 0 1 .035 4.339l-.31.229H.894L0 20.819l.019-4.7c.015-.121.052-.3.139-.312a24 24 0 0 1 2.852 0 .5.5 0 0 1 .222.312Zm8.393-8.224.312.143.037 7.7h11.466l.187.312v4.767h-12.1l-.031-4.842V2.286c.079-.135.123-.11.133.056.121.033.3.081.312.181a34.4 34.4 0 0 1 0 5.152l-.312.227ZM9.198 20.821H5.589c-.123-.015-.3-.054-.312-.141a32 32 0 0 1-.01-4.4l.31-.229.179-.312 3.069-.037V8.083l.31-.185c-.123-.033-.3-.085-.312-.181-.056-.58-.108-4.464-.006-4.784l.312-.335-.308-.183A15 15 0 0 1 8.86.328a.7.7 0 0 1 .316-.214l.071 15.948zm20.158-4.801c.233 0 .272.05.083.141q.059 2.358-.073 4.651h-3.4v-4.8c.012-.121.046-.3.133-.312a26 26 0 0 1 3.039 0l.22.312Z"/><path d="M32.684 20.823h-3.162a44 44 0 0 1-.075-4.738 19 19 0 0 1 3.256.008.4.4 0 0 1 .289.168 35 35 0 0 1 0 4.335l-.312.225Z"/><path d="M34.964 16.092v4.73h-2.285v-4.7l-3.162.023v4.676l-.154-.008-.01-4.794a.5.5 0 0 1 .015-.208c.089-.258 4.867-.11 5.414-.037l.179.314Zm-29.386-.04.01 4.767H3.27l-.037-4.7c-.05-.116-.008-.139.112-.081l.175-.31c.41-.085 1.932-.115 2.058.324"/><path d="m9.174.112-.046 2.486a1.46 1.46 0 0 1-.719.809l-.43.565-1.318 3.732-.366.11q-.012.5-1.1.449a1.98 1.98 0 0 0-1.57 1.971l.029 5.622-.31.185c-.023.025-.075.081-.112.081H.021L0 10.388a2.48 2.48 0 0 1 1.378-2.3 5.5 5.5 0 0 1 2.353-.173l1.728-4.788A4.91 4.91 0 0 1 9.174.106Zm22.029 7.807-2.466-.015-.383-.16a19 19 0 0 0-1.69-4.252 1.67 1.67 0 0 1-.7-.881V.127a5.4 5.4 0 0 1 3.84 3.607l1.4 4.183ZM23.626 0v2.341l-.143.312H11.817l-.187-.312a.18.18 0 0 0-.133-.056l.037-2.2L23.625.006Z"/><path d="M23.628 2.339v1.773l-.314.252a3.733 3.733 0 0 0-4.372 2.965l-.343.21c-.162.306-.372.374-.744.374l-6.233-.017V2.337h12Z"/><path d="m23.632 4.115-.012 2.538-.279.214a1.41 1.41 0 0 0-2.114.9l-.32.127-1.83.025c-.291 0-.464-.127-.472-.378a4.037 4.037 0 0 1 5.027-3.426m5.108 3.789-2.148-.006-.32-.243-.285-1.667-.025-3.374a3 3 0 0 1 1.6 1.8Z"/><path d="m23.619 6.653.012 1.245h-2.726a1.61 1.61 0 0 1 .944-1.376 1.93 1.93 0 0 1 1.77.131m2.971 1.243h-.632l.027-1.911a3.5 3.5 0 0 1 .605 1.911M9.127 2.599l.006 5.3-2.842-.083 1.17-3.451a2.75 2.75 0 0 1 1.666-1.766"/><g transform="translate(3.314 7.531)"><path d="M23.276.365c-.114-.453 1.767-.372 1.933-.306l.214.312q.3-.5 1.347-.3.836-.159 1.118.318l1.277-.023a2.4 2.4 0 0 1 2.5 2.489l-.012 5.7-5.607-.069h-3.4V.363c0-.455.526-.439.632 0ZM5.819.367v8.148l-3.557.006-2.233-.01L0 2.698A2.32 2.32 0 0 1 2.4.372l.578-.089.183-.281q1.22-.008 2.449.046l.208.318Z"/><g transform="translate(8.31 .008)"><path d="M9.283.356A.33.33 0 0 1 9.329.19a7.6 7.6 0 0 1 2.462-.141l.216.312v8.152h-12V.36L.113.048Q3.571.104 6.984 0a11.7 11.7 0 0 0 2.091.046l.212.308Z"/><path d="M8.622 5.904H3.144a1.158 1.158 0 0 1 .123-2.312l5.143-.01a1.175 1.175 0 0 1 1.268 1.062 1.137 1.137 0 0 1-1.056 1.26"/></g></g></g></g></g><g transform="translate(0 66.864)"><path fill="#ee4424" d="M2.491.367c.2-.337.647-.441 1.349-.312q.864-.168 1.123.31A.37.37 0 0 1 5.1.053a20 20 0 0 1 2.509 0l.22.312c-.056-.466.825-.435.894.008a.55.55 0 0 1-.3.615v3.1q.35.314.139.632H.624A1.1 1.1 0 0 1 0 4.41V.679a1.02 1.02 0 0 1 .617-.31h1.872Z"/><path fill="#fc5426" d="M11.097.373c-.139-.468 2-.364 2.1-.316a.5.5 0 0 1 .214.312c.033-.121.083-.3.181-.312a16 16 0 0 1 2.21 0q.92-.168 1.218.312.19-.5 1.239-.312.849-.166 1.094.31l.108-.312h11.807l.189.312c-.133-.47 2.012-.36 2.121-.31a.5.5 0 0 1 .216.312c.015-.121.05-.3.137-.312.293-.035 2.906-.067 3.046 0a.5.5 0 0 1 .22.312q.073-.199.156.008l.175-.312h2.767l.218.312c-.037-.445 1.865-.391 2.067-.314l.22.312.177-.312h2.692l.222.312a.38.38 0 0 1 .135-.312c.1-.058 2.229-.139 2.2.31l.146-.312h11.669l.187.312c.044-.135.1-.133.156 0-.04-.445 1.857-.387 2.054-.312l.218.312.108-.312h11.79l.189.312q.287-.504 1.337-.312.861-.168 1.112.312L78.77.367c.214 0 .846.1.852.37l.056 3.212a.74.74 0 0 1-.817.782H8.568c-.116-.164-.447-.372-.449-.645V1.011c0-.328.418-.5.6-.63-.125-.468 2.039-.364 2.156-.312a.5.5 0 0 1 .218.312Z"/></g><g transform="translate(.002)"><g transform="translate(0 7.234)"><path fill="#b4acce" d="M4.509.4c.015-.121.052-.3.139-.312A31.5 31.5 0 0 1 9.12.076l.227.31c.019-.466.7-.418.775.012L9.99.751a2.19 2.19 0 0 0-1.57 1.855l-.015 11.775a.64.64 0 0 1-.175.721l-.046.114-3.237.019c-.04.123-.081.218-.131.222a20 20 0 0 1-2.241.029c-.062-.023-.1-.123-.125-.243a9.3 9.3 0 0 1-2.132-.037c-.175.32-.239.1-.318-.183V1.949C.385 1.319.877.454 1.744.442L4.511.4Z"/><g transform="translate(8.083 .028)"><path fill="#cac3e4" d="m8.71.321.237.268a7.5 7.5 0 0 0-.723 2.684l.247.279q3.028.14 6.087.069l.53.31.108-.312q18.359.075 36.648-.1A17.4 17.4 0 0 0 53.01.521l.368-.11.291-.312 13.22-.042.191.31 2.362.006A2.183 2.183 0 0 1 71.563 2.4l.037 12.114a.76.76 0 0 1-.784.79l-1.706-.008-.177.31a17 17 0 0 1-2.062-.008.5.5 0 0 1-.216-.312c0 .121-.031.31-.108.312-3.462.1-7.41.152-10.863 0q-.854.153-1.087-.312c-.015.121-.046.3-.131.312a13 13 0 0 1-1.956 0 .53.53 0 0 1-.214-.31c0 .121-.029.308-.1.312a51 51 0 0 1-5.655 0q-.77.15-.931-.312c-.033.123-.085.3-.183.312a33 33 0 0 1-5.05 0l-.229-.312c-.017.121-.048.3-.135.312a14 14 0 0 1-1.985 0 .52.52 0 0 1-.214-.312l-.108.312H25.9l-.189-.312c-.015.121-.048.3-.135.312a14 14 0 0 1-1.985 0 .53.53 0 0 1-.216-.312l-.108.312h-11.8l-.189-.31c-.015.121-.048.3-.135.312a14 14 0 0 1-1.983 0 .53.53 0 0 1-.216-.312l-.143.312H1.289l-.187-.312c.01.455-.509.449-.624.017a.57.57 0 0 1-.326-.234 2.5 2.5 0 0 1-.135-.707L0 3.017A2.55 2.55 0 0 1 2.044.373l.01-.208Q5.232-.044 8.532.011l.185.31Z"/><path fill="#554e6f" d="m66.206 8.092-7.05.021a1.157 1.157 0 0 1-1.148-1.135 1.18 1.18 0 0 1 1.287-1.2h6.7a1.17 1.17 0 0 1 1.22 1.064 1.1 1.1 0 0 1-1.012 1.247Z"/></g></g><g transform="translate(4.505)"><g transform="translate(0 2.137)"><path fill="#554e6f" d="m70.657 5.491-13.7.044L58.905.063 69.387.04a1.87 1.87 0 0 1 1.285 1.863ZM14.16.002l-1.869 5.443-6.674.05-.775-.012c-.121-.033-.3-.087-.31-.181a23 23 0 0 1 .075-3.977A1.4 1.4 0 0 1 6.102.046L14.16 0Z"/><path fill="#433f5c" d="M6.1.048a1.834 1.834 0 0 0-1.245 1.859L4.84 5.483l-4.836.015v-4.06A1.6 1.6 0 0 1 1.409.06L6.103.05Z"/></g><g transform="translate(11.424)"><path fill="#ee4424" d="M10.615.004c-.218.177-.486.339-.58.613L6.868 9.725a1.23 1.23 0 0 0 .37 1.464l-6.218.015a.94.94 0 0 1-.875-.445.97.97 0 0 1-.094-.838l.817-2.345a.5.5 0 0 1-.193-.079c-.2-.154 1.308-4.3 1.522-4.753q.069-.566.538-.611L3.149.842c.083-.26.328-.825.694-.827Z"/><g transform="translate(6.474)"><path fill="#fc5426" d="m41.003 2.2.258.2q-.907 2.554-1.817 5.106l-.389.162-.985 2.852a.91.91 0 0 1-.911.659l-36.393.008c-.894-.154-.811-.738-.7-1.459L3.271.5A1 1 0 0 1 4.14 0h36.286a.93.93 0 0 1 .857.509 1.07 1.07 0 0 1-.019.919Z"/><path fill="#fefefd" d="m31.331 6.742-27.727.01a1.1 1.1 0 0 1-1.015-1.214 1.154 1.154 0 0 1 1.233-1.11h27.224a1.15 1.15 0 0 1 1.216.967c.077.433-.137 1.347-.931 1.347"/></g></g></g></g><g transform="translate(.318 22.337)"><path fill="#b4acce" d="M76.871.22v44.672h-2.449l-.312-.148v-37.8l.312-.193-.312-.1q0-3.125-.006-6.249l.312-.183 2.455.008ZM8.241.229l-.137.312H4.94q0 22.079.017 44.164l-.312.193H2.17V.208C1.397.183.588.449-.003.102l7.913-.1c.133 0 .279-.008.326.229Z"/><path fill="#98e5fb" d="m8.241.229.624-.017.312.143v8.7l-.312.185a4.3 4.3 0 0 1-.832.137q-.172 3.992-.081 8.118.727-.006.9.372l.312.106.031 14-.31.189a1.88 1.88 0 0 1-.7 1.012l-.212.414a51 51 0 0 0-.133 6.37l-.31.229c.121.015.3.054.31.139.037.48.06 4.131-.017 4.333-.046.118-.189.175-.312.225H4.649L4.624.222l3.622.006Z"/><path fill="#c7eefd" d="m45.565.21.312.148v44.341l-.312.193h-3.089c-.123-.015-.3-.054-.312-.139a27 27 0 0 1 0-3.6q-.15-.773.31-.988l-.312-.181.012-5.622c-.2-1.931-1.57-2.22-3.256-2.062l-.2-.308-.366-.112-1.385-4.121a5.1 5.1 0 0 0-3.266-3.173l-.225-.385-.312-.108V.393l.312-.189h12.093Zm-14.428 0 .312.108v23.565l-.312.191-.106.312-11.794.077-.191-.31-.312-.108V.401l.31-.191h12.1ZM16.706.212l.312.108q-.022 23.682-.023 23.68l-.312.189-.216.372a4.58 4.58 0 0 0-3.156 2.62q-.861 2.567-1.919 5.044a21 21 0 0 0-2.225.164l-.281-.218-.033-14.3c.079-.491.956-.462 1.106-.029l.175-.314 3.225-.1q.1-3.923-.054-7.732-1.7-.041-3.426-.075a1.7 1.7 0 0 0-1.015-.378V.212z"/><path fill="#98e5fb" d="M33.472.21v24l.289.177c.094.081.162 2.3-.291 2.308l.314.43.019 2.723-.31.22.208.859q.268.836-.235 1.054l.312.143v7.8l-.312.185c.123.015.3.054.312.141a34 34 0 0 1 0 3.823q.143.689-.312.83h-2.337c-.123-.015-.3-.056-.312-.143a28 28 0 0 1 0-3.632c-.1-.518 0-.85.312-.994-.123-.012-.308-.056-.312-.143-.094-2.152-.116-4.817 0-6.958q-.157-.847.312-1.05c-.478-.058-.466-1.139-.012-1.245l-.31-.316a17 17 0 0 1 .008-2.006.53.53 0 0 1 .312-.216c-.426.114-.38-1.43-.314-1.563a.53.53 0 0 1 .31-.21c-.468.133-.364-2.015-.312-2.125a.53.53 0 0 1 .312-.216V.21h2.337Z"/><path fill="#b4acce" d="M47.9.214c.121 0 .308.029.312.1a54 54 0 0 1 0 5.765q.123.57-.31.682l.312.148v37.786l-.312.193h-2.335V.206h2.335ZM62.359.21c.121 0 .308.029.312.1a54 54 0 0 1 .01 5.765q.124.57-.31.682l-.019 13.362.254.108.042 8.773-.31.189.312.106v15.4l-.312.187h-2.279q-.15-7.743-.094-15.628l-.249-.11v-8.88l.243-.079q.075-6.733-.006-13.428c-.121 0-.306-.033-.31-.11a51 51 0 0 1 .083-5.509q-.137-.77.324-.927l2.3-.006Z"/><path fill="#98e5fb" d="M19.042.21v23.95q.486.215.293 1.143.15.839-.331 1.062.118 6.845.067 13.74c.112.01.21.031.249.091a42 42 0 0 1 .029 4.478l-.31.229h-2.334c-.123-.012-.306-.056-.31-.141a33 33 0 0 1 .046-4.617.36.36 0 0 1 .256-.027l-.017-15.921L16.703.22h2.334Z"/><path fill="#554e6f" d="m74.413.212.006 6.536-.108.312-11.757.01-.189-.312-.01-6.551h12.058ZM60.054.214l-.1 6.545-.106.312h-6.432l-.183-.31-.31-.11.123-6.26.314-.177h6.692Z"/><path fill="#433f5c" d="m53.362.212-.129 6.549c0 .121-.029.306-.1.312a36 36 0 0 1-4.7 0c-.293.039-.437 0-.526-.312V.21h5.462Z"/><path fill="#c7eefd" d="M53.235 6.761h6.719q.1 6.817-.017 13.667a29 29 0 0 1-3.168.1l-.312.173q-.234 3.907-.081 7.871l.173.2a21 21 0 0 0 3.285.114l.135.212q.072 7.927-.062 15.788h-12V6.767h5.328Zm21.184-.013v38.143H62.334v-15.7l.173-.312 3.141-.029a.474.474 0 0 0 .328-.482l-.037-7.549-.168-.216a29 29 0 0 0-3.291-.1l-.129-.22.019-13.52 12.054-.012Z"/><g transform="translate(7.619 9.231)"><path fill="#fc5426" d="M1.246.012a39 39 0 0 0 4.21.1.558.558 0 0 1 .64.538l-.044 7.89-3.709.073q-.549-.025-.482-.8l.073-7.2A3.4 3.4 0 0 0 .61.47L.41.152a1.35 1.35 0 0 1 .832-.137Z"/><path fill="#ee4424" d="M.412.15 2.25.21l-.083 7.283a2.5 2.5 0 0 0 .175 1.119l-1.106.029c-.312.008-.977.083-1.208-.237L.001.504a.4.4 0 0 1 .414-.36Z"/></g><use fill="#cac3e4" href="#a" transform="translate(56.027 6.761)"/><g transform="translate(7.509 24.077)"><path fill="#433f5c" d="M3.233 16.122c.121.015.3.046.312.137a30 30 0 0 1 .035 4.339l-.31.229H.894L0 20.819l.019-4.7c.015-.121.052-.3.139-.312a24 24 0 0 1 2.852 0 .5.5 0 0 1 .222.312Z"/><path fill="#c7eefd" d="m11.626 7.898.312.143.037 7.7h11.466l.187.312v4.767h-12.1l-.031-4.842V2.286c.079-.135.123-.11.133.056.121.033.3.081.312.181a34.4 34.4 0 0 1 0 5.152l-.312.227ZM9.198 20.821H5.589c-.123-.015-.3-.054-.312-.141a32 32 0 0 1-.01-4.4l.31-.229.179-.312 3.069-.037V8.083l.31-.185c-.123-.033-.3-.085-.312-.181-.056-.58-.108-4.464-.006-4.784l.312-.335-.308-.183A15 15 0 0 1 8.86.328a.7.7 0 0 1 .316-.214l.071 15.948zm20.158-4.801c.233 0 .272.05.083.141q.059 2.358-.073 4.651h-3.4v-4.8c.012-.121.046-.3.133-.312a26 26 0 0 1 3.039 0l.22.312Z"/><path fill="#433f5c" d="M32.684 20.823h-3.162a44 44 0 0 1-.075-4.738 19 19 0 0 1 3.256.008.4.4 0 0 1 .289.168 35 35 0 0 1 0 4.335l-.312.225Z"/><path fill="#554e6f" d="M34.964 16.092v4.73h-2.285v-4.7l-3.162.023v4.676l-.154-.008-.01-4.794a.5.5 0 0 1 .015-.208c.089-.258 4.867-.11 5.414-.037l.179.314Zm-29.386-.04.01 4.767H3.27l-.037-4.7c-.05-.116-.008-.139.112-.081l.175-.31c.41-.085 1.932-.115 2.058.324"/><path fill="#fbdc66" d="m9.174.112-.046 2.486a1.46 1.46 0 0 1-.719.809l-.43.565-1.318 3.732-.366.11q-.012.5-1.1.449a1.98 1.98 0 0 0-1.57 1.971l.029 5.622-.31.185c-.023.025-.075.081-.112.081H.021L0 10.388a2.48 2.48 0 0 1 1.378-2.3 5.5 5.5 0 0 1 2.353-.173l1.728-4.788A4.91 4.91 0 0 1 9.174.106Zm22.029 7.807-2.466-.015-.383-.16a19 19 0 0 0-1.69-4.252 1.67 1.67 0 0 1-.7-.881V.127a5.4 5.4 0 0 1 3.84 3.607l1.4 4.183ZM23.626 0v2.341l-.143.312H11.817l-.187-.312a.18.18 0 0 0-.133-.056l.037-2.2L23.625.006Z"/><path fill="#fefefe" d="M23.628 2.339v1.773l-.314.252a3.733 3.733 0 0 0-4.372 2.965l-.343.21c-.162.306-.372.374-.744.374l-6.233-.017V2.337h12Z"/><path fill="#554e6f" d="m23.632 4.115-.012 2.538-.279.214a1.41 1.41 0 0 0-2.114.9l-.32.127-1.83.025c-.291 0-.464-.127-.472-.378a4.037 4.037 0 0 1 5.027-3.426"/><path fill="#fefefe" d="m28.74 7.904-2.148-.006-.32-.243-.285-1.667-.025-3.374a3 3 0 0 1 1.6 1.8Z"/><path fill="#fdfdfd" d="m23.619 6.653.012 1.245h-2.726a1.61 1.61 0 0 1 .944-1.376 1.93 1.93 0 0 1 1.77.131"/><path fill="#585272" d="M26.59 7.896h-.632l.027-1.911a3.5 3.5 0 0 1 .605 1.911"/><path fill="#fefefe" d="m9.127 2.599.006 5.3-2.842-.083 1.17-3.451a2.75 2.75 0 0 1 1.666-1.766"/><g transform="translate(3.314 7.531)"><path fill="#feed99" d="M23.276.365c-.114-.453 1.767-.372 1.933-.306l.214.312q.3-.5 1.347-.3.836-.159 1.118.318l1.277-.023a2.4 2.4 0 0 1 2.5 2.489l-.012 5.7-5.607-.069h-3.4V.363c0-.455.526-.439.632 0ZM5.819.367v8.148l-3.557.006-2.233-.01L0 2.698A2.32 2.32 0 0 1 2.4.372l.578-.089.183-.281q1.22-.008 2.449.046l.208.318Z"/><g transform="translate(8.31 .008)"><path fill="#feed99" d="M9.283.356A.33.33 0 0 1 9.329.19a7.6 7.6 0 0 1 2.462-.141l.216.312v8.152h-12V.36L.113.048Q3.571.104 6.984 0a11.7 11.7 0 0 0 2.091.046l.212.308Z"/><path fill="#fefefe" d="M8.622 5.904H3.144a1.158 1.158 0 0 1 .123-2.312l5.143-.01a1.175 1.175 0 0 1 1.268 1.062 1.137 1.137 0 0 1-1.056 1.26"/></g></g></g></g></svg>