<svg xmlns="http://www.w3.org/2000/svg" width="81.532" height="79.032" viewBox="0 0 81.532 79.032"><g fill="#61ccee" opacity=".5" transform="translate(1.845 1.845)"><g transform="translate(0 70.567)"><path d="m3.747 4.137.177-.312h2.091l.222.312c.064-.476 1.143-.451 1.245 0l.177-.312a15 15 0 0 1 2.091 0 .5.5 0 0 1 .22.312l.1-.312h5.943l.183.312.177-.312a15 15 0 0 1 2.091 0 .5.5 0 0 1 .22.312c0-.121.029-.308.1-.312a45 45 0 0 1 5.59 0c.3-.037.441 0 .53.312q.3-.505 1.36-.314.868-.169 1.131.31l.148-.312h48.216l.193.312 2.782.025c.464 0 .723.478.954.753v.933c-.239.229-.457.775-.992.775H.996c-.717 0-1.017-.846-1-1.3a1.12 1.12 0 0 1 .969-1.15l2.775-.031Z"/><path d="m45.923.326.692-.312h5.944A2.55 2.55 0 0 1 53.7.326q.084-.44.792-.239h6.825q.617-.184.788.231l.7-.3 6.746.071.183.314.177-.312a14.6 14.6 0 0 1 2.091 0 .53.53 0 0 1 .222.312h3.736v3.738H27.406c-.121-.012-.3-.05-.312-.135a29 29 0 0 1 0-3.38.5.5 0 0 1 .312-.22h2.491q.3-.505 1.36-.312.868-.167 1.131.31c.015-.121.046-.3.133-.312a9 9 0 0 1 1.553 0c.437-.089.7.012.807.31l.283-.308A8.2 8.2 0 0 1 37.532.3l.166-.289q4 .2 8.017.033l.216.293Z"/></g><g transform="translate(1.238 6.164)"><g transform="translate(0 7.158)"><path d="m77.226 2.861-.01 6.222a7.3 7.3 0 0 1-2.53 3.035c-.2.871-1.665 1.054-2.482 1.017-2.085-.094-3.6-1.655-4.62-3.349-2.5 4.368-7.145 4.48-9.634.027a8.4 8.4 0 0 1-2.711 2.7l-.435-.137V2.927l.106-.312 22.131-.073.191.31ZM2.484.36c.017-.121.048-.3.135-.31a19 19 0 0 1 2.168.012.52.52 0 0 1 .214.312l.106-.312L22.238 0l.191.31v2.555l-.106.312H3.78c-.58.1-.811.212-.948.819l-.015 7.886-.312.185A7.17 7.17 0 0 1 0 9.073l.071-6.676A2.42 2.42 0 0 1 2.483.358Z"/><path d="M74.725.36a2.533 2.533 0 0 1 2.5 2.5l-22.428.073V.375L74.722.36ZM22.43 2.865l-.006 9.44a6.5 6.5 0 0 1-3.1-3.183 8.9 8.9 0 0 1-2.193 2.744 4.07 4.07 0 0 1-5.343-.081 8.35 8.35 0 0 1-2.11-2.657c-1.094 1.975-2.607 3.6-4.667 3.684a4 4 0 0 1-2.5-.748l.01-7.958a1.22 1.22 0 0 1 1.254-1.243h18.657Z"/></g><g transform="translate(2.484)"><path d="m72.233 2.553.008 4.965-.108.312-19.628.015-.191-.312.006-4.9.106-.312 19.613-.073.191.31ZM19.948 0l-.008 2.5-.108.312-17 .067v4.424l-.31.227-2.518-.015L.031.06Z"/><path d="m72.233 2.553-19.91.075-.008-2.5L72.223.066Zm-52.293-.05.006 4.967-17.428.062V2.551Z"/></g></g><g transform="translate(3.745 22.262)"><path d="m19.904 6.057.208.052q.186 1.073.942 1.189 15.15.062 30.264-.042l.557-.48q.059-.521.43-.62l.266-.405a10.3 10.3 0 0 0 2.836-1.711 6.82 6.82 0 0 0 9.644.006c1.933 1.574 4.225 2.534 6.709 1.715l.449.17v42.771c-.012.121-.05.3-.135.312a25.5 25.5 0 0 1-3.378 0l-.22-.312-.312-.11v-37.2c-.112-.711-.264-.859-.969-.967H27.428c-.655.1-.842.222-.967.9v37.193l-.312.193-.177.312a18 18 0 0 1-2.091 0 .5.5 0 0 1-.22-.312l-.312-.11V11.325c-.114-.667-.322-.78-.95-.894H4.938c-.665.131-.786.322-.886.965v37.12l-.312.193c-.06.476-1.141.459-1.245 0l-.312-.15V6.582l.312-.193a2.8 2.8 0 0 1 1.607-.59 10 10 0 0 0 3.062-1.757 6.84 6.84 0 0 0 9.634 0 9.3 9.3 0 0 0 2.869 1.647z"/><path d="M2.497 6.386v42.32l-.181.312H.225l-.22-.312V5.933a1.6 1.6 0 0 1 1.372.05 1.3 1.3 0 0 1 1.12.403m69.679-3.207.033 2.753a6.67 6.67 0 0 1-7.152-1.634 6.645 6.645 0 0 1-9.649-.006 6.6 6.6 0 0 1-3.1 1.863l-.01-2.713A7 7 0 0 0 55.406.186a8.9 8.9 0 0 0 2.1 2.674 4.09 4.09 0 0 0 5.264.135A8.6 8.6 0 0 0 65.051.182a8.8 8.8 0 0 0 2.108 2.68 4.1 4.1 0 0 0 5.017.318Z"/><path d="M2.492 48.709c.121.033.3.083.312.181a26 26 0 0 1 0 3.322l-.312.227H.001v-3.734ZM2.5 3.875c.119.017.293.046.312.133a8 8 0 0 1 0 1.42q.15.761-.312.956a7 7 0 0 1-2.491-.453L0 3.127a1.68 1.68 0 0 1 1.343.306 1.65 1.65 0 0 1 1.156.443Z"/><path d="m19.917 3.37-.012 2.686a5.9 5.9 0 0 1-3.1-1.761 6.67 6.67 0 0 1-9.642 0 6.95 6.95 0 0 1-4.667 2.094V3.878l.27-.333C4.585 3.312 5.853 1.828 6.731.329c.407-.4.532-.489.9.037 2.366 4.424 6.611 4.116 8.9-.212.337-.279.457-.156.734.181a6.23 6.23 0 0 0 2.507 2.628l.154.405Z"/><g transform="translate(26.145 10.114)"><path d="M42.33 38.588h-2.491l-.312-.108V5.162l.31-.191-.312-.175-.012-1.99Q21.22 2.79 2.921 2.8l-.116.116v35.48l-.314.193H0V1.269a1.213 1.213 0 0 1 1.272-1.27h39.781a1.214 1.214 0 0 1 1.272 1.27v37.32Z"/><path d="M39.839 4.971v33.621l-7.624-.081-.025-.212q1.64-2.354-2.738-1.89l-.214-.312c-.121-.033-.3-.085-.31-.183a28 28 0 0 1 .019-3.324l.312-.225.106-.312h6.347l-4.237-14.628 1.655-4.16a3.32 3.32 0 0 0-2.464-4.135l-.168-.347c-.476-.067-.451-1.148 0-1.252q-.452-.069-.339-1h-4.306l-.012 1.931-.31.22-.162.358a3.463 3.463 0 0 0-2.432 4.3q.867 2.068 1.624 4.164L20.33 32.059h1.892l.214.312.225-.312q1.937 0 3.875-.008l.227.31.312.179.019 3.324-.31.229-.133.312h-2.432a.945.945 0 0 0-.4 1.771l-.012.335h-7.775l-.027-.212q1.64-2.364-2.738-1.9l-.214-.312-.312-.146.021-9.624.312-.187.135-.312h3.279l.008-8.276 1.058-5.222a3.11 3.11 0 0 0-3.012-3.254l-.222-.31c-.476-.058-.462-1.133-.006-1.237q-.452-.069-.339-1h-4.3l-.017 1.906-.312.216-.212.324a3.232 3.232 0 0 0-2.936 3.888l.958 4.536v8.326a8 8 0 0 0 1.958.1l.22.312c.062-.476 1.141-.455 1.245 0l.312.143q.009 4.809.021 9.624l-.312.189-.133.312H8.035a.927.927 0 0 0-.41 1.738v.333a10.8 10.8 0 0 1-2.651.1l-.312-.11v-33.3a.506.506 0 0 1 .42-.505l34.555-.006.191.312Z"/><path d="m39.843 4.97-34.856.006v33.607H2.494v-36.1h37.328Z"/><g transform="translate(5.816 6.22)"><path d="M4.791 29.877c.071-.449 1.632-.4 2.021-.312.233-.042.353.071.424.312h2.518a1.22 1.22 0 0 1 1.216 1.027 1.256 1.256 0 0 1-.753 1.391l-.775.071-6.859.008-.765-.116a1.176 1.176 0 0 1-.763-1.353 1.215 1.215 0 0 1 1.218-1.027Zm2.468-9.958-.177.312H4.991l-.22-.31H3.526l-.312-.143v-8.529l-.952-4.482a3.7 3.7 0 0 1 .035-1.672c.146-.58.588-1.757 1.262-1.586l.358.118a2.21 2.21 0 0 0 2.079 1.607c0 .254.11.312.322.289l.17-.345a2.38 2.38 0 0 0 1.7-2.4l.316-.229a3.414 3.414 0 0 1 3.48 4.056l-.994 4.757v8.557H7.254Z"/><path d="M3.529 2.432c.466-.015.48.977.029 1.073a3.48 3.48 0 0 0-.992 3.2l.956 4.513v8.7l-2.489-.006v-8.694L.077 6.705A3.577 3.577 0 0 1 3.53 2.433Zm3.73 17.487-.023 9.958H4.791l-.023-9.958Z"/><g transform="translate(3.525)"><path d="m4.973 1.31-.185.308-1.99-.048q-.016 2.064-.008 3.952A2.524 2.524 0 0 1 .029 3.505L0 2.432V0h4.958l.01 1.31Z"/><path d="m4.973 1.309.006 1.237A2.69 2.69 0 0 1 2.79 5.521c-.01-.029-.168-.012-.222-.052a.5.5 0 0 1-.094-.322l.01-3.9 2.484.06Z"/></g></g><g transform="translate(19.921 6.222)"><path d="M6.871 29.875c.071-.449 1.632-.4 2.021-.312.233-.042.353.071.424.312h2.518a1.22 1.22 0 0 1 1.216 1.027 1.24 1.24 0 0 1-.755 1.383l-.773.081H4.666l-.775-.073a1.25 1.25 0 0 1-.755-1.391 1.21 1.21 0 0 1 1.218-1.027Zm2.468-3.732-.177.312H7.071l-.22-.31-4.326.008-.268-.189 4.291-14.73a30.5 30.5 0 0 1-1.761-4.572c-.064-.863.019-2.518.981-2.674a2.03 2.03 0 0 1 1.017.813l.572.32a.76.76 0 0 1 .74.443l.2-.32a2.27 2.27 0 0 0 1.992-2.445l.3-.237a3.63 3.63 0 0 1 2.807 4.923l-1.53 3.73 4.353 14.933H9.352Z"/><path d="M5.62 2.457c.43.112.453 1.27.15 1.526a3.73 3.73 0 0 0-.424 3.586l1.5 3.651-4.32 14.929-2.522-.006 4.353-14.925-1.5-3.653a3.778 3.778 0 0 1 2.763-5.11Z"/><g transform="translate(5.606)"><path d="m4.976 1.308-.185.308-1.992-.048V5.34l-.312.225A2.56 2.56 0 0 1 .159 3.991a3.6 3.6 0 0 1-.15-1.526L.003.003h4.963l.01 1.312Z"/><path d="M4.977 1.307v1.252a2.583 2.583 0 0 1-2.484 3V1.247l2.489.06Z"/></g><path d="m9.339 26.143-.023 3.732H6.871l-.023-3.732Z"/></g></g><g transform="translate(2.493 10.117)"><path d="M3.736 36.097H9.96v6.231H3.736zm8.715 0h6.224v6.231h-6.224z"/><path d="M21.166 38.588v3.736h-2.491l-.312-.1v-5.73q-2.71-.153-5.518-.085-.15 2.822-.085 5.736l-.312.183h-2.49l-.312-.1v-5.73q-2.71-.153-5.518-.085-.15 2.822-.085 5.736l-.312.183h-2.49c-.121-.015-.3-.048-.312-.135a28 28 0 0 1 0-3.383l.312-.22V1.268A1.216 1.216 0 0 1 2.499 0h17.405a1.22 1.22 0 0 1 1.256 1.268V38.59Z"/><g transform="translate(0 2.491)"><path d="M1.245 36.097v3.738H0v-3.73Z"/><g transform="translate(3.734)"><path d="m14.933 2.549-.146.31-11.875-.064a7 7 0 0 0-.152 1.96l-.316.214-2.443.008V0h14.932v2.547ZM6.231 13.676 0 13.693V7.462h6.227Zm8.714 0-6.231.017V7.462h6.231Zm-8.714 8.715L0 22.406v-6.229h6.227Zm8.714 0-6.231.015v-6.229h6.227Zm-8.714 8.715L0 31.121v-6.229h6.227Zm8.714 0-6.231.015v-6.229h6.227Z"/><path d="M14.934 2.549v2.426L2.443 4.969l.058-2.489Z"/></g></g></g></g><g transform="translate(23.27)"><path d="M32.765 6.289c.118.015.281.04.312.133a18 18 0 0 1 .005 2.156l-.31.216c.121.015.3.054.312.141a30 30 0 0 1-.002 4.535l-.312.229c.121.015.3.05.312.137a13 13 0 0 1 0 2.2l-.312.218c.123.012.308.056.312.143.1 2.439.06 5.145 0 7.6a2.18 2.18 0 0 1-.31 1.7l.312.173.008 2.324-.31.216a1.33 1.33 0 0 1-1.437 1.472l-29.829-.021c-.852 0-1.139-.884-1.137-1.551l-.31-.179a18 18 0 0 1 .01-2.287.52.52 0 0 1 .312-.22l-.309-.333q0-4.456.006-8.915l.312-.185c-.121-.015-.3-.048-.312-.135a17 17 0 0 1 0-2.2.52.52 0 0 1 .312-.218c-.121-.015-.3-.05-.312-.139A30.6 30.6 0 0 1 .082 8.9l.312-.225c-.121-.017-.3-.048-.31-.135A19 19 0 0 1 .09 6.384a.52.52 0 0 1 .312-.214L.396 1.251A1.188 1.188 0 0 1 1.664 0h29.838a1.192 1.192 0 0 1 1.27 1.243l-.006 5.044Z"/><path d="m30.275 5.067-24.9-.087-.037 22.411-2.451-.015V2.491h27.376Z"/><g transform="translate(5.025 4.669)"><path d="M25.249.397v22.33H.307l-.312-.11L.032.507a.506.506 0 0 1 .422-.5l24.6.085.191.312Z"/><g transform="translate(1.596 1.543)"><path d="m7.466 2.506.32.179a2.185 2.185 0 0 0 4.351 0l.32-.179c.012-.123.054-.306.139-.312 1.046-.06 5.663-.108 6.314.214l.561.511a6.2 6.2 0 0 1 .42 3.322h-3.707v11.206l-9.967-.015-.312-.146.008-10.628a7 7 0 0 0-1.921-.1l-.218-.31-1.291-.031c-.647-.472.077-1.823.493-2.378a4.16 4.16 0 0 1 2.827-1.62c.418-.075 1.549-.181 1.659.283Z"/><path d="M6.218 17.434H3.732l.046-11.179 2.449-.006ZM7.464.028q.493.234.312 1.2.183.958-.31 1.276H6.375a3.79 3.79 0 0 0-3.888 3.721L.011 6.24l-.01-1.258A4.93 4.93 0 0 1 4.51.049C5.545-.045 6.51.03 7.462.03Zm12.005 2.888a6 6 0 0 0-2.193-.418h-4.821l-.312-.175a15 15 0 0 1 0-2.081.5.5 0 0 1 .312-.22l2.946.019a4.97 4.97 0 0 1 4.067 2.873Z"/><path d="M12.458.028v2.48c-.017.121-.054.3-.141.312a30.4 30.4 0 0 1-4.624 0l-.227-.312V.028Z"/><path d="M12.456 2.506a2.495 2.495 0 0 1-4.99 0z"/></g></g></g></g><g transform="translate(0 70.567)"><path fill="#6d555c" d="m3.747 4.137.177-.312h2.091l.222.312c.064-.476 1.143-.451 1.245 0l.177-.312a15 15 0 0 1 2.091 0 .5.5 0 0 1 .22.312l.1-.312h5.943l.183.312.177-.312a15 15 0 0 1 2.091 0 .5.5 0 0 1 .22.312c0-.121.029-.308.1-.312a45 45 0 0 1 5.59 0c.3-.037.441 0 .53.312q.3-.505 1.36-.314.868-.169 1.131.31l.148-.312h48.216l.193.312 2.782.025c.464 0 .723.478.954.753v.933c-.239.229-.457.775-.992.775H.996c-.717 0-1.017-.846-1-1.3a1.12 1.12 0 0 1 .969-1.15l2.775-.031Z"/><path fill="#a36b4f" d="m45.923.326.692-.312h5.944A2.55 2.55 0 0 1 53.7.326q.084-.44.792-.239h6.825q.617-.184.788.231l.7-.3 6.746.071.183.314.177-.312a14.6 14.6 0 0 1 2.091 0 .53.53 0 0 1 .222.312h3.736v3.738H27.406c-.121-.012-.3-.05-.312-.135a29 29 0 0 1 0-3.38.5.5 0 0 1 .312-.22h2.491q.3-.505 1.36-.312.868-.167 1.131.31c.015-.121.046-.3.133-.312a9 9 0 0 1 1.553 0c.437-.089.7.012.807.31l.283-.308A8.2 8.2 0 0 1 37.532.3l.166-.289q4 .2 8.017.033l.216.293Z"/></g><g transform="translate(1.238 6.164)"><g transform="translate(0 7.158)"><path fill="#ef4f6b" d="m77.226 2.861-.01 6.222a7.3 7.3 0 0 1-2.53 3.035c-.2.871-1.665 1.054-2.482 1.017-2.085-.094-3.6-1.655-4.62-3.349-2.5 4.368-7.145 4.48-9.634.027a8.4 8.4 0 0 1-2.711 2.7l-.435-.137V2.927l.106-.312 22.131-.073.191.31Z"/><path fill="#fe778a" d="M2.484.36c.017-.121.048-.3.135-.31a19 19 0 0 1 2.168.012.52.52 0 0 1 .214.312l.106-.312L22.238 0l.191.31v2.555l-.106.312H3.78c-.58.1-.811.212-.948.819l-.015 7.886-.312.185A7.17 7.17 0 0 1 0 9.073l.071-6.676A2.42 2.42 0 0 1 2.483.358Zm72.241 0a2.533 2.533 0 0 1 2.5 2.5l-22.428.073V.375L74.722.36Z"/><path fill="#ef4f6b" d="m22.43 2.865-.006 9.44a6.5 6.5 0 0 1-3.1-3.183 8.9 8.9 0 0 1-2.193 2.744 4.07 4.07 0 0 1-5.343-.081 8.35 8.35 0 0 1-2.11-2.657c-1.094 1.975-2.607 3.6-4.667 3.684a4 4 0 0 1-2.5-.748l.01-7.958a1.22 1.22 0 0 1 1.254-1.243h18.657Z"/></g><g transform="translate(2.484)"><path fill="#fdecb1" d="m72.233 2.553.008 4.965-.108.312-19.628.015-.191-.312.006-4.9.106-.312 19.613-.073.191.31Z"/><path fill="#fef9d1" d="m19.948 0-.008 2.5-.108.312-17 .067v4.424l-.31.227-2.518-.015L.031.06Zm52.285 2.553-19.91.075-.008-2.5L72.223.066Z"/><path fill="#fdecb1" d="m19.94 2.503.006 4.967-17.428.062V2.551Z"/></g></g><g transform="translate(3.745 22.262)"><path fill="#c8bfc2" d="m19.904 6.057.208.052q.186 1.073.942 1.189 15.15.062 30.264-.042l.557-.48q.059-.521.43-.62l.266-.405a10.3 10.3 0 0 0 2.836-1.711 6.82 6.82 0 0 0 9.644.006c1.933 1.574 4.225 2.534 6.709 1.715l.449.17v42.771c-.012.121-.05.3-.135.312a25.5 25.5 0 0 1-3.378 0l-.22-.312-.312-.11v-37.2c-.112-.711-.264-.859-.969-.967H27.428c-.655.1-.842.222-.967.9v37.193l-.312.193-.177.312a18 18 0 0 1-2.091 0 .5.5 0 0 1-.22-.312l-.312-.11V11.325c-.114-.667-.322-.78-.95-.894H4.938c-.665.131-.786.322-.886.965v37.12l-.312.193c-.06.476-1.141.459-1.245 0l-.312-.15V6.582l.312-.193a2.8 2.8 0 0 1 1.607-.59 10 10 0 0 0 3.062-1.757 6.84 6.84 0 0 0 9.634 0 9.3 9.3 0 0 0 2.869 1.647z"/><path fill="#d7d1d3" d="M2.497 6.386v42.32l-.181.312H.225l-.22-.312V5.933a1.6 1.6 0 0 1 1.372.05 1.3 1.3 0 0 1 1.12.403"/><path fill="#b9aeb2" d="m72.176 3.179.033 2.753a6.67 6.67 0 0 1-7.152-1.634 6.645 6.645 0 0 1-9.649-.006 6.6 6.6 0 0 1-3.1 1.863l-.01-2.713A7 7 0 0 0 55.406.186a8.9 8.9 0 0 0 2.1 2.674 4.09 4.09 0 0 0 5.264.135A8.6 8.6 0 0 0 65.051.182a8.8 8.8 0 0 0 2.108 2.68 4.1 4.1 0 0 0 5.017.318Z"/><path fill="#b07f68" d="M2.492 48.709c.121.033.3.083.312.181a26 26 0 0 1 0 3.322l-.312.227H.001v-3.734Z"/><path fill="#c8bfc2" d="M2.5 3.875c.119.017.293.046.312.133a8 8 0 0 1 0 1.42q.15.761-.312.956a7 7 0 0 1-2.491-.453L0 3.127a1.68 1.68 0 0 1 1.343.306 1.65 1.65 0 0 1 1.156.443Z"/><path fill="#b9aeb2" d="m19.917 3.37-.012 2.686a5.9 5.9 0 0 1-3.1-1.761 6.67 6.67 0 0 1-9.642 0 6.95 6.95 0 0 1-4.667 2.094V3.878l.27-.333C4.585 3.312 5.853 1.828 6.731.329c.407-.4.532-.489.9.037 2.366 4.424 6.611 4.116 8.9-.212.337-.279.457-.156.734.181a6.23 6.23 0 0 0 2.507 2.628l.154.405Z"/><g transform="translate(26.145 10.114)"><path fill="#f7d170" d="M42.33 38.588h-2.491l-.312-.108V5.162l.31-.191-.312-.175-.012-1.99Q21.22 2.79 2.921 2.8l-.116.116v35.48l-.314.193H0V1.269a1.213 1.213 0 0 1 1.272-1.27h39.781a1.214 1.214 0 0 1 1.272 1.27v37.32Z"/><path fill="#fdecb1" d="M39.839 4.971v33.621l-7.624-.081-.025-.212q1.64-2.354-2.738-1.89l-.214-.312c-.121-.033-.3-.085-.31-.183a28 28 0 0 1 .019-3.324l.312-.225.106-.312h6.347l-4.237-14.628 1.655-4.16a3.32 3.32 0 0 0-2.464-4.135l-.168-.347c-.476-.067-.451-1.148 0-1.252q-.452-.069-.339-1h-4.306l-.012 1.931-.31.22-.162.358a3.463 3.463 0 0 0-2.432 4.3q.867 2.068 1.624 4.164L20.33 32.059h1.892l.214.312.225-.312q1.937 0 3.875-.008l.227.31.312.179.019 3.324-.31.229-.133.312h-2.432a.945.945 0 0 0-.4 1.771l-.012.335h-7.775l-.027-.212q1.64-2.364-2.738-1.9l-.214-.312-.312-.146.021-9.624.312-.187.135-.312h3.279l.008-8.276 1.058-5.222a3.11 3.11 0 0 0-3.012-3.254l-.222-.31c-.476-.058-.462-1.133-.006-1.237q-.452-.069-.339-1h-4.3l-.017 1.906-.312.216-.212.324a3.232 3.232 0 0 0-2.936 3.888l.958 4.536v8.326a8 8 0 0 0 1.958.1l.22.312c.062-.476 1.141-.455 1.245 0l.312.143q.009 4.809.021 9.624l-.312.189-.133.312H8.035a.927.927 0 0 0-.41 1.738v.333a10.8 10.8 0 0 1-2.651.1l-.312-.11v-33.3a.506.506 0 0 1 .42-.505l34.555-.006.191.312Z"/><path fill="#fbdd90" d="m39.843 4.97-34.856.006v33.607H2.494v-36.1h37.328Z"/><g transform="translate(5.816 6.22)"><path fill="#6d555c" d="M4.791 29.877c.071-.449 1.632-.4 2.021-.312.233-.042.353.071.424.312h2.518a1.22 1.22 0 0 1 1.216 1.027 1.256 1.256 0 0 1-.753 1.391l-.775.071-6.859.008-.765-.116a1.176 1.176 0 0 1-.763-1.353 1.215 1.215 0 0 1 1.218-1.027Z"/><path fill="#c8bfc2" d="m7.259 19.919-.177.312H4.991l-.22-.31H3.526l-.312-.143v-8.529l-.952-4.482a3.7 3.7 0 0 1 .035-1.672c.146-.58.588-1.757 1.262-1.586l.358.118a2.21 2.21 0 0 0 2.079 1.607c0 .254.11.312.322.289l.17-.345a2.38 2.38 0 0 0 1.7-2.4l.316-.229a3.414 3.414 0 0 1 3.48 4.056l-.994 4.757v8.557H7.254Z"/><path fill="#d7d1d3" d="M3.529 2.432c.466-.015.48.977.029 1.073a3.48 3.48 0 0 0-.992 3.2l.956 4.513v8.7l-2.489-.006v-8.694L.077 6.705A3.577 3.577 0 0 1 3.53 2.433Z"/><path fill="#7b636b" d="m7.259 19.919-.023 9.958H4.791l-.023-9.958Z"/><g transform="translate(3.525)"><path fill="#87747c" d="m4.973 1.31-.185.308-1.99-.048q-.016 2.064-.008 3.952A2.524 2.524 0 0 1 .029 3.505L0 2.432V0h4.958l.01 1.31Z"/><path fill="#7b636b" d="m4.973 1.309.006 1.237A2.69 2.69 0 0 1 2.79 5.521c-.01-.029-.168-.012-.222-.052a.5.5 0 0 1-.094-.322l.01-3.9 2.484.06Z"/></g></g><g transform="translate(19.921 6.222)"><path fill="#6d555c" d="M6.871 29.875c.071-.449 1.632-.4 2.021-.312.233-.042.353.071.424.312h2.518a1.22 1.22 0 0 1 1.216 1.027 1.24 1.24 0 0 1-.755 1.383l-.773.081H4.666l-.775-.073a1.25 1.25 0 0 1-.755-1.391 1.21 1.21 0 0 1 1.218-1.027Z"/><path fill="#ef4f6b" d="m9.339 26.143-.177.312H7.071l-.22-.31-4.326.008-.268-.189 4.291-14.73a30.5 30.5 0 0 1-1.761-4.572c-.064-.863.019-2.518.981-2.674a2.03 2.03 0 0 1 1.017.813l.572.32a.76.76 0 0 1 .74.443l.2-.32a2.27 2.27 0 0 0 1.992-2.445l.3-.237a3.63 3.63 0 0 1 2.807 4.923l-1.53 3.73 4.353 14.933H9.352Z"/><path fill="#fe778a" d="M5.62 2.457c.43.112.453 1.27.15 1.526a3.73 3.73 0 0 0-.424 3.586l1.5 3.651-4.32 14.929-2.522-.006 4.353-14.925-1.5-3.653a3.778 3.778 0 0 1 2.763-5.11Z"/><g transform="translate(5.606)"><path fill="#88747c" d="m4.976 1.308-.185.308-1.992-.048V5.34l-.312.225A2.56 2.56 0 0 1 .159 3.991a3.6 3.6 0 0 1-.15-1.526L.003.003h4.963l.01 1.312Z"/><path fill="#7b636b" d="M4.977 1.307v1.252a2.583 2.583 0 0 1-2.484 3V1.247l2.489.06Z"/></g><path fill="#7b636b" d="m9.339 26.143-.023 3.732H6.871l-.023-3.732Z"/></g></g><g transform="translate(2.493 10.117)"><path fill="#fdecb1" d="M3.736 36.097H9.96v6.231H3.736zm8.715 0h6.224v6.231h-6.224z"/><path fill="#f7d170" d="M21.166 38.588v3.736h-2.491l-.312-.1v-5.73q-2.71-.153-5.518-.085-.15 2.822-.085 5.736l-.312.183h-2.49l-.312-.1v-5.73q-2.71-.153-5.518-.085-.15 2.822-.085 5.736l-.312.183h-2.49c-.121-.015-.3-.048-.312-.135a28 28 0 0 1 0-3.383l.312-.22V1.268A1.216 1.216 0 0 1 2.499 0h17.405a1.22 1.22 0 0 1 1.256 1.268V38.59Z"/><g transform="translate(0 2.491)"><path fill="#a36b4f" d="M1.245 36.097v3.738H0v-3.73Z"/><g transform="translate(3.734)"><path fill="#986047" d="m14.933 2.549-.146.31-11.875-.064a7 7 0 0 0-.152 1.96l-.316.214-2.443.008V0h14.932v2.547Z"/><path fill="#fdecb1" d="M6.231 13.676 0 13.693V7.462h6.227Zm8.714 0-6.231.017V7.462h6.231Zm-8.714 8.715L0 22.406v-6.229h6.227Zm8.714 0-6.231.015v-6.229h6.227Zm-8.714 8.715L0 31.121v-6.229h6.227Zm8.714 0-6.231.015v-6.229h6.227Z"/><path fill="#a36b4f" d="M14.934 2.549v2.426L2.443 4.969l.058-2.489Z"/></g></g></g></g><g transform="translate(23.27)"><path fill="#f7d170" d="M32.765 6.289c.118.015.281.04.312.133a18 18 0 0 1 .005 2.156l-.31.216c.121.015.3.054.312.141a30 30 0 0 1-.002 4.535l-.312.229c.121.015.3.05.312.137a13 13 0 0 1 0 2.2l-.312.218c.123.012.308.056.312.143.1 2.439.06 5.145 0 7.6a2.18 2.18 0 0 1-.31 1.7l.312.173.008 2.324-.31.216a1.33 1.33 0 0 1-1.437 1.472l-29.829-.021c-.852 0-1.139-.884-1.137-1.551l-.31-.179a18 18 0 0 1 .01-2.287.52.52 0 0 1 .312-.22l-.309-.333q0-4.456.006-8.915l.312-.185c-.121-.015-.3-.048-.312-.135a17 17 0 0 1 0-2.2.52.52 0 0 1 .312-.218c-.121-.015-.3-.05-.312-.139A30.6 30.6 0 0 1 .082 8.9l.312-.225c-.121-.017-.3-.048-.31-.135A19 19 0 0 1 .09 6.384a.52.52 0 0 1 .312-.214L.396 1.251A1.188 1.188 0 0 1 1.664 0h29.838a1.192 1.192 0 0 1 1.27 1.243l-.006 5.044Z"/><path fill="#edf5f5" d="m30.275 5.067-24.9-.087-.037 22.411-2.451-.015V2.491h27.376Z"/><g transform="translate(5.025 4.669)"><path fill="#f9fbfb" d="M25.249.397v22.33H.307l-.312-.11L.032.507a.506.506 0 0 1 .422-.5l24.6.085.191.312Z"/><g transform="translate(1.596 1.543)"><path fill="#7b636b" d="m7.466 2.506.32.179a2.185 2.185 0 0 0 4.351 0l.32-.179c.012-.123.054-.306.139-.312 1.046-.06 5.663-.108 6.314.214l.561.511a6.2 6.2 0 0 1 .42 3.322h-3.707v11.206l-9.967-.015-.312-.146.008-10.628a7 7 0 0 0-1.921-.1l-.218-.31-1.291-.031c-.647-.472.077-1.823.493-2.378a4.16 4.16 0 0 1 2.827-1.62c.418-.075 1.549-.181 1.659.283Z"/><path fill="#87747c" d="M6.218 17.434H3.732l.046-11.179 2.449-.006ZM7.464.028q.493.234.312 1.2.183.958-.31 1.276H6.375a3.79 3.79 0 0 0-3.888 3.721L.011 6.24l-.01-1.258A4.93 4.93 0 0 1 4.51.049C5.545-.045 6.51.03 7.462.03Z"/><path fill="#88747c" d="M19.469 2.916a6 6 0 0 0-2.193-.418h-4.821l-.312-.175a15 15 0 0 1 0-2.081.5.5 0 0 1 .312-.22l2.946.019a4.97 4.97 0 0 1 4.067 2.873Z"/><path fill="#7b636b" d="M12.458.028v2.48c-.017.121-.054.3-.141.312a30.4 30.4 0 0 1-4.624 0l-.227-.312V.028Z"/><path fill="#6d555c" d="M12.456 2.506a2.495 2.495 0 0 1-4.99 0z"/></g></g></g></svg>