<svg xmlns="http://www.w3.org/2000/svg" width="92.101" height="91" viewBox="0 0 92.101 91"><path fill="#eff9f9" d="M18.565 8.818a2.208 2.208 0 1 1-1.411 2.835 2.18 2.18 0 0 1 1.411-2.835M80.895.121a2.18 2.18 0 0 1 2.757 1.365 2.21 2.21 0 1 1-4.168 1.469A2.17 2.17 0 0 1 80.895.121m-71.031 0a2.18 2.18 0 0 1 2.757 1.365 2.23 2.23 0 0 1-1.348 2.82 2.19 2.19 0 0 1-2.82-1.351A2.17 2.17 0 0 1 9.864.121m78.274 10.147a2.18 2.18 0 0 1 2.757 1.365 2.23 2.23 0 0 1-1.348 2.82 2.208 2.208 0 1 1-1.409-4.185m-85.522 0a2.18 2.18 0 0 1 2.757 1.365 2.23 2.23 0 0 1-1.348 2.82 2.208 2.208 0 1 1-1.409-4.185m69.578-1.45a2.18 2.18 0 0 1 2.757 1.365 2.23 2.23 0 0 1-1.348 2.82 2.208 2.208 0 1 1-1.409-4.185"/><path fill="#ba7557" d="m18.389 39.001.208-.445a4.67 4.67 0 0 0 2.9-3.181l.436-.235.421.228c.733 2.82 3.156 3.563 5.788 3.612l.186-.443a4.72 4.72 0 0 0 2.83-3.132l.433-.225.426.223c.76 2.789 3.137 3.52 5.749 3.582l.126-.421a4 4 0 0 0 2.858-3.24l.044-4.577.366-.259q.076-.234.182 0l.366.157.056 4.689c.516 2.917 3.081 3.5 5.623 3.665l.208-.445a4.67 4.67 0 0 0 2.9-3.183l.436-.235.421.228c.726 2.822 3.156 3.566 5.785 3.616l.186-.443A4.7 4.7 0 0 0 60.15 35.4l.433-.225.426.225c.758 2.791 3.144 3.522 5.754 3.585l.126-.421a3.99 3.99 0 0 0 2.851-3.236l.044-4.577.366-.259q.076-.234.182 0l.366.157.056 4.689c.516 2.914 3.081 3.5 5.623 3.665l.208-.445a4.66 4.66 0 0 0 2.9-3.176l.436-.235.424.23c.736 2.808 3.176 3.515 5.783 3.592-.128-.5.278-.593.533-.148l-.015 45.3-.126.363H58.956l-.223-.363c-.143-.039-.353-.1-.363-.211a39 39 0 0 1 0-5.684l.363-.264.126-.363h21.938c.579-.092.668-.206.765-.779V43.594l-.353-.68q-11.092-.174-22.255-.1l-.22-.363-.126.363H33.591l-.223-.363-.126.363q-11.2-.076-22.349.1l-.353.68v33.232c.09.586.2.678.77.775h21.84l.22.366c.143.039.356.1.363.211a49 49 0 0 1-.128 6.1l-.363.211H8.586l-.223-.361L8 84.002V39.339l.363-.223q-.13-.26.421-.133l.116-.424a4.07 4.07 0 0 0 2.859-3.227l.044-4.58.366-.259q.076-.234.182 0l.366.157.056 4.689c.516 2.919 3.081 3.5 5.623 3.665Z"/><g transform="translate(0 42.44)"><g transform="translate(2.563)"><path fill="#f9647e" d="M56.17.005c.576.148.552 1.978 0 2.174.53 0 .508.605 0 .724l-.126.363H34.186l-.123.131v37.786l.123.131h21.761l.22.363h30.8v2.174l-.174.363H4.885a5.4 5.4 0 0 0-.068 1.907l-.353.264c-.039.14-.1.353-.206.363a29 29 0 0 1-3.931 0l-.259-.363L0 41.675h2.9l.206-.361a17.4 17.4 0 0 1 2.435 0 .6.6 0 0 1 .259.363h25v-6.163c-.576-.148-.552-1.978 0-2.174l-.363-.126V2.396l.363-.223c-.576-.148-.552-1.978 0-2.174h25.372Z"/><path fill="#ea4b6e" d="m86.972 43.854.029 2.537-.174.363H4.691l-.225-.363-.082-2.537z"/></g><path fill="#eff9f9" d="M2.631 46.393H91.18a1.04 1.04 0 0 1 .92 1c.027.351-.2 1.169-.813 1.169H.816c-.615 0-.84-.816-.813-1.169a1.025 1.025 0 0 1 .925-.995h1.7Z"/></g><path fill="#ca8562" d="M8.36 39.109v45.013h-2.9l-.027-45.323a1.69 1.69 0 0 1 1.506.046 2.14 2.14 0 0 1 1.418.259Z"/><g transform="translate(1.113)"><g transform="translate(0 18.832)"><path fill="#c2e9f2" d="M41.475 6.829a.76.76 0 0 1 .753.138 1.37 1.37 0 0 1 1.368-.1l2.556.012a1.6 1.6 0 0 1 1.523.109l.712-.225c-.242-.237-.148-.358.162-.228a18.2 18.2 0 0 0 4.588-2.422l.426.133.806-.2 28.425.034c3.858.416 6.831 2.324 7.027 6.494a3.1 3.1 0 0 1 .031 1.08h-1.425c0 .14-.034.356-.123.361a49 49 0 0 1-5.456 0q-.966.182-1.186-.363l-.2.363h-2.415l-.254-.363c-.039.143-.1.356-.211.363a47 47 0 0 1-5.461 0q-.915.18-1.172-.363c-.017.14-.056.346-.157.363a16.4 16.4 0 0 1-2.319 0 .62.62 0 0 1-.252-.363h-.184c0 .136-.015.312-.121.361-.29.133-5.616.046-6.376 0l-.213-.363-.206.363h-2.43l-.257-.363c0 .14-.034.356-.121.363a48 48 0 0 1-5.425 0q-.962.182-1.179-.363l-.206.363a21 21 0 0 1-2.428 0 .6.6 0 0 1-.257-.363c-.039.143-.1.356-.211.363a42 42 0 0 1-5.664 0q-.773.16-.971-.363c-.017.14-.056.346-.157.363a16 16 0 0 1-2.331 0 .6.6 0 0 1-.254-.363h-.182c0 .14-.034.358-.121.363a47 47 0 0 1-5.974 0c-.341.046-.511 0-.615-.363l-.208.361H30.7l-.257-.363-.123.363h-6.424l-.215-.361-.2.363a20 20 0 0 1-2.4 0 .6.6 0 0 1-.254-.363c-.039.143-.1.356-.211.363a47 47 0 0 1-5.468 0c-.612.119-1 0-1.174-.361-.019.14-.053.341-.157.363a9 9 0 0 1-1.627 0q-.762.151-.944-.363h-.182a.6.6 0 0 1-.015.242c-.1.31-5.817.2-6.478.121l-.213-.363c-.559-.094-.4-1.527-.324-2.026.579-3.609 2.626-5.178 6.134-5.57l25.558-.016.583.235.658.022a50 50 0 0 0 4.512 2.522Z"/><path fill="#d1f9fc" d="m32.533 0 .593.257L35.5 3.505c.281.237.5.559.8.782a2.2 2.2 0 0 1-.995.133l-25.145.007a5.806 5.806 0 0 0-5.817 5.95v1.283l-.2.363H1.709l-.257-.366L0 11.645V6.223A7.53 7.53 0 0 1 6.18.065L32.533.007Zm57.286 10.578a7.224 7.224 0 0 0-7.032-6.134L54.021 4.41a.62.62 0 0 1-.462-.162A16.4 16.4 0 0 0 57.367.014l26.331.045a7.39 7.39 0 0 1 6.129 6.165l-.01 4.352Z"/><g transform="translate(1.445 11.65)"><path fill="#ea4b6e" d="m86.977.004-.051 4.7a4.41 4.41 0 0 1-2.835 3.628l-.533.148c-3.95-.3-3.946-5.2-3.711-8.218l.361-.259h6.762Z"/><path fill="#f9647e" d="m2.905.005.363.2.01 3.924a4.59 4.59 0 0 0 2.791 3.9l.157.455-.421.133a4.44 4.44 0 0 1-2.924-.3A4.97 4.97 0 0 1 0 4.71L.007-.003h2.9Z"/><path fill="#5fbd7d" d="M19.372.005c.14.036.353.1.363.206a32 32 0 0 1 0 4.188l-.363.259a5.04 5.04 0 0 1-3.544 3.861c-3.682-.293-4-5.284-3.667-8.145l.353-.363h6.855Zm57.974 0c.14.036.353.1.363.206a32 32 0 0 1 .012 4.19l-.361.259a5.04 5.04 0 0 1-3.544 3.858 2.17 2.17 0 0 1-1.714-.632c-2.014-1.622-2.188-5.207-1.958-7.618l.361-.259h6.841Z"/><path fill="#ea4b6e" d="M48.368.005c.14.036.353.1.363.206a37 37 0 0 1 0 4.185.58.58 0 0 1-.363.257 5.04 5.04 0 0 1-3.544 3.866 2.18 2.18 0 0 1-1.716-.627c-2.019-1.617-2.181-5.219-1.944-7.627l.361-.259h6.845Z"/><path fill="#5fbd7d" d="M57.986.005c.14.036.353.094.363.206a37 37 0 0 1 .031 4.219.6.6 0 0 1-.361.261 5.06 5.06 0 0 1-3.449 3.805c-4.028-.278-3.909-5.192-3.674-8.232l.363-.257h6.727Z"/><path fill="#ea4b6e" d="M28.996.002c.143.036.353.094.363.206a37 37 0 0 1 .034 4.222.6.6 0 0 1-.361.264 5.07 5.07 0 0 1-3.449 3.8c-3.953-.31-3.953-5.209-3.716-8.23l.361-.259h6.766ZM9.609.005l-.044 4.723c-.024 1.847-1.731 3.256-3.343 3.766A4.96 4.96 0 0 1 2.901 3.82V.008h6.705Zm57.981 0-.044 4.72c-.024 1.861-1.707 3.3-3.345 3.774a2.22 2.22 0 0 1-1.76-.605c-2.159-1.692-2.13-5.112-1.922-7.632l.363-.257h6.71Z"/><path fill="#5fbd7d" d="m38.599.005-.044 4.72c-.024 1.861-1.711 3.3-3.348 3.776a2.24 2.24 0 0 1-1.8-.646c-2.05-1.673-2.128-5.127-1.883-7.584l.363-.259h6.71Z"/><path fill="#f9647e" d="M60.88.004v3.812a4.97 4.97 0 0 0 3.316 4.681 4.894 4.894 0 0 1-6.18-3.81L57.98.001h2.893Z"/><path fill="#78cc96" d="M31.889.009v3.624a5.07 5.07 0 0 0 3.321 4.865 4.9 4.9 0 0 1-6.175-3.805L28.996.002Z"/><path fill="#f9647e" d="m80.211.005.01 4a4.85 4.85 0 0 0 3.34 4.483 4.91 4.91 0 0 1-6.206-3.822L77.343.011h2.868Zm-57.981 0 .01 4a4.87 4.87 0 0 0 3.345 4.5 4.893 4.893 0 0 1-6.211-3.839V.005Z"/><path fill="#78cc96" d="m51.261.007.007 4.355a4.68 4.68 0 0 0 3.3 4.134 4.887 4.887 0 0 1-6.206-3.844V.005h2.893Z"/><path fill="#f9647e" d="m41.523.005.022 3.449a5.27 5.27 0 0 0 3.277 5.064 4.73 4.73 0 0 1-5.984-3.628L38.777.008h2.743Z"/><path fill="#78cc96" d="m70.5.007.034 3.447a5.3 5.3 0 0 0 3.28 5.064 4.73 4.73 0 0 1-5.981-3.628L67.775.008h2.728Zm-57.983 0c.116 3.846-.641 6.7 3.314 8.508A4.73 4.73 0 0 1 9.85 4.886L9.792.004h2.728Z"/></g></g><g transform="translate(24.599)"><path fill="#ca8562" d="M29.913 2.624c1.111-.044 2.225 1.341 2.91 2.215a11.1 11.1 0 0 1 1.728 3.169c.366 1.046.92 2.735.274 3.641l.019 1.278c0 .194-.065.327-.2.349v-.9a10.8 10.8 0 0 0-5.83-7.79 15.76 15.76 0 0 0-14.054 0c-6.761 3.4-7.477 11.491-3.856 17.749a14.6 14.6 0 0 1-2.968-3.5 13.95 13.95 0 0 1-2.1-7.177c-.666-.867-.131-2.544.218-3.573a10.9 10.9 0 0 1 1.677-3.118c.724-.939 1.888-2.377 3.04-2.348 5.192-3.488 13.967-3.488 19.145 0Z"/><path fill="#ba7557" d="M10.766 2.619a10.74 10.74 0 0 0-4.936 9.036A5.82 5.82 0 0 1 3.505.491a5.99 5.99 0 0 1 7.262 2.128Zm24.058 9.03a10.93 10.93 0 0 0-4.911-9.024A5.92 5.92 0 0 1 37.172.491a5.77 5.77 0 0 1 3.336 6.72 5.746 5.746 0 0 1-5.684 4.438"/><path fill="#eff9f9" d="M19.243 17.578c.138.022.344.061.358.162.09.639.094 2.331-.482 2.6-.908-.3-1.832.714-1.038 1.317a26 26 0 0 0 4.456.039c.854-.378 0-1.753-.956-1.343a.54.54 0 0 1-.249-.087c-.274-.215-.612-2.525-.022-2.675l.177-.392a2.15 2.15 0 0 0 1.9-1.675l.385-.184a5.76 5.76 0 0 1 3.149 2.578c1.685 2.893.015 6.093-2.975 7.448-.012.109-.123.174-.162.228l-.712.225a11.7 11.7 0 0 1-5.446-.024 1.55 1.55 0 0 1-.731-.39c-3.123-1.256-4.839-4.575-3.142-7.487a6.8 6.8 0 0 1 3.14-2.723l.375.208a2.1 2.1 0 0 0 1.808 1.774Z"/><path fill="#c7a796" d="M23.785 25.598c-.162.232-.487.167-.712.225.138-.225.533-.476.712-.225"/><path fill="#c6957f" d="M17.629 25.799c-.211-.065-.52-.08-.753-.138l.019-.252a1.8 1.8 0 0 1 .731.39Z"/><path fill="#646495" d="M23.769 15.344a2.514 2.514 0 0 1-2.459 2.251 1.37 1.37 0 0 1-2.067-.017 2.474 2.474 0 0 1-2.348-2.377 3.444 3.444 0 1 1 6.877.145Z"/><g transform="translate(8.366 2.596)"><path fill="#ba7557" d="m26.28 10.679.007.716a16.2 16.2 0 0 1-1.883 4.853 3.95 3.95 0 0 1-1.452 2.527 3.85 3.85 0 0 1-2.358 1.707c-1.283.988-3.57 2.321-5.018 2.29l.145-.472c4.125-2.043 4.207-7.2-.123-9.094l-.2-.46-.356-.266a3.079 3.079 0 0 0-6.153-.128l-.368.249-.179.489c-4.318 2.1-4.314 7.245.015 9.256l.167.467c.261.143.283.191-.019.252a14.9 14.9 0 0 1-5.17-2.544c-.489.036-1.128-.23-.8-.782a12.64 12.64 0 0 1-.249-14.838c3.75-4.916 11.217-5.964 16.8-3.9 4.031 1.494 7.722 5.18 7.194 9.678"/><path fill="#646495" d="M19.582 7.511a1.087 1.087 0 0 1-1.012 1.164 1.067 1.067 0 0 1-1.159-1.08V6.153a1.083 1.083 0 1 1 2.166 0v1.36Zm-13.045 0a1.087 1.087 0 0 1-1.012 1.164 1.067 1.067 0 0 1-1.159-1.08V6.153a1.083 1.083 0 1 1 2.166 0v1.36Z"/></g><path fill="#7575a6" d="m21.311 17.595.174 2.44a1.307 1.307 0 0 1 1.68.656 1.044 1.044 0 0 1-.862 1.426h-3.932a1.038 1.038 0 0 1-.905-1.285c.179-.692.845-1.014 1.721-.794l.053-2.459a8.2 8.2 0 0 0 2.067.017Z"/></g></g><g transform="translate(10.176 42.445)"><g transform="translate(26.087 2.897)"><path fill="#ea4b6e" d="m22.47.002.363.126v30.09l-.363.223c.576.148.552 1.978 0 2.174v6.16H0V0h22.47Z"/><path fill="#c2e9f2" d="m17.039 22.827-14.5.015v-20.3h14.5Zm0 11.593-14.5.012v-7.254h14.495Z"/></g><g transform="translate(48.555 .002)"><path fill="#c2e9f2" d="m13.454 13.751-.428-.126c-.136-.172-1.448-3.909-1.46-4.13a.68.68 0 0 1 .162-.612l-.412-.073-.835-2.179-2.408 6.93-.45.191-.063.148.017.484a4.02 4.02 0 0 0 .416 5.8q.156.683-1.08 1.138a6.843 6.843 0 0 0-.53 11.345l.119.518-6.5.153V2.171l21.02.007v31.165l-6.577-.024a7.294 7.294 0 0 0-1.225-12.9 4.37 4.37 0 0 0 .23-6.671Z"/><g transform="translate(.002)"><path fill="#fefefe" d="M6.502 33.184a7.11 7.11 0 0 1-3.179-6.89 7.24 7.24 0 0 1 4.531-5.853 4.242 4.242 0 0 1-.3-6.538l2.055.082a4.268 4.268 0 0 0 .421 6.456 7.246 7.246 0 0 0-1.288 12.824c-.733.036-1.656.3-2.244-.08Z"/><path fill="#f9647f" d="M11.723 8.886a41 41 0 0 1-1.5 4.754l-.428.128-2.176-.012 2.876-8.271Z"/><path fill="#ea4b6e" d="m11.723 8.886 1.726 4.865-3.655.017 1.576-4.577c.077-.227.169-.341.353-.305"/><path fill="#eff9f9" d="M0 35.513v-2.174c.034-.143.092-.356.2-.368a35.5 35.5 0 0 1 4.909-.116 3.6 3.6 0 0 1 1.392.329A2.5 2.5 0 0 1 7.774 33a7.62 7.62 0 0 1 1.515-12.621 5.14 5.14 0 0 1-.574-6.066c-.622.1-1.009-.041-1.159-.409-.133-.094-.109-.143.063-.148.274-.552 1.951-.557 2.176.012l.307-.363 3.094-.012.254.361c.808-.172 1.368 1.213 1.583 1.915a4.81 4.81 0 0 1-1.092 4.686 7.666 7.666 0 0 1 1.583 12.609 36 36 0 0 0 5.035.019.3.3 0 0 0 .1-.131V2.675l-.126-.131L.224 2.537l-.223-.363V0h22.083a1.077 1.077 0 0 1 1.109 1.118v33.271a1.076 1.076 0 0 1-1.109 1.118H.007Z"/><path fill="#fee574" d="M10.14 23.279a1.063 1.063 0 0 1 1.38.627 1.09 1.09 0 0 1-.639 1.394 1.076 1.076 0 1 1-.741-2.021m0 4.347a1.063 1.063 0 0 1 1.38.627 1.09 1.09 0 0 1-.639 1.394 1.076 1.076 0 1 1-.741-2.021"/></g></g><path fill="#eff9f9" d="M23.189 0v2.174l-.126.363L2.66 2.54l-.128.131V32.84l.077.131 2.89.007.257.358c.017-.14.053-.346.155-.363.651-.114 2.375-.16 2.764.351l.167-.363 10.631.007.215.363.208-.363a30 30 0 0 1 3.035 0 .6.6 0 0 1 .259.363v2.174H1.109A1.076 1.076 0 0 1 0 34.387V1.118A1.076 1.076 0 0 1 1.109 0h22.083Z"/><path fill="#c2e9f2" d="M23.189 2.174v31.165h-3.5a2.7 2.7 0 0 1-.128-1.433l-1.22-4.776.286-.341-.4-.116-1.97-7.526.3-.3-.356-.077q-.813-3.123-1.76-6.216l.182-.387a2 2 0 0 1 .779-1.239c2.987-6.712-8.281-6.773-5.379-.034a1.7 1.7 0 0 1 .678 1.189l.3.254-1.75 6.386-.419.162c.136.036.336.123.32.211-.37 1.859-.995 4.076-1.542 5.906a3.47 3.47 0 0 1-.9 2.016l.3.293a39 39 0 0 0-1.167 5.107q.287.628-.075.93H2.186V2.186l21.018-.007Z"/><g transform="translate(5.443 5.46)"><path fill="#46a96e" d="m13.184 21.324 1.271 4.96a2.9 2.9 0 0 1-.208 1.593L3.233 27.87c-.569-.06-.634-.424-.683-.937a28 28 0 0 1 1.3-5.446l.419-.157.167-.363h8.525Z"/><path fill="#5fbd7d" d="M4.291 21.174c.2.073.189.123-.019.155l-1.3 4.8a2.27 2.27 0 0 0 .257 1.736l-2.919.012a2.48 2.48 0 0 1-.24-1.745l1.184-4.585a1.4 1.4 0 0 1 .5-.687c.114-.075 2.585-.215 2.537.31Z"/><path fill="#5fbd7d" d="m7.904 7.175.31.247-1.443 5.572 4.071.027.261.361 2.079 7.94h-8.91a.1.1 0 0 0 .019-.155l-.32-.211 1.813-7.061-2.166-.114-.24-.373 1.573-5.943.3-.859a1.68 1.68 0 0 1 1.356.174 1.53 1.53 0 0 1 1.3.385Z"/><path fill="#78cc96" d="m4.29 21.176-2.319.036a.77.77 0 0 0-.716.341l2.123-8.136 2.873.123Z"/><path fill="#46a96e" d="m11.102 13.382-4.815.031 1.615-6.238a3.5 3.5 0 0 0 1.268-.474 4.7 4.7 0 0 1 .61 1.61z"/><g transform="translate(3.649)"><path fill="#fee573" d="M5.521 6.701c.143.608-.99 1.034-1.268.474A3.76 3.76 0 0 1 1.6 6.616a3.626 3.626 0 1 1 3.921.087Z"/><path fill="#fef29f" d="M2.864 1.519a1.05 1.05 0 0 1 1.4.588 1.08 1.08 0 0 1-.654 1.428 1.075 1.075 0 0 1-.748-2.016Z"/></g></g></g></svg>