<svg xmlns="http://www.w3.org/2000/svg" width="92.626" height="92.794" viewBox="0 0 92.626 92.794"><defs><linearGradient id="a" x1="-25.965" x2="-24.676" y1="16.78" y2="16.843" gradientUnits="objectBoundingBox"><stop offset="0" stop-color="#ee4424"/><stop offset=".19" stop-color="#fc5426"/><stop offset="1" stop-color="#ee4424"/></linearGradient></defs><path fill="#edc19f" d="M5.438 84.642v.179H1.077a.2.2 0 0 1 .2-.174Z"/><path fill="#e99a58" d="M91.888.002q.835.073.724.775L92.6 83.99a.94.94 0 0 1-.538.983 23 23 0 0 1-4.818.131l-.259-.366c0 .143-.039.361-.128.361-5.632.1-11.668.09-17.348-.1-.082 0-.16-.114-.237-.254l-7.145-.109-.126.363-31.521.1-.223-.361-.223.361-16.626-.089-.169-.281a18 18 0 0 1-2.9-.1q-.706-.086-.852-.542l-.056-3.116-3.286.024c-.373-.063-.436-.242-.242-.576l.169-.358q39.79.222 79.882.114a1.89 1.89 0 0 0 1.932-1.937V6.382c-.116-1.286-.787-1.792-2.031-1.905q-39.613-.032-79.141.043l-.407-.361c-.111-.269-.08-.489.2-.525l2.918.027L9.5.55a1.01 1.01 0 0 1 .922-.55h81.456Z"/><path fill="#d78955" d="M10.433.002c-.225.189-.586.436-.591.741L9.8 4.031 6.7 3.98a.39.39 0 0 0-.378.182l-.155.37a1.83 1.83 0 0 0-1.635 1.855v71.95c.09 1 .363 1.206 1.191 1.7a.41.41 0 0 1 .186.385.42.42 0 0 0 .419.23l3.472-.05.031 3.286c0 .332.341.571.518.741a27 27 0 0 1-4.908 0q-2.154.091-4.361.174c-.276-.041-1.07-.223-1.07-.77L0 .802a3.8 3.8 0 0 1 .363-.8H10.43Z"/><g transform="translate(4.172 4.123)"><path fill="#febc85" d="M2.143.041C3.315.029 4.343.099 5.668 0h76.03a2.28 2.28 0 0 1 2.387 2.264v71.87a2.283 2.283 0 0 1-2.392 2.3H5.67l-3.927-.121A2.05 2.05 0 0 1 0 74.141V2.259A2.2 2.2 0 0 1 2.145.039Z"/><g transform="translate(2.714 2.702)"><path fill="#fee4c1" d="m7.254 39.392 30.722-.01v15.81l-4.436-.034q-.182-2.727-.126-5.605a1.9 1.9 0 0 1-.826-.274l-12.139-.02a.556.556 0 0 1-.421-.542 11 11 0 0 0-.172-3.036c-4.808-.252-9.912-.179-14.764-.063a.94.94 0 0 1-.564.47.21.21 0 0 0-.174.208v8.825a1.8 1.8 0 0 1-.651.041l-.363-.123V39.61l.363-.218a14.3 14.3 0 0 1 3.554 0Zm40.773-20.669h30.611l.019 15.936c-.017.143-.063.353-.165.363a29 29 0 0 1-4.026 0c-.554.111-.908-.01-1.053-.363-.162-.027-.16-.082-.01-.165l-.363-.162-.022-6a2.53 2.53 0 0 0-1.617-.177l-.24-.361-.363-.16a31 31 0 0 0-.1-4.085h-3.755a38 38 0 0 0-.087 3.985l-.363.259-.194.363q-1.007.032-1.956-.015-.076.234-.182 0a.6.6 0 0 1-.351.1c-.419.019-1.712 0-1.8-.441l-.363-.16a40 40 0 0 0-.087-4.092l-3.772.017a35 35 0 0 0-.085 3.978l-.363.259a.6.6 0 0 1-.015.242 6.5 6.5 0 0 1-2.213.109c-.155.22-.383.223-.683 0-.775.136-1.3.017-1.566-.361l-.363-.16a32 32 0 0 0-.1-4.089h-3.76a38 38 0 0 0-.085 3.993l-.363.259-.218.358a3.1 3.1 0 0 0-1.612.14q-.1 2.993.056 5.864 1.184-.24 1.613.329.234.08 0 .186c-.073.586-1.935.53-2.106-.01a3.2 3.2 0 0 0-1.724-.167l-.363-.123q0-7.721.007-15.445l.363-.218c.039-.14.1-.351.206-.363a24 24 0 0 1 3.361.007l.254.363Zm-40.774-.029q.115-.26.155.034l30.572-.007-.02 15.95c-.017.14-.063.353-.162.361a29 29 0 0 1-4.092-.024q-.824.16-1.031-.368l-.361-.213.015-6.157a3.9 3.9 0 0 0-1.615-.111l-.242-.361-.363-.16q.062-2.066-.082-4.085l-3.777.012a36 36 0 0 0-.085 3.978l-.363.257-.015.242q-.91.088-1.85.264l-.375-.174q-.267.299-.772.029-1.1.192-1.465-.356l-.363-.16a31 31 0 0 0-.1-4.089H17.1a37 37 0 0 0-.085 3.99l-.363.259-.194.363-2.007.056a22 22 0 0 0-2.041-.063l-.24-.361-.363-.16a40 40 0 0 0-.087-4.085l-3.772.017a35 35 0 0 0-.087 3.971l-.363.257a.33.33 0 0 1-.114.361 2.6 2.6 0 0 0-1.751.2l-.012 5.869-.363.264H3.699l-.363-.123-.046-15.442.361-.22.2-.363 3.138-.019.259.361Zm66.892 36.461-.242-.015q-.134-4-.23-8.067l-.237-.186q-3.123-.08-6.268-.048l-.264-.363c0 .14-.034.356-.121.363-1.765.107-4.063.087-5.833 0q-1.032.183-1.293-.363c0 .14-.034.358-.123.363a48 48 0 0 1-6.031 0q-.821.167-.988-.361l-.162.363h-6.159l-.482.2q-.243 3.911-.138 7.908l-.363.213h-1.007l-.363-.123.015-15.433.363-.218h34.449v15.805l-4.516-.034Z"/><path fill="url(#a)" d="M76.035 219.117q.087 2.844-.063 5.605l-.22.092-25.732.015c-.024.138-.058.252-.131.288-.138.068-2.806.206-2.724-.3l-.015-9.169a.854.854 0 0 1 .922-.918l14.113.024a.85.85 0 0 1 .811.891l.019 2.83 12.234.007c.315 0 .784.363.789.632Z" transform="translate(-42.62 -169.563)"/><path fill="#fee4c1" d="M37.961 14.025c-.039.14-.1.351-.206.363a22 22 0 0 1-3.1 0q-.94.183-1.2-.363l-.363-.211-.01-7.353a6 6 0 0 1-.414-.789q-3.091-.153-6.276-.073-.228.525-.46 0H5.488l-.257.09a6 6 0 0 1-.358.789v7.336l-.363.213c-.029.535-.695.5-.811 0l-.363-.167q-.033-6.8-.063-13.6l.361-.22 34.34-.012-.017 14.011Zm40.693-.001c-.017.14-.048.322-.165.363-.271.092-4.266.044-4.821 0l-.266-.363-.363-.167-.029-9.259a31 31 0 0 0-4.428-.143l-.252-.368-.257.361q-1.918-.007-3.765-.019-.113 1.275-.1 2.574-2.484.153-5 .131l-.278-.359a29 29 0 0 0-3.7-.087c-.237.3-.351.162-.482-.177a5.7 5.7 0 0 0-.138-2.031l-4.331-.029-.257-.363-.257.361-3.2-.024-.264.162-.017 9.215-.363.218c.056.562-1.586.537-1.7 0l-.363-.169L43.843.239l.363-.22h34.458l-.007 14.009Zm.003 45.871v11.1h-5.256l-.363-.16v-3.06a2.58 2.58 0 0 0-2.632-2.329l-.242-.37-1.244.358q-3.261-.588-4.186 1.709l-.373.153c.017.351-.121.361-.23.019l-.375-.184c-.189-1.211-1.542-1.629-2.61-1.688l-.2-.368-1.07.361a4.64 4.64 0 0 0-3.753.731 1.8 1.8 0 0 1-.891.978c-.1.15-.274.293-.407.218a3.1 3.1 0 0 0-1.811-1.77 1.22 1.22 0 0 1-1.152-.511l-1.232.366c-2-.1-4.1-.186-4.344 2.317l-.039 2.91-.366.247a5.6 5.6 0 0 1-1.971.073q-.131-5.342-.073-10.714l.363-.218 3.85-.1.126-.363 30.265-.061.223.363Zm-40.7-.012.015 11.1-5.273.012-.366-.16-.068-5.281-4.44-.1-.259-.366-.261.358c-.157.056-2.939.085-3.31.048a1.04 1.04 0 0 1-.436-.186q-.248.352-.794.16l-4.026-.017-.261-.363-.259.361h-3.735c-.031.155-.085.153-.153 0q-2.364.047-4.813.012l-.257-.363-.458.356a12.6 12.6 0 0 0-3.145.107l-.036 5.184-.363.261-1.613-.029-.361-.167.051-10.542.363-.213 3.758-.1.126-.363 30.148-.075.225.361Z"/><path fill="#f5a86c" d="M33.541 55.16c0 .056 0 .186.167.186l4.247-.039v4.576l-30.5.077a.15.15 0 0 0-.131-.09c-.14-.039-.353-.1-.363-.206a34 34 0 0 1 .007-4.232.65.65 0 0 1 .245-.16l25.916-.019.22-.092.063-5.605.126 5.605Zm19.04.147.211-.363h6.552l.266.358q3.581-.127 7.283-.073a.4.4 0 0 1 .107-.291 65 65 0 0 1 6.893 0l.213.363h4.551v4.591l-30.613.063c-.14-.039-.346-.094-.363-.211a31 31 0 0 1-.012-4.14l.361-.264 4.552-.036Z"/><path fill="#fdd1a3" d="m44.206 18.718-.007 15.788-3.564.012.048-15.793.208-.363h3.053l.262.363Zm.005 20.665-.015 15.776-3.562.015.056-15.8a.95.95 0 0 1 .465-.4c.51-.172 2.664-.07 3.056.409M3.652 18.716 3.7 34.5l-3.7.027v-15.82c.019-.14.058-.341.165-.363a30 30 0 0 1 3.225.007l.261.363Zm.047 20.676v15.767l-3.7.029v-15.8ZM3.636.024l.063 13.992-.206.363H.256l-.254-.363V.031ZM44.201.02l.017 14c-.017.14-.058.351-.157.363a22 22 0 0 1-3.131 0l-.254-.363L40.647 0l3.554.019Zm-.007 60.036v10.883l1.68-.022c0 .1-.194.215-.373.213l-4.852-.085V60.012l3.54.046Zm-40.495.004-.053 10.922-3.644.007v-10.97Z"/><path fill="#e99a58" d="M33.352 55.159c0 .058-.012.182-.206.182H7.328v4.528l-7.322.029.044-4.6 4.5-.046 3.281-.075z"/><g transform="translate(.002 13.58)"><path fill="#f5a86c" d="M11.6.446q.07-.238.182-.007l.121-.363h6.733l.213.363c.058-.155.119-.15.182.007l.121-.363h6.733l.213.363q.07-.238.182-.007l.211-.363h6.7l.264.363h4.5l-.008 4.54L7.811 4.97a.41.41 0 0 0-.4.182.14.14 0 0 0-.155-.034A7.6 7.6 0 0 1 7.29.448c.039-.14.094-.344.211-.363a30 30 0 0 1 3.842 0l.261.363ZM49.787.439c.017-.14.061-.353.162-.363a31 31 0 0 1 3.811 0q1.02-.183 1.344.363c.017-.14.061-.353.16-.363a24 24 0 0 1 3.416 0l.257.363c.017-.143.063-.353.165-.363a42 42 0 0 1 4.946 0l.264.363c.017-.14.058-.349.162-.363a17 17 0 0 1 2.511 0q.868-.174 1.1.363c.017-.14.061-.353.162-.363a32 32 0 0 1 3.811 0q1.02-.183 1.344.363h5.252l-.044 4.535-30.579-.01c-.14-.036-.327-.085-.363-.206-.082-.271-.048-3.62 0-4.065l.363-.259c.082-.562 1.615-.545 1.76 0Z"/><path fill="#e99a58" d="M3.7.436h.811q.117-.55 1.128-.358 1.208-.22 1.644.366a42 42 0 0 1-.034 4.67l-3.6.022L0 5.129v-4.7h3.7ZM44.218.434h1.7c.073-.584 1.935-.537 2.109 0v4.7l-3.821-.007-3.523.007-.007-4.712h3.542Z"/></g><path fill="#e99a58" d="m48.031 55.341.012 4.615-7.341-.061v-4.581Z"/><g transform="translate(0 34.203)"><path fill="#f5a86c" d="M73.412.459h5.244l-.007 4.559-30.621-.01c-.14-.039-.346-.094-.363-.206a31 31 0 0 1 0-4.06l.363-.259q7.826-.178 15.941-.1.254-.541.506 0 4.536-.076 8.934.077ZM14.46.446l.167-.363h8.719l.215.363.167-.363 8.726-.01.218.363 5.285.031-.012 4.549-30.473-.012c-.167 0-.225.119-.218.184H3.7c-.039.138-.094.349-.206.361a30 30 0 0 1-3.237 0A.58.58 0 0 1 0 5.186v-.179l.121-.363h6.733a30 30 0 0 0 .08-3.9l.361-.259c0-.14.034-.358.121-.363A52 52 0 0 1 13.83.088c.344-.046.518-.007.627.358Z"/><path fill="#e99a58" d="m45.925.471 2.106.01v4.525h-3.627a.18.18 0 0 0-.194.177c-1.145 0-2.3-.123-3.52-.007l.015-4.724zM7.297.484l.027 4.52H.002V.452Z"/></g><g transform="translate(5.259 65.057)"><path fill="#08a8f0" d="M9.075.395a37 37 0 0 1-.017 5.53l-5.235.022c-.14-.017-.356-.063-.363-.162a35 35 0 0 1 0-5.009c.017-.429.048-.7.545-.729l4.523.012a.57.57 0 0 1 .55.339ZM18.299.26c.143.017.356.063.363.165a48 48 0 0 1 0 5.264.6.6 0 0 1-.363.266l-5.329-.012c-.143-.017-.356-.063-.363-.162a36 36 0 0 1 .14-5.6l.467-.14 4.189.017a1.8 1.8 0 0 1 .891.206Zm9.141 5.682h-5.317c-.14-.017-.356-.063-.363-.162a35 35 0 0 1 0-5.014c.022-.428.056-.7.552-.734l5.058.07.073 5.833Z"/><path fill="#0290ce" d="M13.22.037a2.1 2.1 0 0 0-.254 1.114l.01 4.789-3.733-.024a36.5 36.5 0 0 1-.015-5.52.52.52 0 0 1 .54-.385l3.45.027Z"/><path fill="#028fce" d="M4.005.044a2 2 0 0 0-.184.746v5.155l-3.825.007L.04.122A25 25 0 0 1 4.003.049ZM22.306.039a2.1 2.1 0 0 0-.191.753v5.157l-3.818.007V.261A2.47 2.47 0 0 1 19.75.004l2.554.036Z"/><path fill="#24a3d9" d="m9.244 5.915-.184.01.015-5.53h.153Z"/><g transform="translate(40.615 .005)"><path fill="#fc5426" d="m9.353 2.08.293.45-.053 3.012-.37.4-5.307-.012-.363-.2c-.232-2-.247-5.629 2.431-5.721a2.9 2.9 0 0 1 2.939 1.629c.1.235.208.431.431.431Zm18.171 3.85-5.319-.007c-.14-.017-.351-.058-.363-.157-.232-2.01-.276-5.68 2.443-5.755a2.974 2.974 0 0 1 3.244 2.959l-.007 2.961Zm-9.271-3.678a13.6 13.6 0 0 1 .029 3.666l-5.223.022c-.14-.039-.351-.1-.361-.211-.191-2.031-.334-5.549 2.366-5.716 1.445 0 3.167.661 3.186 2.24Z"/><path fill="#ee4424" d="M5.983.017A3.16 3.16 0 0 0 3.906 3.15l.01 2.787c-1.307 0-2.625-.058-3.915-.077L.04 2.797A2.747 2.747 0 0 1 2.686.027h3.3Zm9.084-.005c-.937.54-1.956 1.247-1.968 2.445l-.034 3.482-3.838.01a24 24 0 0 1 .131-3.869A2.62 2.62 0 0 1 11.934.005h3.138ZM24.289.01a3.08 3.08 0 0 0-2.082 2.954v2.959l-3.738-.007a13.7 13.7 0 0 1 .017-3.685 2.59 2.59 0 0 1 2.678-2.23Z"/><path fill="#f5603b" d="M18.468 5.92h-.184l-.031-3.666.232-.022Z"/></g></g><g transform="translate(45.952 23.127)"><path fill="#c9e9ed" d="m27.451 11.37.01.165-25.384.022v-.186h16.127V5.019h.184v6.353Z"/><path fill="#c7eefd" d="M2.242 4.678c.039-.14.092-.346.206-.363a31 31 0 0 1 4.206 0l.259.363h1.513a1.26 1.26 0 0 1 .738.358l-.017 6.343a54 54 0 0 1-7.067 0L0 11.423l.051-6.566a5.5 5.5 0 0 1 2.191-.169Z"/><path fill="#b4acce" d="M6.913 4.673H2.24v-4a.62.62 0 0 1 .588-.666L6.215 0a.655.655 0 0 1 .7.7v3.968Z"/><g transform="translate(18.278 .005)"><path fill="#c7eefd" d="M2.261 4.669c.039-.14.1-.353.206-.363a41 41 0 0 1 4.206 0 .6.6 0 0 1 .259.363l1.516-.007a.678.678 0 0 1 .729.726v5.98q-4.507.149-9.135.087-.1-3.258.073-6.438a.555.555 0 0 1 .535-.349h1.612Z"/><path fill="#b5acce" d="M6.933 4.668h-4.67v-4a.62.62 0 0 1 .6-.666h3.39a.658.658 0 0 1 .69.7Z"/></g><g transform="translate(8.711 .005)"><path fill="#98e5fb" d="M2.679 4.673c.039-.14.092-.346.206-.363a31 31 0 0 1 4.2 0l.259.363h1.613a.55.55 0 0 1 .538.341q.142 3.163.114 6.438-4.627.073-9.176-.087c-.143-.039-.356-.1-.361-.213a55 55 0 0 1 .017-5.867.58.58 0 0 1 .363-.264.8.8 0 0 1 .7-.351h1.521Z"/><path fill="#b5acce" d="M7.346 4.673H2.678L2.671.7a.658.658 0 0 1 .69-.7h3.39a.62.62 0 0 1 .6.666v4Z"/></g></g><g transform="translate(5.254 23.127)"><g transform="translate(17.862)"><path fill="#c7eefd" d="M2.68 4.672c.039-.14.1-.353.206-.363a27 27 0 0 1 4.344.119.5.5 0 0 1 .119.242h1.625a.567.567 0 0 1 .605.538l-.024 6.3-9.108.01c-.143-.039-.356-.1-.363-.213a43 43 0 0 1 0-5.237Q-.087 5.222.445 5a1.27 1.27 0 0 1 .726-.337h1.513Z"/><path fill="#b4acce" d="M7.349 4.67h-4.67V.702a.657.657 0 0 1 .7-.7l3.387.007a.62.62 0 0 1 .588.666v4Z"/></g><g transform="translate(9.193 .002)"><path fill="#98e5fb" d="M2.206 4.676c.039-.14.1-.351.206-.363a24 24 0 0 1 3.048 0q1.072-.198 1.412.363l1.346-.01a1.37 1.37 0 0 1 .891.339v6.518h-9.1l-.01-6.426c0-.225.315-.421.586-.421h1.617Z"/><path fill="#b5acce" d="M6.874 4.675H2.206v-4a.62.62 0 0 1 .6-.666h3.39a.66.66 0 0 1 .69.7l-.007 3.973Z"/></g><g transform="translate(0 .005)"><path fill="#c7eefd" d="M2.244 4.668c.039-.14.094-.346.206-.363a30.5 30.5 0 0 1 4.206 0l.259.363 1.433-.015a.91.91 0 0 1 .847.438c.14 0 .353.031.363.123a40 40 0 0 1 .01 6.089l-.363.215-7.162.036c0-.116-.213-.245-.387-.189H.005V5.387a.678.678 0 0 1 .731-.726l1.516.007Z"/><path fill="#b5acce" d="M6.915 4.666h-4.67V.7a.66.66 0 0 1 .69-.7h3.39a.62.62 0 0 1 .6.666v4Z"/></g></g><g transform="translate(45.201 46.474)"><path fill="#fbdc66" d="M28.941 8.68a.5.5 0 0 1-.036.15h-14.5c-.157-.039-.145-.087.017-.143l.123-.363 6.813-.036-.027-8.07.361-.218h6.319a.93.93 0 0 1 .918.893v7.784Z"/><path fill="#fbdc66" d="m14.449 0 .363.167-.022 8.3-.363.215-.017.143H7.381l-.128-.143-.361-.169.051-8.3L7.306 0h7.145Z"/><path fill="#feed99" d="m7.305.005-.053 8.68H0V.928A.946.946 0 0 1 1.017.006ZM21.696 0l.029 8.685h-7.3L14.449 0Z"/></g><g transform="translate(4.513 4.063)"><g transform="translate(0 1.436)"><path fill="#028fce" d="M28.158.167a.816.816 0 0 1 .775.811l.012 7.542h-7.176q-.116-4.122-.148-8.428Q24.9.023 28.158.165Z"/><path fill="#08a8f0" d="M.72.182a45 45 0 0 1 6.368 0 76 76 0 0 1 0 8.343H2.775L0 8.518v-7.6A.776.776 0 0 1 .714.182Z"/><path fill="#3dacd9" d="m28.158.167-6.389.019V8.52l-.182.007-.242-.015q-.138-3.966-.22-7.968H14.73l-.213-.363q-.076.236-.182 0l-.121.363H7.481L7.268.181q-.076.234-.182 0H.719a.25.25 0 0 1 .237-.182h26.776a.5.5 0 0 1 .424.165Z"/><path fill="#08a8f0" d="M21.587 8.527H14.52a76 76 0 0 1 0-8.343h7.07v8.343Z"/><path fill="#028fce" d="M14.338.184a75 75 0 0 1 0 8.336H7.271a75 75 0 0 1 0-8.336Z"/><path fill="#34a6d5" d="m14.52 8.527-.182-.007V.184h.182Z"/><path fill="#2cade3" d="m7.271 8.52-.182.007V.184h.182Z"/></g><g transform="translate(41.407)"><path fill="#57bd91" d="M18.392 9.956h-5.374c-.14 0-.358-.034-.363-.121a53 53 0 0 1 0-6.508c-.046-.344 0-.513.363-.617l5.227-.061a6.7 6.7 0 0 1 .143-2.286l.363.165q0 4.605.007 9.21l-.363.213Z"/><path fill="#57bd91" d="m13.012 2.709-.162.361-3.3-.019v6.69l-.366.213H3.87c-.143-.015-.358-.065-.363-.165-.046-1.155-.2-9.276.126-9.631l.47-.133 4.506.019a.6.6 0 0 1 .576.663v1.85l3.615-.034a.205.205 0 0 1 .208.186Z"/><path fill="#22b17f" d="M4.1.024a1.7 1.7 0 0 0-.235.685v9.246H0V.6A.63.63 0 0 1 .649 0Z"/><g transform="translate(18.384 .002)"><path fill="#57bd91" d="M9.102 9.954h-5.32c-.143-.015-.358-.065-.363-.167-.046-1.155-.2-9.283.131-9.636l.472-.128 4.506.019a.61.61 0 0 1 .574.676v9.239Z"/><path fill="#22b17f" d="M4.022.022a1.6 1.6 0 0 0-.242.685v9.249H.008L.001.366A.64.64 0 0 1 .577 0l3.445.024Z"/></g><path fill="#22b17f" d="M13.012 2.71v7.247H9.179V2.689Z"/></g></g></g></g><g transform="translate(5.323 84.637)"><path fill="#a34f3e" d="m81.665.104-.012 7.314a1.04 1.04 0 0 1-.734.729H66.641a1.03 1.03 0 0 1-.828-.477L63.782.605Q60.419.431 57.01.341L56.81 0l24.856.1ZM5.023 0l19.914.1-2.111 7.387c-.068.24-.312.656-.625.656L8.657 8.15q-.883-.087-.952-.683L7.64.542H.333L.118.179Q-.116.102.118 0h4.908Z"/><path fill="#883f2e" d="M8.656 8.154H1.03a.87.87 0 0 1-.913-.91V.184h7.92l.024 7.249c0 .344.426.576.593.724Zm57.986-.002h-7.065c-.223 0-.516-.332-.574-.533l-2.2-7.612 7.234.191 2.109 7.348c.079.259.377.446.496.606"/></g></svg>