<svg xmlns="http://www.w3.org/2000/svg" width="81.836" height="68.657" viewBox="0 0 81.836 68.657"><defs><clipPath id="a"><path fill="none" d="M0 0h81.836v68.657H0z"/></clipPath></defs><g clip-path="url(#a)"><path fill="#e4e8e9" d="M81.835 13.819v50.362c-.154 2.814-2.516 4.18-5.028 4.473H5.258C2.644 68.407.161 66.941.029 64.091q-.081-25.173.06-50.3l.153-.319 81.394.032Z"/><path fill="#566368" d="M29.943 55.887c.142.03.139.082 0 .153.126.033.312.089.32.186a33 33 0 0 1 0 4.307q.148.74-.319.935c.136.044.128.088-.015.133l-23.168-.02-.006-5.682Z"/><path fill="#deb1bb" d="M75.132 61.466v.168l-45.2-.035.014-.133.151-.319h44.835Z"/><path fill="#f93f68" d="M75.125 19.637c.144 11.992.126 24.455.048 36.495a1 1 0 0 1-.2-.175q-22.548.066-45.031-.07l-.111.32-22.875.008-.2-.319.019-36.257Z"/><path fill="#e4c6cd" d="M75.131 61.635q-.207-.073 0-.168l-.32-.186-.007-4.9q-22.322-.04-44.66-.02l-.2-.319v-.153l45.182-.011v-36.24c.043 0 .178 0 .166.194v41.6a.18.18 0 0 1-.16.208"/><path fill="#fefefe" d="m49.272 41.463-12.47 7.193a2.84 2.84 0 0 1-2.912-.111 2.93 2.93 0 0 1-1.385-2.573V31.943a2.97 2.97 0 0 1 1.359-2.611 2.92 2.92 0 0 1 3.075-.055l12.32 7.114a2.94 2.94 0 0 1 .017 5.073"/><path fill="#d0d0d0" d="M75.131 61.467H29.948V56.04h45.176ZM4.88.152c23.732-.134 48.425-.134 72.169 0a4.57 4.57 0 0 1 3.871 2.064 3.17 3.17 0 0 1 .753 1.781q.083.372.163.793v9.029L.09 13.787l-.008-9a1.74 1.74 0 0 0 .127-.8A4.84 4.84 0 0 1 4.88.152"/><path fill="#d7d9d9" d="M81.836 4.79c-.235-.186-.17-.529-.163-.793l.163-.006Z"/><path fill="#d8dada" d="M77.049.152H4.88c.009-.053.036-.139.213-.153h71.744c.179.013.2.1.213.152"/><path fill="#d7d8d9" d="M.082 4.791a4.3 4.3 0 0 1 .127-.8.76.76 0 0 1-.127.8"/><path fill="#fbb55f" d="M17.813 3.918a3.156 3.156 0 1 1-2.115 4.032 3.14 3.14 0 0 1 2.115-4.032"/><path fill="#f93f68" d="M7.914 3.925a3.134 3.134 0 0 1 3.924 2.281 3.159 3.159 0 0 1-6.124 1.548 3.124 3.124 0 0 1 2.2-3.829"/><path fill="#47c87f" d="M27.711 3.931a3.133 3.133 0 0 1 3.968 2.22 3.158 3.158 0 0 1-6.063 1.761 3.136 3.136 0 0 1 2.1-3.982"/></g></svg>