<svg xmlns="http://www.w3.org/2000/svg" xmlns:xlink="http://www.w3.org/1999/xlink" width="1327.757" height="310.95" viewBox="0 0 1327.757 310.95"><defs><linearGradient id="a" x1="0.5" y1="1" x2="0.5" gradientUnits="objectBoundingBox"><stop offset="0" stop-color="#faf3fd"/><stop offset="1" stop-color="#bc58e6"/></linearGradient><clipPath id="c"><circle cx="101.5" cy="101.5" r="101.5" fill="#bdf59c"/></clipPath><clipPath id="d"><path d="M76.841,0A76.482,76.482,0,0,0,33.878,13.123,77.065,77.065,0,0,0,6.039,46.93,76.739,76.739,0,0,0,13.123,119.8a77.065,77.065,0,0,0,33.808,27.84,76.738,76.738,0,0,0,72.871-7.085,77.066,77.066,0,0,0,27.84-33.808,76.738,76.738,0,0,0-7.085-72.871A77.065,77.065,0,0,0,106.75,6.038,76.357,76.357,0,0,0,76.841,0Zm0,117.611A40.772,40.772,0,1,1,117.612,76.84,40.818,40.818,0,0,1,76.841,117.611Z" transform="translate(153.68 153.68) rotate(180)" fill="#61ccee"/></clipPath></defs><g opacity="0.25"><path d="M0,296.216H1327.757V114.434s-302.766-232.651-639.789-34.5S0,30.565,0,30.565Z" transform="translate(0 14.734)" opacity="0.1" fill="url(#a)"/><path d="M0,219.107H1327.757V109.475S1080.879-93.755,728.613,53.587,0,45.119,0,45.119Z" transform="translate(0 88.5)" opacity="0.2" fill="url(#a)"/><g transform="translate(1093.878)" opacity="0.7" clip-path="url(#c)" style="isolation:isolate"><g transform="translate(-230.936 0.263)"><rect width="5.833" height="280.965" transform="translate(646.731 198.672) rotate(135)" fill="#bdf59c"/><rect width="5.833" height="280.965" transform="translate(494.096 198.672) rotate(135)" fill="#bdf59c"/><rect width="5.833" height="280.965" transform="translate(338.545 198.672) rotate(135)" fill="#bdf59c"/><rect width="5.833" height="280.965" transform="translate(569.928 198.672) rotate(135)" fill="#bdf59c"/><rect width="5.833" height="280.965" transform="translate(417.293 198.672) rotate(135)" fill="#bdf59c"/><rect width="5.833" height="280.965" transform="translate(261.742 198.672) rotate(135)" fill="#bdf59c"/><rect width="5.833" height="280.965" transform="translate(607.843 198.672) rotate(135)" fill="#bdf59c"/><rect width="5.833" height="280.965" transform="translate(455.209 198.672) rotate(135)" fill="#bdf59c"/><rect width="5.833" height="280.965" transform="translate(299.657 198.672) rotate(135)" fill="#bdf59c"/><rect width="5.833" height="280.965" transform="translate(531.039 198.672) rotate(135)" fill="#bdf59c"/><rect width="5.833" height="280.965" transform="translate(378.405 198.672) rotate(135)" fill="#bdf59c"/><rect width="5.833" height="280.965" transform="translate(222.854 198.672) rotate(135)" fill="#bdf59c"/><rect width="5.833" height="280.965" transform="translate(626.673 198.672) rotate(135)" fill="#bdf59c"/><rect width="5.833" height="280.965" transform="translate(474.039 198.672) rotate(135)" fill="#bdf59c"/><rect width="5.833" height="280.965" transform="translate(318.488 198.672) rotate(135)" fill="#bdf59c"/><rect width="5.833" height="280.965" transform="translate(549.87 198.672) rotate(135)" fill="#bdf59c"/><rect width="5.833" height="280.965" transform="translate(397.236 198.672) rotate(135)" fill="#bdf59c"/><rect width="5.833" height="280.965" transform="translate(241.684 198.672) rotate(135)" fill="#bdf59c"/><rect width="5.833" height="280.965" transform="translate(587.786 198.672) rotate(135)" fill="#bdf59c"/><rect width="5.833" height="280.965" transform="translate(435.151 198.672) rotate(135)" fill="#bdf59c"/><rect width="5.833" height="280.965" transform="translate(279.6 198.672) rotate(135)" fill="#bdf59c"/><rect width="5.833" height="280.965" transform="translate(510.983 198.672) rotate(135)" fill="#bdf59c"/><rect width="5.833" height="280.965" transform="translate(358.348 198.672) rotate(135)" fill="#bdf59c"/><rect width="5.833" height="280.965" transform="translate(202.797 198.672) rotate(135)" fill="#bdf59c"/></g></g><g transform="translate(28.404 40.432)" opacity="0.3" clip-path="url(#d)" style="isolation:isolate"><g transform="translate(-174.83 0.199)"><rect width="4.416" height="212.703" transform="translate(489.605 150.404) rotate(135)" fill="#61ccee"/><rect width="4.416" height="212.703" transform="translate(374.054 150.404) rotate(135)" fill="#61ccee"/><rect width="4.416" height="212.703" transform="translate(256.294 150.404) rotate(135)" fill="#61ccee"/><rect width="4.416" height="212.703" transform="translate(431.461 150.404) rotate(135)" fill="#61ccee"/><rect width="4.416" height="212.703" transform="translate(315.91 150.404) rotate(135)" fill="#61ccee"/><rect width="4.416" height="212.703" transform="translate(198.15 150.404) rotate(135)" fill="#61ccee"/><rect width="4.416" height="212.703" transform="translate(460.165 150.404) rotate(135)" fill="#61ccee"/><rect width="4.416" height="212.703" transform="translate(344.614 150.404) rotate(135)" fill="#61ccee"/><rect width="4.416" height="212.703" transform="translate(226.854 150.404) rotate(135)" fill="#61ccee"/><rect width="4.416" height="212.703" transform="translate(402.021 150.404) rotate(135)" fill="#61ccee"/><rect width="4.416" height="212.703" transform="translate(286.47 150.404) rotate(135)" fill="#61ccee"/><rect width="4.416" height="212.703" transform="translate(168.711 150.404) rotate(135)" fill="#61ccee"/><rect width="4.416" height="212.703" transform="translate(474.421 150.404) rotate(135)" fill="#61ccee"/><rect width="4.416" height="212.703" transform="translate(358.869 150.404) rotate(135)" fill="#61ccee"/><rect width="4.416" height="212.703" transform="translate(241.11 150.404) rotate(135)" fill="#61ccee"/><rect width="4.416" height="212.703" transform="translate(416.277 150.404) rotate(135)" fill="#61ccee"/><rect width="4.416" height="212.703" transform="translate(300.726 150.404) rotate(135)" fill="#61ccee"/><rect width="4.416" height="212.703" transform="translate(182.966 150.404) rotate(135)" fill="#61ccee"/><rect width="4.416" height="212.703" transform="translate(444.981 150.404) rotate(135)" fill="#61ccee"/><rect width="4.416" height="212.703" transform="translate(329.43 150.404) rotate(135)" fill="#61ccee"/><rect width="4.416" height="212.703" transform="translate(211.67 150.404) rotate(135)" fill="#61ccee"/><rect width="4.416" height="212.703" transform="translate(386.837 150.404) rotate(135)" fill="#61ccee"/><rect width="4.416" height="212.703" transform="translate(271.286 150.404) rotate(135)" fill="#61ccee"/><rect width="4.416" height="212.703" transform="translate(153.527 150.404) rotate(135)" fill="#61ccee"/></g></g></g></svg>