<svg xmlns="http://www.w3.org/2000/svg" width="1328" height="406" viewBox="0 0 1328 406"><defs><path id="g" d="m197.594 0 4.103 4.103L4.103 201.697 0 197.594z"/><path id="h" d="m349.401 0 4.103 4.103L155.91 201.697l-4.103-4.103z"/><path id="i" d="m504.108 0 4.103 4.103-197.594 197.594-4.103-4.103z"/><path id="j" d="m273.981 0 4.103 4.103L80.49 201.697l-4.103-4.103z"/><path id="k" d="m425.787 0 4.103 4.103-197.594 197.594-4.103-4.103z"/><path id="l" d="m580.495 0 4.103 4.103-197.594 197.594-4.103-4.103z"/><path id="m" d="m236.271 0 4.103 4.103L42.78 201.697l-4.103-4.103z"/><path id="n" d="m388.077 0 4.103 4.103-197.594 197.594-4.103-4.103z"/><path id="o" d="m542.785 0 4.103 4.103-197.594 197.594-4.103-4.103z"/><path id="p" d="m312.658 0 4.103 4.103-197.594 197.594-4.103-4.103z"/><path id="q" d="m464.465 0 4.103 4.103-197.594 197.594-4.103-4.103z"/><path id="r" d="m619.171 0 4.103 4.103L425.68 201.697l-4.103-4.103z"/><path id="s" d="m217.543 0 4.103 4.103L24.052 201.697l-4.103-4.103z"/><path id="t" d="m369.349 0 4.103 4.103-197.594 197.594-4.103-4.103z"/><path id="u" d="m524.056 0 4.103 4.103-197.594 197.594-4.103-4.103z"/><path id="v" d="m293.929 0 4.103 4.103-197.594 197.594-4.103-4.103z"/><path id="w" d="m445.736 0 4.103 4.103-197.594 197.594-4.103-4.103z"/><path id="x" d="m600.443 0 4.103 4.103-197.594 197.594-4.103-4.103z"/><path id="y" d="m256.219 0 4.103 4.103L62.728 201.697l-4.103-4.103z"/><path id="z" d="m408.026 0 4.103 4.103-197.594 197.594-4.103-4.103z"/><path id="A" d="m562.733 0 4.103 4.103-197.594 197.594-4.103-4.103z"/><path id="B" d="m332.606 0 4.103 4.103-197.594 197.594-4.103-4.103z"/><path id="C" d="m484.412 0 4.103 4.103L290.92 201.697l-4.103-4.103z"/><path id="D" d="m639.12 0 4.103 4.103-197.594 197.594-4.103-4.103z"/><path id="G" d="M68.861 13.093h-5.827a3.63 3.63 0 0 1-3.633-3.633V3.633A3.633 3.633 0 0 0 55.768 0h-3.35a3.633 3.633 0 0 0-3.633 3.633V9.46a3.63 3.63 0 0 1-3.633 3.633h-5.827a3.633 3.633 0 0 0-3.633 3.633v3.35a3.633 3.633 0 0 0 3.633 3.633h5.827a3.63 3.63 0 0 1 3.633 3.632v5.825a3.633 3.633 0 0 0 3.633 3.633h3.35a3.633 3.633 0 0 0 3.633-3.633v-5.828a3.63 3.63 0 0 1 3.633-3.632h5.827a3.633 3.633 0 0 0 3.633-3.633v-3.35a3.633 3.633 0 0 0-3.633-3.633"/><path id="H" d="M2.935 38.736A2.935 2.935 0 1 1 0 41.671a2.935 2.935 0 0 1 2.935-2.935"/><radialGradient id="a" cx=".5" cy=".5" r=".5" gradientUnits="objectBoundingBox"><stop offset="0" stop-color="#fff" stop-opacity=".369"/><stop offset="1" stop-color="#fff"/></radialGradient><radialGradient id="b" cx=".5" cy=".5" r=".5" gradientUnits="objectBoundingBox"><stop offset="0" stop-color="#fff"/><stop offset="1" stop-color="#fff" stop-opacity=".012"/></radialGradient><radialGradient id="c" cx=".5" cy=".5" r=".5" gradientUnits="objectBoundingBox"><stop offset="0" stop-color="#fff"/><stop offset="1" stop-color="#fff" stop-opacity=".388"/></radialGradient><radialGradient id="I" cx=".5" cy=".5" r=".5" gradientUnits="objectBoundingBox"><stop offset="0" stop-color="#fff"/><stop offset="1" stop-color="#fff" stop-opacity="0"/></radialGradient><radialGradient id="J" cx=".5" cy=".5" r=".5" gradientUnits="objectBoundingBox"><stop offset="0" stop-color="#fff"/><stop offset="1" stop-color="#fff" stop-opacity=".18"/></radialGradient><radialGradient id="e" cx=".228" cy=".43" r=".758" gradientTransform="matrix(1 0 0 2.508 0 -.649)" gradientUnits="objectBoundingBox"><stop offset="0" stop-color="#eefeff"/><stop offset=".602" stop-color="#b8ebf9"/><stop offset="1" stop-color="#61ccee"/></radialGradient><radialGradient id="L" cx=".5" cy=".5" r=".5" gradientUnits="objectBoundingBox"><stop offset="0" stop-color="#bdf59c"/><stop offset="1" stop-color="#bdf59c" stop-opacity="0"/></radialGradient><clipPath id="d"><path fill="#fff" stroke="#707070" d="M-14875.456-13333h1328v406h-1328z"/></clipPath><clipPath id="f"><circle cx="100.949" cy="100.949" r="100.949" fill="url(#a)"/></clipPath><clipPath id="E"><circle cx="55.17" cy="55.17" r="55.17" fill="url(#b)"/></clipPath><clipPath id="F"><path fill="url(#c)" d="M100.95 201.9a100.5 100.5 0 0 1-56.442-17.241 101.25 101.25 0 0 1-36.575-44.416 100.82 100.82 0 0 1 9.308-95.736A101.25 101.25 0 0 1 61.656 7.933a100.82 100.82 0 0 1 95.735 9.308 101.25 101.25 0 0 1 36.575 44.415 100.82 100.82 0 0 1-9.308 95.735 101.25 101.25 0 0 1-44.415 36.575 100.3 100.3 0 0 1-39.293 7.934m0-154.513a53.564 53.564 0 1 0 53.564 53.564 53.625 53.625 0 0 0-53.564-53.565Z"/></clipPath><clipPath id="K"><path fill="url(#c)" d="M76.424 152.847a76.07 76.07 0 0 1-42.729-13.052 76.65 76.65 0 0 1-27.689-33.624 76.32 76.32 0 0 1 7.046-72.476A76.65 76.65 0 0 1 46.676 6.006a76.32 76.32 0 0 1 72.476 7.046 76.65 76.65 0 0 1 27.689 33.624 76.32 76.32 0 0 1-7.046 72.476 76.65 76.65 0 0 1-33.624 27.689 75.9 75.9 0 0 1-29.747 6.006m0-116.973a40.55 40.55 0 1 0 40.55 40.55 40.6 40.6 0 0 0-40.55-40.551Z"/></clipPath></defs><g clip-path="url(#d)" transform="translate(14875.456 13333)"><path fill="url(#e)" d="M0 0h1592.888v635.042H0z" transform="translate(-15003.976 -13349.769)"/><path fill="none" d="M-14688.038-13333h1253.434v600.156h-1253.434z"/><g clip-path="url(#f)" opacity=".3" style="isolation:isolate" transform="translate(-14153.096 -13057.902)"><g fill="url(#a)" transform="translate(-211.64 .261)"><use href="#g"/><use href="#h"/><use href="#i"/><use href="#j"/><use href="#k"/><use href="#l"/><use href="#m"/><use href="#n"/><use href="#o"/><use href="#p"/><use href="#q"/><use href="#r"/><use href="#s"/><use href="#t"/><use href="#u"/><use href="#v"/><use href="#w"/><use href="#x"/><use href="#y"/><use href="#z"/><use href="#A"/><use href="#B"/><use href="#C"/><use href="#D"/></g></g><g clip-path="url(#E)" opacity=".3" style="isolation:isolate" transform="translate(-13766.769 -13292.634)"><g fill="url(#b)" transform="translate(-257.419 -45.518)"><use href="#g"/><use href="#h"/><use href="#i"/><use href="#j"/><use href="#k"/><use href="#l"/><use href="#m"/><use href="#n"/><use href="#o"/><use href="#p"/><use href="#q"/><use href="#r"/><use href="#s"/><use href="#t"/><use href="#u"/><use href="#v"/><use href="#w"/><use href="#x"/><use href="#y"/><use href="#z"/><use href="#A"/><use href="#B"/><use href="#C"/><use href="#D"/></g></g><g clip-path="url(#F)" opacity=".3" style="isolation:isolate" transform="translate(-14162.271 -13397.241)"><g fill="url(#c)" transform="translate(-211.64 .261)"><use href="#g"/><use href="#h"/><use href="#i"/><use href="#j"/><use href="#k"/><use href="#l"/><use href="#m"/><use href="#n"/><use href="#o"/><use href="#p"/><use href="#q"/><use href="#r"/><use href="#s"/><use href="#t"/><use href="#u"/><use href="#v"/><use href="#w"/><use href="#x"/><use href="#y"/><use href="#z"/><use href="#A"/><use href="#B"/><use href="#C"/><use href="#D"/></g></g><g clip-path="url(#F)" opacity=".3" style="isolation:isolate" transform="translate(-14916.271 -12885.241)"><g fill="url(#c)" transform="translate(-211.64 .261)"><use href="#g"/><use href="#h"/><use href="#i"/><use href="#j"/><use href="#k"/><use href="#l"/><use href="#m"/><use href="#n"/><use href="#o"/><use href="#p"/><use href="#q"/><use href="#r"/><use href="#s"/><use href="#t"/><use href="#u"/><use href="#v"/><use href="#w"/><use href="#x"/><use href="#y"/><use href="#z"/><use href="#A"/><use href="#B"/><use href="#C"/><use href="#D"/></g></g><path fill="#fff" d="M-14031.924-13302.222h-3.552a2.214 2.214 0 0 1-2.216-2.216v-3.551a2.215 2.215 0 0 0-2.215-2.215h-2.042a2.215 2.215 0 0 0-2.215 2.215v3.551a2.214 2.214 0 0 1-2.215 2.215h-3.552a2.215 2.215 0 0 0-2.215 2.215v2.042a2.215 2.215 0 0 0 2.215 2.215h3.552a2.214 2.214 0 0 1 2.215 2.214v3.553a2.215 2.215 0 0 0 2.215 2.215h2.042a2.215 2.215 0 0 0 2.215-2.215v-3.554a2.214 2.214 0 0 1 2.215-2.214h3.552a2.215 2.215 0 0 0 2.215-2.215v-2.042a2.215 2.215 0 0 0-2.215-2.215"/><g fill="#fff" transform="translate(-14189.343 -12835.103)"><use href="#G"/><g transform="rotate(45 -27.238 55.89)"><circle cx="2.935" cy="2.935" r="2.935"/><circle cx="2.935" cy="2.935" r="2.935" opacity=".6" transform="translate(0 18.781)"/><use href="#H" opacity=".35"/></g></g><g fill="#fff" transform="translate(-13633.024 -13149.688)"><use href="#G"/><g transform="rotate(45 -27.238 55.89)"><circle cx="2.935" cy="2.935" r="2.935"/><circle cx="2.935" cy="2.935" r="2.935" opacity=".6" transform="translate(0 18.781)"/><use href="#H" opacity=".35"/></g></g><g fill="#fff" transform="rotate(45 9013.279 -23609.736)"><circle cx="1.789" cy="1.789" r="1.789"/><circle cx="1.789" cy="1.789" r="1.789" opacity=".6" transform="translate(0 11.45)"/><path d="M1.789 23.616A1.789 1.789 0 1 1 0 25.405a1.79 1.79 0 0 1 1.789-1.789" opacity=".35"/></g><g clip-path="url(#E)" opacity=".3" style="isolation:isolate" transform="translate(-13841.898 -12870.09)"><g fill="url(#I)" transform="translate(-257.419 -45.518)"><use href="#g"/><use href="#h"/><use href="#i"/><use href="#j"/><use href="#k"/><use href="#l"/><use href="#m"/><use href="#n"/><use href="#o"/><use href="#p"/><use href="#q"/><use href="#r"/><use href="#s"/><use href="#t"/><use href="#u"/><use href="#v"/><use href="#w"/><use href="#x"/><use href="#y"/><use href="#z"/><use href="#A"/><use href="#B"/><use href="#C"/><use href="#D"/></g></g><g clip-path="url(#F)" opacity=".3" style="isolation:isolate" transform="translate(-13661.479 -12956.953)"><g fill="url(#J)" transform="translate(-211.64 .261)"><use href="#g"/><use href="#h"/><use href="#i"/><use href="#j"/><use href="#k"/><use href="#l"/><use href="#m"/><use href="#n"/><use href="#o"/><use href="#p"/><use href="#q"/><use href="#r"/><use href="#s"/><use href="#t"/><use href="#u"/><use href="#v"/><use href="#w"/><use href="#x"/><use href="#y"/><use href="#z"/><use href="#A"/><use href="#B"/><use href="#C"/><use href="#D"/></g></g><g clip-path="url(#K)" opacity=".3" style="isolation:isolate" transform="translate(-13693.54 -13135.376)"><g fill="url(#c)" transform="translate(-160.221 .198)"><path d="m149.588 0 3.106 3.106L3.106 152.693 0 149.588z"/><path d="m264.512 0 3.106 3.106L118.03 152.693l-3.106-3.105z"/><path d="m381.633 0 3.106 3.106L235.15 152.693l-3.106-3.105z"/><path d="m207.416 0 3.106 3.106L60.934 152.693l-3.106-3.105z"/><path d="m322.341 0 3.106 3.106-149.588 149.587-3.106-3.105z"/><path d="m439.461 0 3.106 3.106-149.588 149.587-3.106-3.105z"/><path d="m178.868 0 3.106 3.106L32.386 152.693l-3.106-3.105z"/><path d="m293.792 0 3.106 3.106L147.31 152.693l-3.106-3.105z"/><path d="m410.913 0 3.106 3.106L264.43 152.693l-3.106-3.105z"/><path d="m236.696 0 3.106 3.106L90.214 152.693l-3.106-3.105z"/><path d="m351.621 0 3.106 3.106-149.588 149.587-3.106-3.105z"/><path d="m468.741 0 3.106 3.106-149.588 149.587-3.106-3.105z"/><path d="m164.69 0 3.106 3.106L18.208 152.693l-3.106-3.105z"/><path d="m279.614 0 3.106 3.106-149.588 149.587-3.106-3.105z"/><path d="m396.735 0 3.106 3.106-149.588 149.587-3.106-3.105z"/><path d="m222.518 0 3.106 3.106L76.036 152.693l-3.106-3.105z"/><path d="m337.443 0 3.106 3.106L190.96 152.693l-3.106-3.105z"/><path d="m454.563 0 3.106 3.106L308.08 152.693l-3.106-3.105z"/><path d="m193.97 0 3.106 3.106L47.488 152.693l-3.106-3.105z"/><path d="M308.894 0 312 3.106 162.412 152.693l-3.106-3.105z"/><path d="m426.015 0 3.106 3.106-149.588 149.587-3.106-3.105z"/><path d="m251.798 0 3.106 3.106-149.588 149.587-3.106-3.105z"/><path d="m366.722 0 3.106 3.106L220.24 152.693l-3.106-3.105z"/><path d="m483.843 0 3.106 3.106L337.36 152.693l-3.106-3.105z"/></g></g><circle cx="383.5" cy="383.5" r="383.5" fill="url(#L)" transform="translate(-14178.456 -13168)"/><circle cx="383.5" cy="383.5" r="383.5" fill="url(#L)" transform="translate(-15503.456 -13014)"/></g></svg>